%TF.GenerationSoftware,KiCad,Pcbnew,8.0.4*%
%TF.CreationDate,2024-09-13T10:52:40+02:00*%
%TF.ProjectId,unicorn,756e6963-6f72-46e2-9e6b-696361645f70,rev?*%
%TF.SameCoordinates,Original*%
%TF.FileFunction,Soldermask,Top*%
%TF.FilePolarity,Negative*%
%FSLAX46Y46*%
G04 Gerber Fmt 4.6, Leading zero omitted, Abs format (unit mm)*
G04 Created by KiCad (PCBNEW 8.0.4) date 2024-09-13 10:52:40*
%MOMM*%
%LPD*%
G01*
G04 APERTURE LIST*
%ADD10C,0.010000*%
%ADD11C,5.500000*%
G04 APERTURE END LIST*
D10*
%TO.C,Ref\u002A\u002A*%
X219149406Y-76398576D02*
X219355877Y-76442087D01*
X219420002Y-76468351D01*
X219669511Y-76633180D01*
X219850849Y-76847335D01*
X219962195Y-77107549D01*
X220001729Y-77410553D01*
X219999372Y-77508287D01*
X219982550Y-77688304D01*
X219949514Y-77818861D01*
X219889723Y-77934974D01*
X219855704Y-77985577D01*
X219738924Y-78123830D01*
X219596901Y-78255855D01*
X219546647Y-78294159D01*
X219437535Y-78362923D01*
X219333065Y-78403837D01*
X219202300Y-78425539D01*
X219039829Y-78435649D01*
X218858402Y-78438839D01*
X218726903Y-78426207D01*
X218611142Y-78391548D01*
X218491733Y-78336181D01*
X218260600Y-78177079D01*
X218091377Y-77973610D01*
X217983979Y-77739069D01*
X217938321Y-77486755D01*
X217954319Y-77229962D01*
X218031889Y-76981989D01*
X218170946Y-76756131D01*
X218371406Y-76565686D01*
X218503500Y-76483130D01*
X218688194Y-76419663D01*
X218915171Y-76391290D01*
X219149406Y-76398576D01*
G36*
X219149406Y-76398576D02*
G01*
X219355877Y-76442087D01*
X219420002Y-76468351D01*
X219669511Y-76633180D01*
X219850849Y-76847335D01*
X219962195Y-77107549D01*
X220001729Y-77410553D01*
X219999372Y-77508287D01*
X219982550Y-77688304D01*
X219949514Y-77818861D01*
X219889723Y-77934974D01*
X219855704Y-77985577D01*
X219738924Y-78123830D01*
X219596901Y-78255855D01*
X219546647Y-78294159D01*
X219437535Y-78362923D01*
X219333065Y-78403837D01*
X219202300Y-78425539D01*
X219039829Y-78435649D01*
X218858402Y-78438839D01*
X218726903Y-78426207D01*
X218611142Y-78391548D01*
X218491733Y-78336181D01*
X218260600Y-78177079D01*
X218091377Y-77973610D01*
X217983979Y-77739069D01*
X217938321Y-77486755D01*
X217954319Y-77229962D01*
X218031889Y-76981989D01*
X218170946Y-76756131D01*
X218371406Y-76565686D01*
X218503500Y-76483130D01*
X218688194Y-76419663D01*
X218915171Y-76391290D01*
X219149406Y-76398576D01*
G37*
X207801513Y-65985593D02*
X208144281Y-66023295D01*
X208377761Y-66074164D01*
X208865943Y-66253816D01*
X209307124Y-66498736D01*
X209696260Y-66802695D01*
X210028310Y-67159465D01*
X210298229Y-67562820D01*
X210500976Y-68006530D01*
X210631508Y-68484370D01*
X210682274Y-68920211D01*
X210689928Y-69130580D01*
X210687846Y-69280893D01*
X210673323Y-69395468D01*
X210643652Y-69498625D01*
X210608053Y-69587269D01*
X210455712Y-69836303D01*
X210235861Y-70037531D01*
X210021321Y-70157557D01*
X209835224Y-70208385D01*
X209607811Y-70225471D01*
X209374010Y-70209807D01*
X209168751Y-70162385D01*
X209095588Y-70131253D01*
X208852222Y-69959079D01*
X208667310Y-69727454D01*
X208543554Y-69440646D01*
X208490502Y-69175256D01*
X208453943Y-68938592D01*
X208400693Y-68760754D01*
X208320662Y-68616158D01*
X208224487Y-68500747D01*
X208005038Y-68324903D01*
X207758998Y-68224361D01*
X207499882Y-68199857D01*
X207241203Y-68252129D01*
X206996475Y-68381911D01*
X206934396Y-68430461D01*
X206817093Y-68547422D01*
X206731373Y-68682345D01*
X206667886Y-68855845D01*
X206617284Y-69088538D01*
X206606243Y-69154092D01*
X206534764Y-69472366D01*
X206429902Y-69722644D01*
X206282834Y-69917955D01*
X206084736Y-70071328D01*
X205930500Y-70151949D01*
X205761942Y-70200949D01*
X205549100Y-70224608D01*
X205328969Y-70221286D01*
X205138549Y-70189343D01*
X205131824Y-70187372D01*
X204945237Y-70100913D01*
X204758884Y-69964236D01*
X204608085Y-69804180D01*
X204585800Y-69772483D01*
X204482323Y-69590734D01*
X204419811Y-69409225D01*
X204392659Y-69201978D01*
X204395267Y-68943017D01*
X204397725Y-68900547D01*
X204469588Y-68404538D01*
X204618038Y-67934293D01*
X204837063Y-67497000D01*
X205120646Y-67099846D01*
X205462773Y-66750019D01*
X205857429Y-66454707D01*
X206298598Y-66221098D01*
X206777167Y-66057174D01*
X207085400Y-66002187D01*
X207437701Y-65978442D01*
X207801513Y-65985593D01*
G36*
X207801513Y-65985593D02*
G01*
X208144281Y-66023295D01*
X208377761Y-66074164D01*
X208865943Y-66253816D01*
X209307124Y-66498736D01*
X209696260Y-66802695D01*
X210028310Y-67159465D01*
X210298229Y-67562820D01*
X210500976Y-68006530D01*
X210631508Y-68484370D01*
X210682274Y-68920211D01*
X210689928Y-69130580D01*
X210687846Y-69280893D01*
X210673323Y-69395468D01*
X210643652Y-69498625D01*
X210608053Y-69587269D01*
X210455712Y-69836303D01*
X210235861Y-70037531D01*
X210021321Y-70157557D01*
X209835224Y-70208385D01*
X209607811Y-70225471D01*
X209374010Y-70209807D01*
X209168751Y-70162385D01*
X209095588Y-70131253D01*
X208852222Y-69959079D01*
X208667310Y-69727454D01*
X208543554Y-69440646D01*
X208490502Y-69175256D01*
X208453943Y-68938592D01*
X208400693Y-68760754D01*
X208320662Y-68616158D01*
X208224487Y-68500747D01*
X208005038Y-68324903D01*
X207758998Y-68224361D01*
X207499882Y-68199857D01*
X207241203Y-68252129D01*
X206996475Y-68381911D01*
X206934396Y-68430461D01*
X206817093Y-68547422D01*
X206731373Y-68682345D01*
X206667886Y-68855845D01*
X206617284Y-69088538D01*
X206606243Y-69154092D01*
X206534764Y-69472366D01*
X206429902Y-69722644D01*
X206282834Y-69917955D01*
X206084736Y-70071328D01*
X205930500Y-70151949D01*
X205761942Y-70200949D01*
X205549100Y-70224608D01*
X205328969Y-70221286D01*
X205138549Y-70189343D01*
X205131824Y-70187372D01*
X204945237Y-70100913D01*
X204758884Y-69964236D01*
X204608085Y-69804180D01*
X204585800Y-69772483D01*
X204482323Y-69590734D01*
X204419811Y-69409225D01*
X204392659Y-69201978D01*
X204395267Y-68943017D01*
X204397725Y-68900547D01*
X204469588Y-68404538D01*
X204618038Y-67934293D01*
X204837063Y-67497000D01*
X205120646Y-67099846D01*
X205462773Y-66750019D01*
X205857429Y-66454707D01*
X206298598Y-66221098D01*
X206777167Y-66057174D01*
X207085400Y-66002187D01*
X207437701Y-65978442D01*
X207801513Y-65985593D01*
G37*
X223698331Y-46190771D02*
X223847512Y-46240215D01*
X224105302Y-46421063D01*
X224301825Y-46645463D01*
X224432694Y-46901386D01*
X224493524Y-47176799D01*
X224479927Y-47459670D01*
X224390982Y-47730834D01*
X224355059Y-47787755D01*
X224271654Y-47909144D01*
X224143466Y-48091277D01*
X223973195Y-48330428D01*
X223763539Y-48622872D01*
X223517199Y-48964886D01*
X223236872Y-49352742D01*
X222925259Y-49782718D01*
X222585058Y-50251088D01*
X222218968Y-50754126D01*
X221829690Y-51288108D01*
X221419921Y-51849310D01*
X220992362Y-52434006D01*
X220549711Y-53038471D01*
X220142349Y-53594000D01*
X215995575Y-59245500D01*
X216170038Y-59259603D01*
X216369032Y-59257595D01*
X216619025Y-59228107D01*
X216892690Y-59175806D01*
X217162700Y-59105357D01*
X217265185Y-59072589D01*
X217616088Y-58986310D01*
X217933993Y-58976272D01*
X218216527Y-59041605D01*
X218461316Y-59181434D01*
X218665986Y-59394887D01*
X218809934Y-59640589D01*
X218873809Y-59800644D01*
X218900165Y-59945724D01*
X218897674Y-60124065D01*
X218897449Y-60127423D01*
X218880060Y-60285187D01*
X218845606Y-60425790D01*
X218785940Y-60564244D01*
X218692913Y-60715563D01*
X218558378Y-60894759D01*
X218374186Y-61116845D01*
X218336536Y-61160892D01*
X217681909Y-61864153D01*
X216962064Y-62526202D01*
X216191051Y-63135576D01*
X215382921Y-63680812D01*
X214899751Y-63964804D01*
X214458926Y-64209947D01*
X216523547Y-66152696D01*
X216846964Y-66456916D01*
X217224610Y-66811957D01*
X217648942Y-67210738D01*
X218112417Y-67646175D01*
X218607493Y-68111188D01*
X219126628Y-68598693D01*
X219662279Y-69101608D01*
X220206905Y-69612851D01*
X220752963Y-70125340D01*
X221292910Y-70631992D01*
X221819205Y-71125725D01*
X222123000Y-71410668D01*
X222589032Y-71847984D01*
X223040238Y-72271847D01*
X223472481Y-72678348D01*
X223881622Y-73063575D01*
X224263524Y-73423618D01*
X224614050Y-73754564D01*
X224929061Y-74052504D01*
X225204421Y-74313526D01*
X225435992Y-74533719D01*
X225619635Y-74709172D01*
X225751214Y-74835974D01*
X225826591Y-74910215D01*
X225839056Y-74923196D01*
X226191005Y-75366903D01*
X226488356Y-75868748D01*
X226726572Y-76418592D01*
X226901120Y-77006294D01*
X226992693Y-77502932D01*
X227019867Y-77814921D01*
X227027330Y-78180621D01*
X227016278Y-78571698D01*
X226987904Y-78959820D01*
X226943402Y-79316652D01*
X226908091Y-79510424D01*
X226716653Y-80225006D01*
X226452472Y-80900405D01*
X226113582Y-81540169D01*
X225698019Y-82147847D01*
X225203819Y-82726986D01*
X225025501Y-82910095D01*
X224625992Y-83288747D01*
X224242019Y-83609638D01*
X223850043Y-83890120D01*
X223426526Y-84147541D01*
X223130457Y-84306959D01*
X222494228Y-84606945D01*
X221848407Y-84851719D01*
X221172659Y-85047748D01*
X220446652Y-85201500D01*
X220175667Y-85246717D01*
X219963206Y-85271484D01*
X219682263Y-85291662D01*
X219348904Y-85307149D01*
X218979194Y-85317843D01*
X218589200Y-85323643D01*
X218194987Y-85324447D01*
X217812620Y-85320154D01*
X217458165Y-85310660D01*
X217147689Y-85295865D01*
X216897256Y-85275667D01*
X216831334Y-85267903D01*
X215869494Y-85122037D01*
X214974800Y-84943677D01*
X214135164Y-84730177D01*
X213539917Y-84547263D01*
X213330241Y-84478945D01*
X213152238Y-84423055D01*
X213019755Y-84383770D01*
X212946638Y-84365272D01*
X212936667Y-84365162D01*
X212945125Y-84410357D01*
X212968532Y-84524238D01*
X213003938Y-84692735D01*
X213048394Y-84901780D01*
X213084324Y-85069382D01*
X213261192Y-86047513D01*
X213379070Y-87052814D01*
X213437290Y-88067219D01*
X213435182Y-89072663D01*
X213372076Y-90051081D01*
X213292889Y-90699167D01*
X213228529Y-91094902D01*
X213152433Y-91496193D01*
X213067840Y-91890315D01*
X212977985Y-92264540D01*
X212886106Y-92606142D01*
X212795440Y-92902395D01*
X212709223Y-93140573D01*
X212630693Y-93307949D01*
X212628286Y-93312091D01*
X212461954Y-93519903D01*
X212251670Y-93666834D01*
X212010777Y-93754339D01*
X211752618Y-93783875D01*
X211490532Y-93756899D01*
X211237863Y-93674865D01*
X211007953Y-93539231D01*
X210814143Y-93351453D01*
X210669774Y-93112987D01*
X210663191Y-93097613D01*
X210613398Y-92888669D01*
X210611860Y-92626250D01*
X210657823Y-92325924D01*
X210710163Y-92126465D01*
X210857747Y-91601432D01*
X210973906Y-91097281D01*
X211061258Y-90594634D01*
X211122426Y-90074117D01*
X211160029Y-89516354D01*
X211176688Y-88901968D01*
X211178060Y-88667167D01*
X211161543Y-87824376D01*
X211108092Y-87019866D01*
X211014688Y-86235037D01*
X210878312Y-85451292D01*
X210695945Y-84650031D01*
X210464569Y-83812657D01*
X210308170Y-83307606D01*
X210274996Y-83230667D01*
X210220122Y-83161501D01*
X210128570Y-83086953D01*
X209985362Y-82993874D01*
X209876024Y-82928163D01*
X209150484Y-82458370D01*
X208441433Y-81920623D01*
X207769781Y-81331521D01*
X207381145Y-80947599D01*
X206926790Y-80476881D01*
X206357880Y-80390093D01*
X205483871Y-80226808D01*
X204676895Y-80013922D01*
X203937364Y-79751616D01*
X203265695Y-79440073D01*
X202662301Y-79079472D01*
X202127597Y-78669996D01*
X201863285Y-78424361D01*
X201524923Y-78057336D01*
X201248286Y-77686524D01*
X201022940Y-77293157D01*
X200838452Y-76858469D01*
X200684388Y-76363693D01*
X200655106Y-76251121D01*
X200556527Y-75814956D01*
X200492820Y-75411957D01*
X200460609Y-75008868D01*
X200456515Y-74572435D01*
X200462859Y-74358500D01*
X200514129Y-73718702D01*
X200619229Y-73123403D01*
X200784103Y-72547283D01*
X201014691Y-71965019D01*
X201035091Y-71919754D01*
X201198040Y-71631883D01*
X201392714Y-71420831D01*
X201624186Y-71283055D01*
X201897531Y-71215010D01*
X202057000Y-71206010D01*
X202367020Y-71243171D01*
X202642642Y-71357105D01*
X202887991Y-71549642D01*
X202929816Y-71593397D01*
X203081874Y-71797032D01*
X203170405Y-72014028D01*
X203196105Y-72255025D01*
X203159670Y-72530660D01*
X203061795Y-72851571D01*
X203019252Y-72961500D01*
X202890120Y-73305484D01*
X202797688Y-73614408D01*
X202732661Y-73924294D01*
X202689052Y-74241180D01*
X202669547Y-74629749D01*
X202691072Y-75043037D01*
X202749795Y-75456618D01*
X202841885Y-75846064D01*
X202963512Y-76186950D01*
X203009563Y-76284790D01*
X203120419Y-76461517D01*
X203280743Y-76663544D01*
X203470166Y-76868306D01*
X203668318Y-77053237D01*
X203793120Y-77152833D01*
X204188433Y-77402707D01*
X204658075Y-77628595D01*
X205194502Y-77828068D01*
X205790168Y-77998696D01*
X206437526Y-78138051D01*
X207129031Y-78243704D01*
X207213776Y-78253903D01*
X207498580Y-78288892D01*
X207715570Y-78322510D01*
X207881208Y-78361503D01*
X208011956Y-78412620D01*
X208124276Y-78482608D01*
X208234630Y-78578216D01*
X208359479Y-78706191D01*
X208385834Y-78734332D01*
X208826598Y-79199159D01*
X209226767Y-79604390D01*
X209596479Y-79958213D01*
X209945870Y-80268815D01*
X210285080Y-80544383D01*
X210624245Y-80793104D01*
X210973504Y-81023166D01*
X211342995Y-81242757D01*
X211742856Y-81460063D01*
X211793869Y-81486638D01*
X212177208Y-81677678D01*
X212551711Y-81846695D01*
X212936645Y-82001041D01*
X213351274Y-82148066D01*
X213814862Y-82295122D01*
X214233530Y-82417615D01*
X214886418Y-82596160D01*
X215478962Y-82742284D01*
X216027807Y-82858792D01*
X216549600Y-82948491D01*
X217060987Y-83014185D01*
X217578613Y-83058681D01*
X218119124Y-83084785D01*
X218207205Y-83087398D01*
X218653904Y-83094697D01*
X219044964Y-83090964D01*
X219369687Y-83076410D01*
X219540705Y-83061179D01*
X220300780Y-82946301D01*
X220996209Y-82780877D01*
X221631749Y-82562859D01*
X222212158Y-82290196D01*
X222742192Y-81960838D01*
X223226607Y-81572736D01*
X223419742Y-81389593D01*
X223842919Y-80912349D01*
X224189657Y-80399337D01*
X224459485Y-79851416D01*
X224651933Y-79269446D01*
X224703822Y-79043752D01*
X224751180Y-78809482D01*
X224779604Y-78645763D01*
X224785978Y-78539971D01*
X224767188Y-78479483D01*
X224720119Y-78451672D01*
X224641656Y-78443916D01*
X224555760Y-78443667D01*
X224281192Y-78405470D01*
X224040578Y-78298767D01*
X223841144Y-78135390D01*
X223690120Y-77927171D01*
X223594732Y-77685941D01*
X223562208Y-77423534D01*
X223599777Y-77151780D01*
X223662531Y-76981437D01*
X223775606Y-76793983D01*
X223918281Y-76637656D01*
X224068981Y-76534698D01*
X224112438Y-76517573D01*
X224180859Y-76483309D01*
X224197334Y-76460007D01*
X224167297Y-76426289D01*
X224080798Y-76339952D01*
X223943252Y-76206167D01*
X223760075Y-76030104D01*
X223536684Y-75816932D01*
X223278493Y-75571822D01*
X222990920Y-75299943D01*
X222679380Y-75006465D01*
X222387584Y-74732459D01*
X222035026Y-74401801D01*
X221631896Y-74023573D01*
X221189303Y-73608205D01*
X220718353Y-73166126D01*
X220230156Y-72707766D01*
X219735819Y-72243554D01*
X219246452Y-71783920D01*
X218773162Y-71339294D01*
X218327057Y-70920105D01*
X218230048Y-70828933D01*
X217854888Y-70476681D01*
X217497500Y-70141792D01*
X217162687Y-69828725D01*
X216855252Y-69541939D01*
X216579998Y-69285892D01*
X216341725Y-69065044D01*
X216145239Y-68883854D01*
X215995339Y-68746780D01*
X215896830Y-68658281D01*
X215854514Y-68622816D01*
X215853395Y-68622334D01*
X215815172Y-68659770D01*
X215771090Y-68754937D01*
X215729620Y-68882119D01*
X215699229Y-69015599D01*
X215688334Y-69123507D01*
X215650281Y-69417395D01*
X215542334Y-69686438D01*
X215373806Y-69915808D01*
X215154013Y-70090680D01*
X215046442Y-70145262D01*
X214791829Y-70215885D01*
X214510717Y-70229970D01*
X214233697Y-70189173D01*
X213991356Y-70095153D01*
X213977688Y-70087330D01*
X213750890Y-69913576D01*
X213590183Y-69694964D01*
X213494158Y-69427808D01*
X213461406Y-69108422D01*
X213482493Y-68791345D01*
X213526816Y-68534991D01*
X213593053Y-68261653D01*
X213672573Y-68001716D01*
X213756743Y-67785565D01*
X213784576Y-67728043D01*
X213832466Y-67645230D01*
X213911965Y-67517028D01*
X214007542Y-67368378D01*
X214027441Y-67338052D01*
X214120292Y-67194816D01*
X214171441Y-67103933D01*
X214186356Y-67047449D01*
X214170508Y-67007410D01*
X214138293Y-66974161D01*
X214088765Y-66927886D01*
X213985395Y-66831257D01*
X213836181Y-66691751D01*
X213649119Y-66516844D01*
X213432205Y-66314014D01*
X213193438Y-66090737D01*
X213042500Y-65949587D01*
X212026500Y-64999456D01*
X211645500Y-65027215D01*
X211361884Y-65037039D01*
X211026464Y-65031636D01*
X210668988Y-65012858D01*
X210319203Y-64982557D01*
X210006854Y-64942583D01*
X209854883Y-64915760D01*
X209064574Y-64714438D01*
X208293716Y-64433041D01*
X207540455Y-64070661D01*
X206802932Y-63626387D01*
X206079293Y-63099311D01*
X205972834Y-63013867D01*
X205759942Y-62830740D01*
X205508026Y-62597575D01*
X205232018Y-62329582D01*
X204946848Y-62041969D01*
X204667447Y-61749949D01*
X204408744Y-61468730D01*
X204185672Y-61213523D01*
X204081368Y-61087000D01*
X203541880Y-60374508D01*
X203009423Y-59595552D01*
X202494989Y-58768242D01*
X202009571Y-57910688D01*
X201869319Y-57636834D01*
X215180334Y-57636834D01*
X215201500Y-57658000D01*
X215222667Y-57636834D01*
X215201500Y-57615667D01*
X215180334Y-57636834D01*
X201869319Y-57636834D01*
X201564164Y-57040999D01*
X201353567Y-56593387D01*
X201246772Y-56368784D01*
X201140932Y-56163308D01*
X201045437Y-55994088D01*
X200969678Y-55878248D01*
X200945443Y-55849048D01*
X200756338Y-55703771D01*
X200549099Y-55635072D01*
X200332051Y-55639103D01*
X200113518Y-55712015D01*
X199901826Y-55849961D01*
X199705300Y-56049091D01*
X199532264Y-56305558D01*
X199413193Y-56557334D01*
X199259566Y-57028371D01*
X199184485Y-57469465D01*
X199188015Y-57882449D01*
X199270224Y-58269156D01*
X199431179Y-58631419D01*
X199492941Y-58732698D01*
X199540832Y-58805105D01*
X199588205Y-58871011D01*
X199641865Y-58936514D01*
X199708620Y-59007714D01*
X199795274Y-59090710D01*
X199908634Y-59191601D01*
X200055505Y-59316487D01*
X200242693Y-59471467D01*
X200477003Y-59662640D01*
X200765243Y-59896106D01*
X201027605Y-60108036D01*
X201297849Y-60327710D01*
X201551747Y-60536903D01*
X201780458Y-60728116D01*
X201975140Y-60893851D01*
X202126951Y-61026607D01*
X202227049Y-61118884D01*
X202259868Y-61153210D01*
X202396654Y-61382311D01*
X202468302Y-61645124D01*
X202475726Y-61922389D01*
X202419838Y-62194851D01*
X202301552Y-62443251D01*
X202192088Y-62582216D01*
X202062700Y-62701005D01*
X201921179Y-62790782D01*
X201747653Y-62860188D01*
X201522246Y-62917861D01*
X201339158Y-62953034D01*
X200763665Y-63087595D01*
X200244800Y-63280017D01*
X199773377Y-63534901D01*
X199340211Y-63856847D01*
X199109464Y-64069589D01*
X198720374Y-64509284D01*
X198406434Y-64982453D01*
X198169899Y-65485118D01*
X198016431Y-65997667D01*
X197953751Y-66272326D01*
X197899452Y-66479560D01*
X197846960Y-66635282D01*
X197789706Y-66755403D01*
X197721117Y-66855835D01*
X197634623Y-66952489D01*
X197613113Y-66974252D01*
X197374887Y-67157011D01*
X197101383Y-67271713D01*
X196821956Y-67310000D01*
X196717875Y-67323762D01*
X196667927Y-67375906D01*
X196657999Y-67406744D01*
X196652220Y-67477466D01*
X196650273Y-67618254D01*
X196652009Y-67814601D01*
X196657280Y-68051998D01*
X196665938Y-68315940D01*
X196667776Y-68363404D01*
X196701834Y-69223321D01*
X196926515Y-69240775D01*
X197185378Y-69283691D01*
X197401688Y-69376610D01*
X197590390Y-69516621D01*
X197693124Y-69619588D01*
X197774844Y-69735958D01*
X197840294Y-69879382D01*
X197894218Y-70063506D01*
X197941360Y-70301981D01*
X197986464Y-70608454D01*
X197996363Y-70684625D01*
X198020850Y-70866610D01*
X198056788Y-71120151D01*
X198102377Y-71433185D01*
X198155818Y-71793645D01*
X198215314Y-72189466D01*
X198279064Y-72608580D01*
X198345271Y-73038924D01*
X198395749Y-73363667D01*
X198493907Y-73996309D01*
X198579201Y-74555578D01*
X198653020Y-75051560D01*
X198716753Y-75494340D01*
X198771791Y-75894004D01*
X198819522Y-76260636D01*
X198861336Y-76604323D01*
X198898622Y-76935150D01*
X198932281Y-77258334D01*
X198951281Y-77503076D01*
X198966056Y-77805523D01*
X198976610Y-78149999D01*
X198982949Y-78520828D01*
X198985079Y-78902335D01*
X198983006Y-79278844D01*
X198976733Y-79634680D01*
X198966268Y-79954167D01*
X198951615Y-80221630D01*
X198932779Y-80421394D01*
X198931181Y-80433334D01*
X198800277Y-81191472D01*
X198623820Y-81882014D01*
X198398377Y-82510808D01*
X198120517Y-83083700D01*
X197786811Y-83606541D01*
X197393825Y-84085177D01*
X196938129Y-84525456D01*
X196416291Y-84933228D01*
X196207053Y-85076182D01*
X195628728Y-85416533D01*
X195014304Y-85696506D01*
X194358300Y-85917507D01*
X193655234Y-86080941D01*
X192899626Y-86188215D01*
X192085994Y-86240734D01*
X191643000Y-86246882D01*
X190928076Y-86222386D01*
X190231960Y-86149473D01*
X189539142Y-86024891D01*
X188834113Y-85845391D01*
X188101363Y-85607721D01*
X187494334Y-85377355D01*
X187243292Y-85271897D01*
X186938002Y-85136123D01*
X186594790Y-84977944D01*
X186229978Y-84805276D01*
X185859893Y-84626032D01*
X185500858Y-84448126D01*
X185169198Y-84279472D01*
X184881238Y-84127983D01*
X184653302Y-84001573D01*
X184637694Y-83992515D01*
X184356565Y-83841167D01*
X193209334Y-83841167D01*
X193230500Y-83862334D01*
X193251667Y-83841167D01*
X193230500Y-83820000D01*
X193209334Y-83841167D01*
X184356565Y-83841167D01*
X183785083Y-83533506D01*
X182895235Y-83126398D01*
X181979464Y-82774421D01*
X181049081Y-82480801D01*
X180115399Y-82248766D01*
X179189731Y-82081545D01*
X178283389Y-81982366D01*
X177493360Y-81953948D01*
X176675609Y-81994718D01*
X175889439Y-82113090D01*
X175137289Y-82307174D01*
X174421596Y-82575078D01*
X173744798Y-82914914D01*
X173109331Y-83324790D01*
X172517634Y-83802816D01*
X171972143Y-84347101D01*
X171475297Y-84955756D01*
X171029533Y-85626890D01*
X170637288Y-86358612D01*
X170300999Y-87149032D01*
X170120263Y-87672187D01*
X169954560Y-88244615D01*
X169828783Y-88797358D01*
X169739702Y-89352812D01*
X169684089Y-89933371D01*
X169658714Y-90561431D01*
X169656332Y-90889667D01*
X169670636Y-91546396D01*
X169713514Y-92147276D01*
X169789045Y-92717501D01*
X169901305Y-93282267D01*
X170054372Y-93866768D01*
X170228396Y-94424500D01*
X170568652Y-95317233D01*
X170985244Y-96173590D01*
X171477698Y-96992809D01*
X172045537Y-97774129D01*
X172688288Y-98516787D01*
X172950516Y-98787142D01*
X173671103Y-99450847D01*
X174432193Y-100041996D01*
X175231280Y-100559115D01*
X176065860Y-101000730D01*
X176933425Y-101365367D01*
X177807201Y-101644964D01*
X178022106Y-101703624D01*
X178230160Y-101760522D01*
X178404445Y-101808290D01*
X178499637Y-101834475D01*
X178739285Y-101940508D01*
X178956783Y-102111091D01*
X179128849Y-102326117D01*
X179181180Y-102423146D01*
X179280840Y-102637167D01*
X179281253Y-106161417D01*
X179281667Y-109685667D01*
X181440667Y-109685667D01*
X183642000Y-109685667D01*
X184446876Y-109685667D01*
X184436021Y-106544906D01*
X184425167Y-103404146D01*
X184128834Y-103350056D01*
X183965751Y-103319472D01*
X183824668Y-103291581D01*
X183737250Y-103272677D01*
X183642000Y-103249387D01*
X183642000Y-109685667D01*
X181440667Y-109685667D01*
X181440667Y-105671541D01*
X181440600Y-104977750D01*
X181440613Y-104363456D01*
X181441030Y-103823490D01*
X181442174Y-103352681D01*
X181444366Y-102945862D01*
X181447931Y-102597861D01*
X181453190Y-102303510D01*
X181460466Y-102057639D01*
X181470082Y-101855080D01*
X181482362Y-101690662D01*
X181497627Y-101559216D01*
X181516200Y-101455572D01*
X181538405Y-101374562D01*
X181564563Y-101311016D01*
X181594998Y-101259764D01*
X181630033Y-101215637D01*
X181669990Y-101173466D01*
X181715192Y-101128080D01*
X181724970Y-101118080D01*
X181852506Y-101004315D01*
X181992656Y-100904232D01*
X182044142Y-100874819D01*
X182167329Y-100819678D01*
X182291798Y-100784100D01*
X182430901Y-100768485D01*
X182597992Y-100773235D01*
X182806425Y-100798750D01*
X183069553Y-100845431D01*
X183400730Y-100913679D01*
X183410790Y-100915835D01*
X184894285Y-101214570D01*
X186336391Y-101464154D01*
X187757144Y-101666851D01*
X189176576Y-101824926D01*
X190614725Y-101940643D01*
X192091623Y-102016264D01*
X193463334Y-102051807D01*
X193958433Y-102056745D01*
X194468455Y-102057296D01*
X194981564Y-102053745D01*
X195485927Y-102046381D01*
X195969710Y-102035490D01*
X196421079Y-102021358D01*
X196828200Y-102004273D01*
X197179239Y-101984521D01*
X197462363Y-101962389D01*
X197556819Y-101952608D01*
X197776805Y-101927542D01*
X197789653Y-99932854D01*
X197792989Y-99461286D01*
X197796586Y-99066901D01*
X197800727Y-98742215D01*
X197805696Y-98479746D01*
X197811780Y-98272009D01*
X197819261Y-98111522D01*
X197828426Y-97990800D01*
X197839559Y-97902361D01*
X197852944Y-97838721D01*
X197868865Y-97792395D01*
X197871288Y-97786921D01*
X198030898Y-97532415D01*
X198247064Y-97337130D01*
X198511001Y-97206446D01*
X198813921Y-97145745D01*
X198924334Y-97142006D01*
X199238359Y-97180143D01*
X199507838Y-97290241D01*
X199732418Y-97472090D01*
X199911741Y-97725480D01*
X199912293Y-97726500D01*
X200003834Y-97895834D01*
X200014998Y-103790750D01*
X200026162Y-109685667D01*
X202268269Y-109685667D01*
X204511858Y-109685667D01*
X205316667Y-109685667D01*
X205316667Y-102059479D01*
X204925084Y-102271813D01*
X204533500Y-102484147D01*
X204511858Y-109685667D01*
X202268269Y-109685667D01*
X202279051Y-105339926D01*
X202289834Y-100994185D01*
X202946000Y-100727341D01*
X203942240Y-100282452D01*
X204874057Y-99783671D01*
X205743817Y-99229139D01*
X206553891Y-98616992D01*
X207306646Y-97945371D01*
X208004452Y-97212413D01*
X208649678Y-96416259D01*
X208932955Y-96023289D01*
X209145036Y-95743013D01*
X209341045Y-95538234D01*
X209527565Y-95402868D01*
X209671008Y-95341464D01*
X209955802Y-95296501D01*
X210235085Y-95325734D01*
X210496775Y-95420510D01*
X210728790Y-95572173D01*
X210919048Y-95772069D01*
X211055468Y-96011544D01*
X211125969Y-96281944D01*
X211132935Y-96388677D01*
X211127915Y-96537854D01*
X211103976Y-96673337D01*
X211053911Y-96812446D01*
X210970516Y-96972502D01*
X210846584Y-97170823D01*
X210743686Y-97324334D01*
X210223739Y-98031364D01*
X209637452Y-98727038D01*
X209002782Y-99392076D01*
X208337683Y-100007196D01*
X207930840Y-100344801D01*
X207602847Y-100605167D01*
X207602757Y-108405084D01*
X207602667Y-116205000D01*
X197781334Y-116205000D01*
X197781334Y-113961334D01*
X200025000Y-113961334D01*
X202268667Y-113961334D01*
X204512334Y-113961334D01*
X205359000Y-113961334D01*
X205359000Y-111929334D01*
X204512334Y-111929334D01*
X204512334Y-113961334D01*
X202268667Y-113961334D01*
X202268667Y-111929334D01*
X200025000Y-111929334D01*
X200025000Y-113961334D01*
X197781334Y-113961334D01*
X197781334Y-111929334D01*
X197781334Y-104173521D01*
X197453250Y-104200262D01*
X196976138Y-104233060D01*
X196430645Y-104259995D01*
X195832868Y-104280868D01*
X195198904Y-104295484D01*
X194544849Y-104303646D01*
X193886799Y-104305156D01*
X193240851Y-104299818D01*
X192623102Y-104287434D01*
X192049648Y-104267807D01*
X192024000Y-104266701D01*
X191360468Y-104233167D01*
X190670313Y-104189730D01*
X189970219Y-104137866D01*
X189276873Y-104079052D01*
X188606960Y-104014763D01*
X187977165Y-103946475D01*
X187404174Y-103875666D01*
X187060417Y-103827556D01*
X186690000Y-103772726D01*
X186690000Y-116205000D01*
X177080334Y-116205000D01*
X177080334Y-113961334D01*
X179281667Y-113961334D01*
X181440667Y-113961334D01*
X183642000Y-113961334D01*
X184446334Y-113961334D01*
X184446334Y-111929334D01*
X183642000Y-111929334D01*
X183642000Y-113961334D01*
X181440667Y-113961334D01*
X181440667Y-111929334D01*
X179281667Y-111929334D01*
X179281667Y-113961334D01*
X177080334Y-113961334D01*
X177080334Y-111929334D01*
X177080334Y-103732129D01*
X176836917Y-103658053D01*
X175978610Y-103357898D01*
X175118924Y-102982178D01*
X174270349Y-102538848D01*
X173445374Y-102035868D01*
X172656487Y-101481195D01*
X171916177Y-100882786D01*
X171236933Y-100248599D01*
X170859722Y-99849584D01*
X170502277Y-99451918D01*
X170286354Y-99816876D01*
X169760895Y-100626602D01*
X169155834Y-101413837D01*
X168470753Y-102178974D01*
X167705237Y-102922405D01*
X166858870Y-103644523D01*
X165931234Y-104345722D01*
X164921914Y-105026395D01*
X164465000Y-105311462D01*
X164092392Y-105532740D01*
X163695634Y-105757635D01*
X163284046Y-105981656D01*
X162866945Y-106200313D01*
X162453652Y-106409116D01*
X162053485Y-106603574D01*
X161675763Y-106779198D01*
X161329805Y-106931497D01*
X161024930Y-107055982D01*
X160770458Y-107148160D01*
X160575706Y-107203544D01*
X160515299Y-107214570D01*
X160251185Y-107210339D01*
X159988101Y-107133757D01*
X159745154Y-106995186D01*
X159541453Y-106804992D01*
X159417925Y-106619388D01*
X159334943Y-106378715D01*
X159305809Y-106108285D01*
X159331789Y-105842272D01*
X159383027Y-105677969D01*
X159449860Y-105542144D01*
X159531044Y-105425011D01*
X159642435Y-105309198D01*
X159799890Y-105177329D01*
X159931565Y-105076927D01*
X160231139Y-104806963D01*
X160512092Y-104461063D01*
X160770169Y-104046730D01*
X161001115Y-103571467D01*
X161200675Y-103042778D01*
X161327113Y-102616000D01*
X161486335Y-101903344D01*
X161597632Y-101150120D01*
X161660829Y-100353072D01*
X161675750Y-99508942D01*
X161642219Y-98614473D01*
X161560060Y-97666406D01*
X161429097Y-96661485D01*
X161249155Y-95596452D01*
X161020058Y-94468049D01*
X160846070Y-93704834D01*
X160600896Y-92593507D01*
X160404878Y-91528719D01*
X160255552Y-90489897D01*
X160150454Y-89456467D01*
X160087120Y-88407859D01*
X160063087Y-87323499D01*
X160062718Y-87164334D01*
X160093160Y-85903259D01*
X160184909Y-84697255D01*
X160338730Y-83542206D01*
X160555388Y-82433994D01*
X160835647Y-81368504D01*
X161180271Y-80341620D01*
X161459288Y-79645728D01*
X161764906Y-78988859D01*
X162113756Y-78337960D01*
X162497175Y-77705609D01*
X162906498Y-77104382D01*
X163333063Y-76546856D01*
X163768205Y-76045607D01*
X164203260Y-75613211D01*
X164291687Y-75534184D01*
X164945605Y-75015995D01*
X165639889Y-74570050D01*
X166369431Y-74198286D01*
X167129121Y-73902644D01*
X167913849Y-73685062D01*
X168718505Y-73547481D01*
X169537981Y-73491838D01*
X169675837Y-73490667D01*
X170526088Y-73530518D01*
X171347383Y-73649551D01*
X172138588Y-73846982D01*
X172898570Y-74122029D01*
X173626199Y-74473908D01*
X174320340Y-74901838D01*
X174979863Y-75405036D01*
X175603634Y-75982718D01*
X176190521Y-76634103D01*
X176739392Y-77358406D01*
X177249115Y-78154847D01*
X177718556Y-79022641D01*
X177739155Y-79064247D01*
X177860929Y-79303744D01*
X177967487Y-79498726D01*
X178053258Y-79639710D01*
X178112673Y-79717216D01*
X178129626Y-79728943D01*
X178202123Y-79740578D01*
X178336110Y-79755122D01*
X178508578Y-79770224D01*
X178604334Y-79777413D01*
X178798314Y-79795032D01*
X179046699Y-79823261D01*
X179320427Y-79858518D01*
X179590433Y-79897220D01*
X179647493Y-79906004D01*
X180841957Y-80135268D01*
X182017119Y-80446264D01*
X183167980Y-80837275D01*
X184289542Y-81306583D01*
X185376807Y-81852471D01*
X185483500Y-81911231D01*
X186237579Y-82317526D01*
X186966227Y-82685392D01*
X187660586Y-83010730D01*
X188311800Y-83289441D01*
X188911011Y-83517423D01*
X189076357Y-83574324D01*
X189578881Y-83742686D01*
X189901857Y-83629561D01*
X190408426Y-83425557D01*
X190880615Y-83182934D01*
X191302207Y-82911095D01*
X191656989Y-82619443D01*
X191677702Y-82599686D01*
X191837160Y-82420244D01*
X195886713Y-82420244D01*
X195892503Y-82423000D01*
X195931136Y-82393198D01*
X195939834Y-82380667D01*
X195950621Y-82341090D01*
X195944830Y-82338334D01*
X195906198Y-82368135D01*
X195897500Y-82380667D01*
X195886713Y-82420244D01*
X191837160Y-82420244D01*
X192003996Y-82232500D01*
X196003334Y-82232500D01*
X196024500Y-82253667D01*
X196045667Y-82232500D01*
X196024500Y-82211334D01*
X196003334Y-82232500D01*
X192003996Y-82232500D01*
X192009352Y-82226473D01*
X192086537Y-82105500D01*
X196088000Y-82105500D01*
X196109167Y-82126667D01*
X196130334Y-82105500D01*
X196109167Y-82084334D01*
X196088000Y-82105500D01*
X192086537Y-82105500D01*
X192278090Y-81805281D01*
X192484899Y-81333355D01*
X192630761Y-80807943D01*
X192716658Y-80226290D01*
X192743615Y-79610957D01*
X192739395Y-79316120D01*
X192725999Y-79016802D01*
X192702247Y-78706629D01*
X192666960Y-78379224D01*
X192618958Y-78028213D01*
X192557061Y-77647221D01*
X192480091Y-77229871D01*
X192386866Y-76769789D01*
X192276209Y-76260600D01*
X192146938Y-75695927D01*
X191997874Y-75069397D01*
X191827839Y-74374634D01*
X191635652Y-73605261D01*
X191623336Y-73556372D01*
X191506730Y-73091353D01*
X191391970Y-72629290D01*
X191281566Y-72180580D01*
X191178030Y-71755618D01*
X191083871Y-71364800D01*
X191001601Y-71018524D01*
X190933730Y-70727185D01*
X190882769Y-70501180D01*
X190861161Y-70400334D01*
X190657421Y-69327951D01*
X190504178Y-68317566D01*
X190401315Y-67363309D01*
X190351408Y-66505667D01*
X192585864Y-66505667D01*
X192589166Y-66597227D01*
X192597609Y-66622362D01*
X192604210Y-66600917D01*
X192611213Y-66477558D01*
X192604210Y-66410417D01*
X192593741Y-66390356D01*
X192587098Y-66443543D01*
X192585864Y-66505667D01*
X190351408Y-66505667D01*
X190348710Y-66459306D01*
X190346294Y-65616667D01*
X192574334Y-65616667D01*
X192589823Y-65651512D01*
X192602556Y-65644889D01*
X192607622Y-65594649D01*
X192602556Y-65588445D01*
X192577389Y-65594256D01*
X192574334Y-65616667D01*
X190346294Y-65616667D01*
X190346245Y-65599688D01*
X190393800Y-64778583D01*
X190491257Y-63990118D01*
X190638495Y-63228422D01*
X190709434Y-62937159D01*
X190972318Y-62084971D01*
X191312679Y-61266722D01*
X191730340Y-60482614D01*
X192225126Y-59732848D01*
X192796858Y-59017627D01*
X193445361Y-58337153D01*
X194170457Y-57691625D01*
X194971969Y-57081247D01*
X195849720Y-56506221D01*
X196803534Y-55966747D01*
X196838620Y-55948340D01*
X197414189Y-55647167D01*
X197544845Y-55347540D01*
X197793260Y-54873084D01*
X198096897Y-54458877D01*
X198451962Y-54108269D01*
X198854663Y-53824609D01*
X199301208Y-53611246D01*
X199628051Y-53507999D01*
X199922365Y-53454359D01*
X200259408Y-53427633D01*
X200606035Y-53428166D01*
X200929102Y-53456301D01*
X201122962Y-53492478D01*
X201480791Y-53608799D01*
X201844076Y-53778198D01*
X202173716Y-53981757D01*
X202246900Y-54036243D01*
X202374495Y-54130053D01*
X202480706Y-54198629D01*
X202544657Y-54228627D01*
X202548465Y-54229000D01*
X202614690Y-54220717D01*
X202737171Y-54198996D01*
X202889464Y-54168529D01*
X202890316Y-54168350D01*
X203258618Y-54101749D01*
X203685193Y-54042842D01*
X204143782Y-53994603D01*
X204608121Y-53960007D01*
X204826125Y-53949087D01*
X205647077Y-53949060D01*
X206449557Y-54016204D01*
X207223858Y-54148720D01*
X207960272Y-54344810D01*
X208649093Y-54602675D01*
X208851835Y-54695061D01*
X209047369Y-54796983D01*
X209281413Y-54932211D01*
X209529138Y-55085148D01*
X209765716Y-55240195D01*
X209966320Y-55381753D01*
X210058000Y-55452837D01*
X210140136Y-55513188D01*
X210193570Y-55540296D01*
X210194807Y-55540392D01*
X210233653Y-55516196D01*
X210334555Y-55446200D01*
X210491401Y-55334819D01*
X210698076Y-55186467D01*
X210948468Y-55005559D01*
X211236464Y-54796509D01*
X211555952Y-54563732D01*
X211900819Y-54311642D01*
X212157935Y-54123167D01*
X214460667Y-54123167D01*
X214481834Y-54144334D01*
X214503000Y-54123167D01*
X214481834Y-54102000D01*
X214460667Y-54123167D01*
X212157935Y-54123167D01*
X212205640Y-54088198D01*
X212502904Y-53870020D01*
X212861438Y-53606876D01*
X213274257Y-53303892D01*
X213734374Y-52966196D01*
X214234803Y-52598916D01*
X214768556Y-52207179D01*
X215328649Y-51796113D01*
X215908094Y-51370844D01*
X216499906Y-50936501D01*
X217097097Y-50498211D01*
X217692682Y-50061101D01*
X218279675Y-49630299D01*
X218487594Y-49477704D01*
X219026368Y-49082509D01*
X219257706Y-48913009D01*
X221832779Y-48913009D01*
X221842761Y-48935098D01*
X221866502Y-48937334D01*
X221923907Y-48906588D01*
X221932200Y-48895485D01*
X221925387Y-48871429D01*
X221892366Y-48878848D01*
X221832779Y-48913009D01*
X219257706Y-48913009D01*
X219547908Y-48700380D01*
X220047965Y-48334408D01*
X220522292Y-47987684D01*
X220966641Y-47663299D01*
X221376766Y-47364342D01*
X221748419Y-47093906D01*
X222077352Y-46855079D01*
X222359319Y-46650954D01*
X222590071Y-46484621D01*
X222765362Y-46359170D01*
X222880943Y-46277692D01*
X222932568Y-46243277D01*
X222932594Y-46243264D01*
X223084427Y-46192536D01*
X223284140Y-46166806D01*
X223499515Y-46166182D01*
X223698331Y-46190771D01*
G36*
X223698331Y-46190771D02*
G01*
X223847512Y-46240215D01*
X224105302Y-46421063D01*
X224301825Y-46645463D01*
X224432694Y-46901386D01*
X224493524Y-47176799D01*
X224479927Y-47459670D01*
X224390982Y-47730834D01*
X224355059Y-47787755D01*
X224271654Y-47909144D01*
X224143466Y-48091277D01*
X223973195Y-48330428D01*
X223763539Y-48622872D01*
X223517199Y-48964886D01*
X223236872Y-49352742D01*
X222925259Y-49782718D01*
X222585058Y-50251088D01*
X222218968Y-50754126D01*
X221829690Y-51288108D01*
X221419921Y-51849310D01*
X220992362Y-52434006D01*
X220549711Y-53038471D01*
X220142349Y-53594000D01*
X215995575Y-59245500D01*
X216170038Y-59259603D01*
X216369032Y-59257595D01*
X216619025Y-59228107D01*
X216892690Y-59175806D01*
X217162700Y-59105357D01*
X217265185Y-59072589D01*
X217616088Y-58986310D01*
X217933993Y-58976272D01*
X218216527Y-59041605D01*
X218461316Y-59181434D01*
X218665986Y-59394887D01*
X218809934Y-59640589D01*
X218873809Y-59800644D01*
X218900165Y-59945724D01*
X218897674Y-60124065D01*
X218897449Y-60127423D01*
X218880060Y-60285187D01*
X218845606Y-60425790D01*
X218785940Y-60564244D01*
X218692913Y-60715563D01*
X218558378Y-60894759D01*
X218374186Y-61116845D01*
X218336536Y-61160892D01*
X217681909Y-61864153D01*
X216962064Y-62526202D01*
X216191051Y-63135576D01*
X215382921Y-63680812D01*
X214899751Y-63964804D01*
X214458926Y-64209947D01*
X216523547Y-66152696D01*
X216846964Y-66456916D01*
X217224610Y-66811957D01*
X217648942Y-67210738D01*
X218112417Y-67646175D01*
X218607493Y-68111188D01*
X219126628Y-68598693D01*
X219662279Y-69101608D01*
X220206905Y-69612851D01*
X220752963Y-70125340D01*
X221292910Y-70631992D01*
X221819205Y-71125725D01*
X222123000Y-71410668D01*
X222589032Y-71847984D01*
X223040238Y-72271847D01*
X223472481Y-72678348D01*
X223881622Y-73063575D01*
X224263524Y-73423618D01*
X224614050Y-73754564D01*
X224929061Y-74052504D01*
X225204421Y-74313526D01*
X225435992Y-74533719D01*
X225619635Y-74709172D01*
X225751214Y-74835974D01*
X225826591Y-74910215D01*
X225839056Y-74923196D01*
X226191005Y-75366903D01*
X226488356Y-75868748D01*
X226726572Y-76418592D01*
X226901120Y-77006294D01*
X226992693Y-77502932D01*
X227019867Y-77814921D01*
X227027330Y-78180621D01*
X227016278Y-78571698D01*
X226987904Y-78959820D01*
X226943402Y-79316652D01*
X226908091Y-79510424D01*
X226716653Y-80225006D01*
X226452472Y-80900405D01*
X226113582Y-81540169D01*
X225698019Y-82147847D01*
X225203819Y-82726986D01*
X225025501Y-82910095D01*
X224625992Y-83288747D01*
X224242019Y-83609638D01*
X223850043Y-83890120D01*
X223426526Y-84147541D01*
X223130457Y-84306959D01*
X222494228Y-84606945D01*
X221848407Y-84851719D01*
X221172659Y-85047748D01*
X220446652Y-85201500D01*
X220175667Y-85246717D01*
X219963206Y-85271484D01*
X219682263Y-85291662D01*
X219348904Y-85307149D01*
X218979194Y-85317843D01*
X218589200Y-85323643D01*
X218194987Y-85324447D01*
X217812620Y-85320154D01*
X217458165Y-85310660D01*
X217147689Y-85295865D01*
X216897256Y-85275667D01*
X216831334Y-85267903D01*
X215869494Y-85122037D01*
X214974800Y-84943677D01*
X214135164Y-84730177D01*
X213539917Y-84547263D01*
X213330241Y-84478945D01*
X213152238Y-84423055D01*
X213019755Y-84383770D01*
X212946638Y-84365272D01*
X212936667Y-84365162D01*
X212945125Y-84410357D01*
X212968532Y-84524238D01*
X213003938Y-84692735D01*
X213048394Y-84901780D01*
X213084324Y-85069382D01*
X213261192Y-86047513D01*
X213379070Y-87052814D01*
X213437290Y-88067219D01*
X213435182Y-89072663D01*
X213372076Y-90051081D01*
X213292889Y-90699167D01*
X213228529Y-91094902D01*
X213152433Y-91496193D01*
X213067840Y-91890315D01*
X212977985Y-92264540D01*
X212886106Y-92606142D01*
X212795440Y-92902395D01*
X212709223Y-93140573D01*
X212630693Y-93307949D01*
X212628286Y-93312091D01*
X212461954Y-93519903D01*
X212251670Y-93666834D01*
X212010777Y-93754339D01*
X211752618Y-93783875D01*
X211490532Y-93756899D01*
X211237863Y-93674865D01*
X211007953Y-93539231D01*
X210814143Y-93351453D01*
X210669774Y-93112987D01*
X210663191Y-93097613D01*
X210613398Y-92888669D01*
X210611860Y-92626250D01*
X210657823Y-92325924D01*
X210710163Y-92126465D01*
X210857747Y-91601432D01*
X210973906Y-91097281D01*
X211061258Y-90594634D01*
X211122426Y-90074117D01*
X211160029Y-89516354D01*
X211176688Y-88901968D01*
X211178060Y-88667167D01*
X211161543Y-87824376D01*
X211108092Y-87019866D01*
X211014688Y-86235037D01*
X210878312Y-85451292D01*
X210695945Y-84650031D01*
X210464569Y-83812657D01*
X210308170Y-83307606D01*
X210274996Y-83230667D01*
X210220122Y-83161501D01*
X210128570Y-83086953D01*
X209985362Y-82993874D01*
X209876024Y-82928163D01*
X209150484Y-82458370D01*
X208441433Y-81920623D01*
X207769781Y-81331521D01*
X207381145Y-80947599D01*
X206926790Y-80476881D01*
X206357880Y-80390093D01*
X205483871Y-80226808D01*
X204676895Y-80013922D01*
X203937364Y-79751616D01*
X203265695Y-79440073D01*
X202662301Y-79079472D01*
X202127597Y-78669996D01*
X201863285Y-78424361D01*
X201524923Y-78057336D01*
X201248286Y-77686524D01*
X201022940Y-77293157D01*
X200838452Y-76858469D01*
X200684388Y-76363693D01*
X200655106Y-76251121D01*
X200556527Y-75814956D01*
X200492820Y-75411957D01*
X200460609Y-75008868D01*
X200456515Y-74572435D01*
X200462859Y-74358500D01*
X200514129Y-73718702D01*
X200619229Y-73123403D01*
X200784103Y-72547283D01*
X201014691Y-71965019D01*
X201035091Y-71919754D01*
X201198040Y-71631883D01*
X201392714Y-71420831D01*
X201624186Y-71283055D01*
X201897531Y-71215010D01*
X202057000Y-71206010D01*
X202367020Y-71243171D01*
X202642642Y-71357105D01*
X202887991Y-71549642D01*
X202929816Y-71593397D01*
X203081874Y-71797032D01*
X203170405Y-72014028D01*
X203196105Y-72255025D01*
X203159670Y-72530660D01*
X203061795Y-72851571D01*
X203019252Y-72961500D01*
X202890120Y-73305484D01*
X202797688Y-73614408D01*
X202732661Y-73924294D01*
X202689052Y-74241180D01*
X202669547Y-74629749D01*
X202691072Y-75043037D01*
X202749795Y-75456618D01*
X202841885Y-75846064D01*
X202963512Y-76186950D01*
X203009563Y-76284790D01*
X203120419Y-76461517D01*
X203280743Y-76663544D01*
X203470166Y-76868306D01*
X203668318Y-77053237D01*
X203793120Y-77152833D01*
X204188433Y-77402707D01*
X204658075Y-77628595D01*
X205194502Y-77828068D01*
X205790168Y-77998696D01*
X206437526Y-78138051D01*
X207129031Y-78243704D01*
X207213776Y-78253903D01*
X207498580Y-78288892D01*
X207715570Y-78322510D01*
X207881208Y-78361503D01*
X208011956Y-78412620D01*
X208124276Y-78482608D01*
X208234630Y-78578216D01*
X208359479Y-78706191D01*
X208385834Y-78734332D01*
X208826598Y-79199159D01*
X209226767Y-79604390D01*
X209596479Y-79958213D01*
X209945870Y-80268815D01*
X210285080Y-80544383D01*
X210624245Y-80793104D01*
X210973504Y-81023166D01*
X211342995Y-81242757D01*
X211742856Y-81460063D01*
X211793869Y-81486638D01*
X212177208Y-81677678D01*
X212551711Y-81846695D01*
X212936645Y-82001041D01*
X213351274Y-82148066D01*
X213814862Y-82295122D01*
X214233530Y-82417615D01*
X214886418Y-82596160D01*
X215478962Y-82742284D01*
X216027807Y-82858792D01*
X216549600Y-82948491D01*
X217060987Y-83014185D01*
X217578613Y-83058681D01*
X218119124Y-83084785D01*
X218207205Y-83087398D01*
X218653904Y-83094697D01*
X219044964Y-83090964D01*
X219369687Y-83076410D01*
X219540705Y-83061179D01*
X220300780Y-82946301D01*
X220996209Y-82780877D01*
X221631749Y-82562859D01*
X222212158Y-82290196D01*
X222742192Y-81960838D01*
X223226607Y-81572736D01*
X223419742Y-81389593D01*
X223842919Y-80912349D01*
X224189657Y-80399337D01*
X224459485Y-79851416D01*
X224651933Y-79269446D01*
X224703822Y-79043752D01*
X224751180Y-78809482D01*
X224779604Y-78645763D01*
X224785978Y-78539971D01*
X224767188Y-78479483D01*
X224720119Y-78451672D01*
X224641656Y-78443916D01*
X224555760Y-78443667D01*
X224281192Y-78405470D01*
X224040578Y-78298767D01*
X223841144Y-78135390D01*
X223690120Y-77927171D01*
X223594732Y-77685941D01*
X223562208Y-77423534D01*
X223599777Y-77151780D01*
X223662531Y-76981437D01*
X223775606Y-76793983D01*
X223918281Y-76637656D01*
X224068981Y-76534698D01*
X224112438Y-76517573D01*
X224180859Y-76483309D01*
X224197334Y-76460007D01*
X224167297Y-76426289D01*
X224080798Y-76339952D01*
X223943252Y-76206167D01*
X223760075Y-76030104D01*
X223536684Y-75816932D01*
X223278493Y-75571822D01*
X222990920Y-75299943D01*
X222679380Y-75006465D01*
X222387584Y-74732459D01*
X222035026Y-74401801D01*
X221631896Y-74023573D01*
X221189303Y-73608205D01*
X220718353Y-73166126D01*
X220230156Y-72707766D01*
X219735819Y-72243554D01*
X219246452Y-71783920D01*
X218773162Y-71339294D01*
X218327057Y-70920105D01*
X218230048Y-70828933D01*
X217854888Y-70476681D01*
X217497500Y-70141792D01*
X217162687Y-69828725D01*
X216855252Y-69541939D01*
X216579998Y-69285892D01*
X216341725Y-69065044D01*
X216145239Y-68883854D01*
X215995339Y-68746780D01*
X215896830Y-68658281D01*
X215854514Y-68622816D01*
X215853395Y-68622334D01*
X215815172Y-68659770D01*
X215771090Y-68754937D01*
X215729620Y-68882119D01*
X215699229Y-69015599D01*
X215688334Y-69123507D01*
X215650281Y-69417395D01*
X215542334Y-69686438D01*
X215373806Y-69915808D01*
X215154013Y-70090680D01*
X215046442Y-70145262D01*
X214791829Y-70215885D01*
X214510717Y-70229970D01*
X214233697Y-70189173D01*
X213991356Y-70095153D01*
X213977688Y-70087330D01*
X213750890Y-69913576D01*
X213590183Y-69694964D01*
X213494158Y-69427808D01*
X213461406Y-69108422D01*
X213482493Y-68791345D01*
X213526816Y-68534991D01*
X213593053Y-68261653D01*
X213672573Y-68001716D01*
X213756743Y-67785565D01*
X213784576Y-67728043D01*
X213832466Y-67645230D01*
X213911965Y-67517028D01*
X214007542Y-67368378D01*
X214027441Y-67338052D01*
X214120292Y-67194816D01*
X214171441Y-67103933D01*
X214186356Y-67047449D01*
X214170508Y-67007410D01*
X214138293Y-66974161D01*
X214088765Y-66927886D01*
X213985395Y-66831257D01*
X213836181Y-66691751D01*
X213649119Y-66516844D01*
X213432205Y-66314014D01*
X213193438Y-66090737D01*
X213042500Y-65949587D01*
X212026500Y-64999456D01*
X211645500Y-65027215D01*
X211361884Y-65037039D01*
X211026464Y-65031636D01*
X210668988Y-65012858D01*
X210319203Y-64982557D01*
X210006854Y-64942583D01*
X209854883Y-64915760D01*
X209064574Y-64714438D01*
X208293716Y-64433041D01*
X207540455Y-64070661D01*
X206802932Y-63626387D01*
X206079293Y-63099311D01*
X205972834Y-63013867D01*
X205759942Y-62830740D01*
X205508026Y-62597575D01*
X205232018Y-62329582D01*
X204946848Y-62041969D01*
X204667447Y-61749949D01*
X204408744Y-61468730D01*
X204185672Y-61213523D01*
X204081368Y-61087000D01*
X203541880Y-60374508D01*
X203009423Y-59595552D01*
X202494989Y-58768242D01*
X202009571Y-57910688D01*
X201869319Y-57636834D01*
X215180334Y-57636834D01*
X215201500Y-57658000D01*
X215222667Y-57636834D01*
X215201500Y-57615667D01*
X215180334Y-57636834D01*
X201869319Y-57636834D01*
X201564164Y-57040999D01*
X201353567Y-56593387D01*
X201246772Y-56368784D01*
X201140932Y-56163308D01*
X201045437Y-55994088D01*
X200969678Y-55878248D01*
X200945443Y-55849048D01*
X200756338Y-55703771D01*
X200549099Y-55635072D01*
X200332051Y-55639103D01*
X200113518Y-55712015D01*
X199901826Y-55849961D01*
X199705300Y-56049091D01*
X199532264Y-56305558D01*
X199413193Y-56557334D01*
X199259566Y-57028371D01*
X199184485Y-57469465D01*
X199188015Y-57882449D01*
X199270224Y-58269156D01*
X199431179Y-58631419D01*
X199492941Y-58732698D01*
X199540832Y-58805105D01*
X199588205Y-58871011D01*
X199641865Y-58936514D01*
X199708620Y-59007714D01*
X199795274Y-59090710D01*
X199908634Y-59191601D01*
X200055505Y-59316487D01*
X200242693Y-59471467D01*
X200477003Y-59662640D01*
X200765243Y-59896106D01*
X201027605Y-60108036D01*
X201297849Y-60327710D01*
X201551747Y-60536903D01*
X201780458Y-60728116D01*
X201975140Y-60893851D01*
X202126951Y-61026607D01*
X202227049Y-61118884D01*
X202259868Y-61153210D01*
X202396654Y-61382311D01*
X202468302Y-61645124D01*
X202475726Y-61922389D01*
X202419838Y-62194851D01*
X202301552Y-62443251D01*
X202192088Y-62582216D01*
X202062700Y-62701005D01*
X201921179Y-62790782D01*
X201747653Y-62860188D01*
X201522246Y-62917861D01*
X201339158Y-62953034D01*
X200763665Y-63087595D01*
X200244800Y-63280017D01*
X199773377Y-63534901D01*
X199340211Y-63856847D01*
X199109464Y-64069589D01*
X198720374Y-64509284D01*
X198406434Y-64982453D01*
X198169899Y-65485118D01*
X198016431Y-65997667D01*
X197953751Y-66272326D01*
X197899452Y-66479560D01*
X197846960Y-66635282D01*
X197789706Y-66755403D01*
X197721117Y-66855835D01*
X197634623Y-66952489D01*
X197613113Y-66974252D01*
X197374887Y-67157011D01*
X197101383Y-67271713D01*
X196821956Y-67310000D01*
X196717875Y-67323762D01*
X196667927Y-67375906D01*
X196657999Y-67406744D01*
X196652220Y-67477466D01*
X196650273Y-67618254D01*
X196652009Y-67814601D01*
X196657280Y-68051998D01*
X196665938Y-68315940D01*
X196667776Y-68363404D01*
X196701834Y-69223321D01*
X196926515Y-69240775D01*
X197185378Y-69283691D01*
X197401688Y-69376610D01*
X197590390Y-69516621D01*
X197693124Y-69619588D01*
X197774844Y-69735958D01*
X197840294Y-69879382D01*
X197894218Y-70063506D01*
X197941360Y-70301981D01*
X197986464Y-70608454D01*
X197996363Y-70684625D01*
X198020850Y-70866610D01*
X198056788Y-71120151D01*
X198102377Y-71433185D01*
X198155818Y-71793645D01*
X198215314Y-72189466D01*
X198279064Y-72608580D01*
X198345271Y-73038924D01*
X198395749Y-73363667D01*
X198493907Y-73996309D01*
X198579201Y-74555578D01*
X198653020Y-75051560D01*
X198716753Y-75494340D01*
X198771791Y-75894004D01*
X198819522Y-76260636D01*
X198861336Y-76604323D01*
X198898622Y-76935150D01*
X198932281Y-77258334D01*
X198951281Y-77503076D01*
X198966056Y-77805523D01*
X198976610Y-78149999D01*
X198982949Y-78520828D01*
X198985079Y-78902335D01*
X198983006Y-79278844D01*
X198976733Y-79634680D01*
X198966268Y-79954167D01*
X198951615Y-80221630D01*
X198932779Y-80421394D01*
X198931181Y-80433334D01*
X198800277Y-81191472D01*
X198623820Y-81882014D01*
X198398377Y-82510808D01*
X198120517Y-83083700D01*
X197786811Y-83606541D01*
X197393825Y-84085177D01*
X196938129Y-84525456D01*
X196416291Y-84933228D01*
X196207053Y-85076182D01*
X195628728Y-85416533D01*
X195014304Y-85696506D01*
X194358300Y-85917507D01*
X193655234Y-86080941D01*
X192899626Y-86188215D01*
X192085994Y-86240734D01*
X191643000Y-86246882D01*
X190928076Y-86222386D01*
X190231960Y-86149473D01*
X189539142Y-86024891D01*
X188834113Y-85845391D01*
X188101363Y-85607721D01*
X187494334Y-85377355D01*
X187243292Y-85271897D01*
X186938002Y-85136123D01*
X186594790Y-84977944D01*
X186229978Y-84805276D01*
X185859893Y-84626032D01*
X185500858Y-84448126D01*
X185169198Y-84279472D01*
X184881238Y-84127983D01*
X184653302Y-84001573D01*
X184637694Y-83992515D01*
X184356565Y-83841167D01*
X193209334Y-83841167D01*
X193230500Y-83862334D01*
X193251667Y-83841167D01*
X193230500Y-83820000D01*
X193209334Y-83841167D01*
X184356565Y-83841167D01*
X183785083Y-83533506D01*
X182895235Y-83126398D01*
X181979464Y-82774421D01*
X181049081Y-82480801D01*
X180115399Y-82248766D01*
X179189731Y-82081545D01*
X178283389Y-81982366D01*
X177493360Y-81953948D01*
X176675609Y-81994718D01*
X175889439Y-82113090D01*
X175137289Y-82307174D01*
X174421596Y-82575078D01*
X173744798Y-82914914D01*
X173109331Y-83324790D01*
X172517634Y-83802816D01*
X171972143Y-84347101D01*
X171475297Y-84955756D01*
X171029533Y-85626890D01*
X170637288Y-86358612D01*
X170300999Y-87149032D01*
X170120263Y-87672187D01*
X169954560Y-88244615D01*
X169828783Y-88797358D01*
X169739702Y-89352812D01*
X169684089Y-89933371D01*
X169658714Y-90561431D01*
X169656332Y-90889667D01*
X169670636Y-91546396D01*
X169713514Y-92147276D01*
X169789045Y-92717501D01*
X169901305Y-93282267D01*
X170054372Y-93866768D01*
X170228396Y-94424500D01*
X170568652Y-95317233D01*
X170985244Y-96173590D01*
X171477698Y-96992809D01*
X172045537Y-97774129D01*
X172688288Y-98516787D01*
X172950516Y-98787142D01*
X173671103Y-99450847D01*
X174432193Y-100041996D01*
X175231280Y-100559115D01*
X176065860Y-101000730D01*
X176933425Y-101365367D01*
X177807201Y-101644964D01*
X178022106Y-101703624D01*
X178230160Y-101760522D01*
X178404445Y-101808290D01*
X178499637Y-101834475D01*
X178739285Y-101940508D01*
X178956783Y-102111091D01*
X179128849Y-102326117D01*
X179181180Y-102423146D01*
X179280840Y-102637167D01*
X179281253Y-106161417D01*
X179281667Y-109685667D01*
X181440667Y-109685667D01*
X183642000Y-109685667D01*
X184446876Y-109685667D01*
X184436021Y-106544906D01*
X184425167Y-103404146D01*
X184128834Y-103350056D01*
X183965751Y-103319472D01*
X183824668Y-103291581D01*
X183737250Y-103272677D01*
X183642000Y-103249387D01*
X183642000Y-109685667D01*
X181440667Y-109685667D01*
X181440667Y-105671541D01*
X181440600Y-104977750D01*
X181440613Y-104363456D01*
X181441030Y-103823490D01*
X181442174Y-103352681D01*
X181444366Y-102945862D01*
X181447931Y-102597861D01*
X181453190Y-102303510D01*
X181460466Y-102057639D01*
X181470082Y-101855080D01*
X181482362Y-101690662D01*
X181497627Y-101559216D01*
X181516200Y-101455572D01*
X181538405Y-101374562D01*
X181564563Y-101311016D01*
X181594998Y-101259764D01*
X181630033Y-101215637D01*
X181669990Y-101173466D01*
X181715192Y-101128080D01*
X181724970Y-101118080D01*
X181852506Y-101004315D01*
X181992656Y-100904232D01*
X182044142Y-100874819D01*
X182167329Y-100819678D01*
X182291798Y-100784100D01*
X182430901Y-100768485D01*
X182597992Y-100773235D01*
X182806425Y-100798750D01*
X183069553Y-100845431D01*
X183400730Y-100913679D01*
X183410790Y-100915835D01*
X184894285Y-101214570D01*
X186336391Y-101464154D01*
X187757144Y-101666851D01*
X189176576Y-101824926D01*
X190614725Y-101940643D01*
X192091623Y-102016264D01*
X193463334Y-102051807D01*
X193958433Y-102056745D01*
X194468455Y-102057296D01*
X194981564Y-102053745D01*
X195485927Y-102046381D01*
X195969710Y-102035490D01*
X196421079Y-102021358D01*
X196828200Y-102004273D01*
X197179239Y-101984521D01*
X197462363Y-101962389D01*
X197556819Y-101952608D01*
X197776805Y-101927542D01*
X197789653Y-99932854D01*
X197792989Y-99461286D01*
X197796586Y-99066901D01*
X197800727Y-98742215D01*
X197805696Y-98479746D01*
X197811780Y-98272009D01*
X197819261Y-98111522D01*
X197828426Y-97990800D01*
X197839559Y-97902361D01*
X197852944Y-97838721D01*
X197868865Y-97792395D01*
X197871288Y-97786921D01*
X198030898Y-97532415D01*
X198247064Y-97337130D01*
X198511001Y-97206446D01*
X198813921Y-97145745D01*
X198924334Y-97142006D01*
X199238359Y-97180143D01*
X199507838Y-97290241D01*
X199732418Y-97472090D01*
X199911741Y-97725480D01*
X199912293Y-97726500D01*
X200003834Y-97895834D01*
X200014998Y-103790750D01*
X200026162Y-109685667D01*
X202268269Y-109685667D01*
X204511858Y-109685667D01*
X205316667Y-109685667D01*
X205316667Y-102059479D01*
X204925084Y-102271813D01*
X204533500Y-102484147D01*
X204511858Y-109685667D01*
X202268269Y-109685667D01*
X202279051Y-105339926D01*
X202289834Y-100994185D01*
X202946000Y-100727341D01*
X203942240Y-100282452D01*
X204874057Y-99783671D01*
X205743817Y-99229139D01*
X206553891Y-98616992D01*
X207306646Y-97945371D01*
X208004452Y-97212413D01*
X208649678Y-96416259D01*
X208932955Y-96023289D01*
X209145036Y-95743013D01*
X209341045Y-95538234D01*
X209527565Y-95402868D01*
X209671008Y-95341464D01*
X209955802Y-95296501D01*
X210235085Y-95325734D01*
X210496775Y-95420510D01*
X210728790Y-95572173D01*
X210919048Y-95772069D01*
X211055468Y-96011544D01*
X211125969Y-96281944D01*
X211132935Y-96388677D01*
X211127915Y-96537854D01*
X211103976Y-96673337D01*
X211053911Y-96812446D01*
X210970516Y-96972502D01*
X210846584Y-97170823D01*
X210743686Y-97324334D01*
X210223739Y-98031364D01*
X209637452Y-98727038D01*
X209002782Y-99392076D01*
X208337683Y-100007196D01*
X207930840Y-100344801D01*
X207602847Y-100605167D01*
X207602757Y-108405084D01*
X207602667Y-116205000D01*
X197781334Y-116205000D01*
X197781334Y-113961334D01*
X200025000Y-113961334D01*
X202268667Y-113961334D01*
X204512334Y-113961334D01*
X205359000Y-113961334D01*
X205359000Y-111929334D01*
X204512334Y-111929334D01*
X204512334Y-113961334D01*
X202268667Y-113961334D01*
X202268667Y-111929334D01*
X200025000Y-111929334D01*
X200025000Y-113961334D01*
X197781334Y-113961334D01*
X197781334Y-111929334D01*
X197781334Y-104173521D01*
X197453250Y-104200262D01*
X196976138Y-104233060D01*
X196430645Y-104259995D01*
X195832868Y-104280868D01*
X195198904Y-104295484D01*
X194544849Y-104303646D01*
X193886799Y-104305156D01*
X193240851Y-104299818D01*
X192623102Y-104287434D01*
X192049648Y-104267807D01*
X192024000Y-104266701D01*
X191360468Y-104233167D01*
X190670313Y-104189730D01*
X189970219Y-104137866D01*
X189276873Y-104079052D01*
X188606960Y-104014763D01*
X187977165Y-103946475D01*
X187404174Y-103875666D01*
X187060417Y-103827556D01*
X186690000Y-103772726D01*
X186690000Y-116205000D01*
X177080334Y-116205000D01*
X177080334Y-113961334D01*
X179281667Y-113961334D01*
X181440667Y-113961334D01*
X183642000Y-113961334D01*
X184446334Y-113961334D01*
X184446334Y-111929334D01*
X183642000Y-111929334D01*
X183642000Y-113961334D01*
X181440667Y-113961334D01*
X181440667Y-111929334D01*
X179281667Y-111929334D01*
X179281667Y-113961334D01*
X177080334Y-113961334D01*
X177080334Y-111929334D01*
X177080334Y-103732129D01*
X176836917Y-103658053D01*
X175978610Y-103357898D01*
X175118924Y-102982178D01*
X174270349Y-102538848D01*
X173445374Y-102035868D01*
X172656487Y-101481195D01*
X171916177Y-100882786D01*
X171236933Y-100248599D01*
X170859722Y-99849584D01*
X170502277Y-99451918D01*
X170286354Y-99816876D01*
X169760895Y-100626602D01*
X169155834Y-101413837D01*
X168470753Y-102178974D01*
X167705237Y-102922405D01*
X166858870Y-103644523D01*
X165931234Y-104345722D01*
X164921914Y-105026395D01*
X164465000Y-105311462D01*
X164092392Y-105532740D01*
X163695634Y-105757635D01*
X163284046Y-105981656D01*
X162866945Y-106200313D01*
X162453652Y-106409116D01*
X162053485Y-106603574D01*
X161675763Y-106779198D01*
X161329805Y-106931497D01*
X161024930Y-107055982D01*
X160770458Y-107148160D01*
X160575706Y-107203544D01*
X160515299Y-107214570D01*
X160251185Y-107210339D01*
X159988101Y-107133757D01*
X159745154Y-106995186D01*
X159541453Y-106804992D01*
X159417925Y-106619388D01*
X159334943Y-106378715D01*
X159305809Y-106108285D01*
X159331789Y-105842272D01*
X159383027Y-105677969D01*
X159449860Y-105542144D01*
X159531044Y-105425011D01*
X159642435Y-105309198D01*
X159799890Y-105177329D01*
X159931565Y-105076927D01*
X160231139Y-104806963D01*
X160512092Y-104461063D01*
X160770169Y-104046730D01*
X161001115Y-103571467D01*
X161200675Y-103042778D01*
X161327113Y-102616000D01*
X161486335Y-101903344D01*
X161597632Y-101150120D01*
X161660829Y-100353072D01*
X161675750Y-99508942D01*
X161642219Y-98614473D01*
X161560060Y-97666406D01*
X161429097Y-96661485D01*
X161249155Y-95596452D01*
X161020058Y-94468049D01*
X160846070Y-93704834D01*
X160600896Y-92593507D01*
X160404878Y-91528719D01*
X160255552Y-90489897D01*
X160150454Y-89456467D01*
X160087120Y-88407859D01*
X160063087Y-87323499D01*
X160062718Y-87164334D01*
X160093160Y-85903259D01*
X160184909Y-84697255D01*
X160338730Y-83542206D01*
X160555388Y-82433994D01*
X160835647Y-81368504D01*
X161180271Y-80341620D01*
X161459288Y-79645728D01*
X161764906Y-78988859D01*
X162113756Y-78337960D01*
X162497175Y-77705609D01*
X162906498Y-77104382D01*
X163333063Y-76546856D01*
X163768205Y-76045607D01*
X164203260Y-75613211D01*
X164291687Y-75534184D01*
X164945605Y-75015995D01*
X165639889Y-74570050D01*
X166369431Y-74198286D01*
X167129121Y-73902644D01*
X167913849Y-73685062D01*
X168718505Y-73547481D01*
X169537981Y-73491838D01*
X169675837Y-73490667D01*
X170526088Y-73530518D01*
X171347383Y-73649551D01*
X172138588Y-73846982D01*
X172898570Y-74122029D01*
X173626199Y-74473908D01*
X174320340Y-74901838D01*
X174979863Y-75405036D01*
X175603634Y-75982718D01*
X176190521Y-76634103D01*
X176739392Y-77358406D01*
X177249115Y-78154847D01*
X177718556Y-79022641D01*
X177739155Y-79064247D01*
X177860929Y-79303744D01*
X177967487Y-79498726D01*
X178053258Y-79639710D01*
X178112673Y-79717216D01*
X178129626Y-79728943D01*
X178202123Y-79740578D01*
X178336110Y-79755122D01*
X178508578Y-79770224D01*
X178604334Y-79777413D01*
X178798314Y-79795032D01*
X179046699Y-79823261D01*
X179320427Y-79858518D01*
X179590433Y-79897220D01*
X179647493Y-79906004D01*
X180841957Y-80135268D01*
X182017119Y-80446264D01*
X183167980Y-80837275D01*
X184289542Y-81306583D01*
X185376807Y-81852471D01*
X185483500Y-81911231D01*
X186237579Y-82317526D01*
X186966227Y-82685392D01*
X187660586Y-83010730D01*
X188311800Y-83289441D01*
X188911011Y-83517423D01*
X189076357Y-83574324D01*
X189578881Y-83742686D01*
X189901857Y-83629561D01*
X190408426Y-83425557D01*
X190880615Y-83182934D01*
X191302207Y-82911095D01*
X191656989Y-82619443D01*
X191677702Y-82599686D01*
X191837160Y-82420244D01*
X195886713Y-82420244D01*
X195892503Y-82423000D01*
X195931136Y-82393198D01*
X195939834Y-82380667D01*
X195950621Y-82341090D01*
X195944830Y-82338334D01*
X195906198Y-82368135D01*
X195897500Y-82380667D01*
X195886713Y-82420244D01*
X191837160Y-82420244D01*
X192003996Y-82232500D01*
X196003334Y-82232500D01*
X196024500Y-82253667D01*
X196045667Y-82232500D01*
X196024500Y-82211334D01*
X196003334Y-82232500D01*
X192003996Y-82232500D01*
X192009352Y-82226473D01*
X192086537Y-82105500D01*
X196088000Y-82105500D01*
X196109167Y-82126667D01*
X196130334Y-82105500D01*
X196109167Y-82084334D01*
X196088000Y-82105500D01*
X192086537Y-82105500D01*
X192278090Y-81805281D01*
X192484899Y-81333355D01*
X192630761Y-80807943D01*
X192716658Y-80226290D01*
X192743615Y-79610957D01*
X192739395Y-79316120D01*
X192725999Y-79016802D01*
X192702247Y-78706629D01*
X192666960Y-78379224D01*
X192618958Y-78028213D01*
X192557061Y-77647221D01*
X192480091Y-77229871D01*
X192386866Y-76769789D01*
X192276209Y-76260600D01*
X192146938Y-75695927D01*
X191997874Y-75069397D01*
X191827839Y-74374634D01*
X191635652Y-73605261D01*
X191623336Y-73556372D01*
X191506730Y-73091353D01*
X191391970Y-72629290D01*
X191281566Y-72180580D01*
X191178030Y-71755618D01*
X191083871Y-71364800D01*
X191001601Y-71018524D01*
X190933730Y-70727185D01*
X190882769Y-70501180D01*
X190861161Y-70400334D01*
X190657421Y-69327951D01*
X190504178Y-68317566D01*
X190401315Y-67363309D01*
X190351408Y-66505667D01*
X192585864Y-66505667D01*
X192589166Y-66597227D01*
X192597609Y-66622362D01*
X192604210Y-66600917D01*
X192611213Y-66477558D01*
X192604210Y-66410417D01*
X192593741Y-66390356D01*
X192587098Y-66443543D01*
X192585864Y-66505667D01*
X190351408Y-66505667D01*
X190348710Y-66459306D01*
X190346294Y-65616667D01*
X192574334Y-65616667D01*
X192589823Y-65651512D01*
X192602556Y-65644889D01*
X192607622Y-65594649D01*
X192602556Y-65588445D01*
X192577389Y-65594256D01*
X192574334Y-65616667D01*
X190346294Y-65616667D01*
X190346245Y-65599688D01*
X190393800Y-64778583D01*
X190491257Y-63990118D01*
X190638495Y-63228422D01*
X190709434Y-62937159D01*
X190972318Y-62084971D01*
X191312679Y-61266722D01*
X191730340Y-60482614D01*
X192225126Y-59732848D01*
X192796858Y-59017627D01*
X193445361Y-58337153D01*
X194170457Y-57691625D01*
X194971969Y-57081247D01*
X195849720Y-56506221D01*
X196803534Y-55966747D01*
X196838620Y-55948340D01*
X197414189Y-55647167D01*
X197544845Y-55347540D01*
X197793260Y-54873084D01*
X198096897Y-54458877D01*
X198451962Y-54108269D01*
X198854663Y-53824609D01*
X199301208Y-53611246D01*
X199628051Y-53507999D01*
X199922365Y-53454359D01*
X200259408Y-53427633D01*
X200606035Y-53428166D01*
X200929102Y-53456301D01*
X201122962Y-53492478D01*
X201480791Y-53608799D01*
X201844076Y-53778198D01*
X202173716Y-53981757D01*
X202246900Y-54036243D01*
X202374495Y-54130053D01*
X202480706Y-54198629D01*
X202544657Y-54228627D01*
X202548465Y-54229000D01*
X202614690Y-54220717D01*
X202737171Y-54198996D01*
X202889464Y-54168529D01*
X202890316Y-54168350D01*
X203258618Y-54101749D01*
X203685193Y-54042842D01*
X204143782Y-53994603D01*
X204608121Y-53960007D01*
X204826125Y-53949087D01*
X205647077Y-53949060D01*
X206449557Y-54016204D01*
X207223858Y-54148720D01*
X207960272Y-54344810D01*
X208649093Y-54602675D01*
X208851835Y-54695061D01*
X209047369Y-54796983D01*
X209281413Y-54932211D01*
X209529138Y-55085148D01*
X209765716Y-55240195D01*
X209966320Y-55381753D01*
X210058000Y-55452837D01*
X210140136Y-55513188D01*
X210193570Y-55540296D01*
X210194807Y-55540392D01*
X210233653Y-55516196D01*
X210334555Y-55446200D01*
X210491401Y-55334819D01*
X210698076Y-55186467D01*
X210948468Y-55005559D01*
X211236464Y-54796509D01*
X211555952Y-54563732D01*
X211900819Y-54311642D01*
X212157935Y-54123167D01*
X214460667Y-54123167D01*
X214481834Y-54144334D01*
X214503000Y-54123167D01*
X214481834Y-54102000D01*
X214460667Y-54123167D01*
X212157935Y-54123167D01*
X212205640Y-54088198D01*
X212502904Y-53870020D01*
X212861438Y-53606876D01*
X213274257Y-53303892D01*
X213734374Y-52966196D01*
X214234803Y-52598916D01*
X214768556Y-52207179D01*
X215328649Y-51796113D01*
X215908094Y-51370844D01*
X216499906Y-50936501D01*
X217097097Y-50498211D01*
X217692682Y-50061101D01*
X218279675Y-49630299D01*
X218487594Y-49477704D01*
X219026368Y-49082509D01*
X219257706Y-48913009D01*
X221832779Y-48913009D01*
X221842761Y-48935098D01*
X221866502Y-48937334D01*
X221923907Y-48906588D01*
X221932200Y-48895485D01*
X221925387Y-48871429D01*
X221892366Y-48878848D01*
X221832779Y-48913009D01*
X219257706Y-48913009D01*
X219547908Y-48700380D01*
X220047965Y-48334408D01*
X220522292Y-47987684D01*
X220966641Y-47663299D01*
X221376766Y-47364342D01*
X221748419Y-47093906D01*
X222077352Y-46855079D01*
X222359319Y-46650954D01*
X222590071Y-46484621D01*
X222765362Y-46359170D01*
X222880943Y-46277692D01*
X222932568Y-46243277D01*
X222932594Y-46243264D01*
X223084427Y-46192536D01*
X223284140Y-46166806D01*
X223499515Y-46166182D01*
X223698331Y-46190771D01*
G37*
%TD*%
D11*
%TO.C,REF\u002A\u002A*%
X196750000Y-60250000D03*
%TD*%
M02*
