%TF.GenerationSoftware,KiCad,Pcbnew,8.0.4*%
%TF.CreationDate,2024-09-13T10:52:40+02:00*%
%TF.ProjectId,unicorn,756e6963-6f72-46e2-9e6b-696361645f70,rev?*%
%TF.SameCoordinates,Original*%
%TF.FileFunction,Copper,L2,Bot*%
%TF.FilePolarity,Positive*%
%FSLAX46Y46*%
G04 Gerber Fmt 4.6, Leading zero omitted, Abs format (unit mm)*
G04 Created by KiCad (PCBNEW 8.0.4) date 2024-09-13 10:52:40*
%MOMM*%
%LPD*%
G01*
G04 APERTURE LIST*
G04 Aperture macros list*
%AMRoundRect*
0 Rectangle with rounded corners*
0 $1 Rounding radius*
0 $2 $3 $4 $5 $6 $7 $8 $9 X,Y pos of 4 corners*
0 Add a 4 corners polygon primitive as box body*
4,1,4,$2,$3,$4,$5,$6,$7,$8,$9,$2,$3,0*
0 Add four circle primitives for the rounded corners*
1,1,$1+$1,$2,$3*
1,1,$1+$1,$4,$5*
1,1,$1+$1,$6,$7*
1,1,$1+$1,$8,$9*
0 Add four rect primitives between the rounded corners*
20,1,$1+$1,$2,$3,$4,$5,0*
20,1,$1+$1,$4,$5,$6,$7,0*
20,1,$1+$1,$6,$7,$8,$9,0*
20,1,$1+$1,$8,$9,$2,$3,0*%
%AMRotRect*
0 Rectangle, with rotation*
0 The origin of the aperture is its center*
0 $1 length*
0 $2 width*
0 $3 Rotation angle, in degrees counterclockwise*
0 Add horizontal line*
21,1,$1,$2,0,0,$3*%
G04 Aperture macros list end*
%ADD10C,0.150000*%
%TA.AperFunction,NonConductor*%
%ADD11C,0.150000*%
%TD*%
%ADD12C,0.125000*%
%TA.AperFunction,NonConductor*%
%ADD13C,0.125000*%
%TD*%
%TA.AperFunction,EtchedComponent*%
%ADD14C,0.000000*%
%TD*%
%TA.AperFunction,WasherPad*%
%ADD15C,5.500000*%
%TD*%
%TA.AperFunction,SMDPad,CuDef*%
%ADD16R,5.000000X1.524000*%
%TD*%
%TA.AperFunction,SMDPad,CuDef*%
%ADD17R,1.524000X5.000000*%
%TD*%
%TA.AperFunction,SMDPad,CuDef*%
%ADD18RotRect,1.524000X5.000000X60.000000*%
%TD*%
%TA.AperFunction,SMDPad,CuDef*%
%ADD19RotRect,1.524000X5.000000X45.000000*%
%TD*%
%TA.AperFunction,SMDPad,CuDef*%
%ADD20R,5.000000X3.600000*%
%TD*%
%TA.AperFunction,SMDPad,CuDef*%
%ADD21RoundRect,0.500000X-1.580549X0.043184X1.238529X-0.982877X1.580549X-0.043184X-1.238529X0.982877X0*%
%TD*%
%TA.AperFunction,Conductor*%
%ADD22C,1.000000*%
%TD*%
G04 APERTURE END LIST*
D10*
D11*
G36*
X203554052Y-114338345D02*
G01*
X203557593Y-114419945D01*
X203568217Y-114497407D01*
X203585924Y-114570733D01*
X203610713Y-114639920D01*
X203628058Y-114677599D01*
X203668793Y-114747551D01*
X203716626Y-114809398D01*
X203771558Y-114863139D01*
X203833588Y-114908774D01*
X203901709Y-114944999D01*
X203974547Y-114970873D01*
X204052102Y-114986398D01*
X204134373Y-114991573D01*
X205159827Y-114991573D01*
X205218811Y-114968492D01*
X205242259Y-114909507D01*
X205218811Y-114850889D01*
X205159460Y-114827808D01*
X204134373Y-114827808D01*
X204058997Y-114821762D01*
X203982859Y-114801143D01*
X203913822Y-114765892D01*
X203853183Y-114717481D01*
X203802241Y-114657381D01*
X203764345Y-114592602D01*
X203735945Y-114519916D01*
X203718063Y-114441076D01*
X203710963Y-114364859D01*
X203710490Y-114338345D01*
X203714750Y-114261703D01*
X203729476Y-114182391D01*
X203754721Y-114109232D01*
X203764345Y-114088485D01*
X203802241Y-114024865D01*
X203853183Y-113965544D01*
X203913822Y-113917393D01*
X203982859Y-113882142D01*
X204058997Y-113861524D01*
X204134373Y-113855477D01*
X205159460Y-113855477D01*
X205218811Y-113832396D01*
X205242259Y-113773412D01*
X205218811Y-113713694D01*
X205159827Y-113691712D01*
X204134373Y-113691712D01*
X204052102Y-113696910D01*
X203974547Y-113712504D01*
X203901709Y-113738492D01*
X203833588Y-113774877D01*
X203771558Y-113820215D01*
X203716626Y-113873429D01*
X203668793Y-113934520D01*
X203628058Y-114003488D01*
X203595680Y-114079097D01*
X203574939Y-114149687D01*
X203561279Y-114224415D01*
X203554703Y-114303279D01*
X203554052Y-114338345D01*
G37*
G36*
X203577500Y-112308687D02*
G01*
X203600580Y-112367306D01*
X203658100Y-112390386D01*
X204208745Y-112390386D01*
X204286369Y-112395216D01*
X204361176Y-112411687D01*
X204424900Y-112439846D01*
X204486885Y-112485896D01*
X204534722Y-112543677D01*
X204552028Y-112574301D01*
X204579544Y-112646989D01*
X204592493Y-112720525D01*
X204594527Y-112766276D01*
X204589066Y-112840705D01*
X204570824Y-112915058D01*
X204555692Y-112952389D01*
X204516493Y-113018246D01*
X204462198Y-113074177D01*
X204449813Y-113083548D01*
X204382933Y-113118259D01*
X204308004Y-113131719D01*
X204297405Y-113131908D01*
X204297405Y-113247312D01*
X204375973Y-113238640D01*
X204449103Y-113217660D01*
X204516795Y-113184372D01*
X204529680Y-113176238D01*
X204589501Y-113129813D01*
X204640734Y-113074801D01*
X204683382Y-113011202D01*
X204690881Y-112997452D01*
X204721986Y-112925410D01*
X204741570Y-112848502D01*
X204749347Y-112775125D01*
X204749865Y-112749790D01*
X204744910Y-112668408D01*
X204730043Y-112592010D01*
X204705265Y-112520597D01*
X204687217Y-112483077D01*
X204647546Y-112420837D01*
X204592592Y-112360859D01*
X204533344Y-112315139D01*
X204504035Y-112297330D01*
X204431826Y-112264212D01*
X204360586Y-112243873D01*
X204282705Y-112232098D01*
X204209112Y-112228820D01*
X203658100Y-112228820D01*
X203600580Y-112251901D01*
X203577500Y-112308687D01*
G37*
G36*
X203577500Y-113211775D02*
G01*
X203599848Y-113271493D01*
X203658832Y-113293474D01*
X204666334Y-113293474D01*
X204727151Y-113271493D01*
X204749865Y-113211775D01*
X204727151Y-113153890D01*
X204666334Y-113131908D01*
X203658832Y-113131908D01*
X203599848Y-113153890D01*
X203577500Y-113211775D01*
G37*
G36*
X203577500Y-111756576D02*
G01*
X203599848Y-111816294D01*
X203661031Y-111838275D01*
X204666334Y-111838275D01*
X204727151Y-111816294D01*
X204749865Y-111756576D01*
X204727151Y-111698691D01*
X204666334Y-111676709D01*
X203661031Y-111676709D01*
X203599848Y-111698691D01*
X203577500Y-111756576D01*
G37*
G36*
X204960891Y-111758774D02*
G01*
X204986697Y-111830021D01*
X204994596Y-111838642D01*
X205062526Y-111871167D01*
X205077395Y-111871981D01*
X205148966Y-111849246D01*
X205161292Y-111837543D01*
X205191586Y-111767939D01*
X205192067Y-111756576D01*
X205168505Y-111686652D01*
X205161292Y-111677808D01*
X205093450Y-111643853D01*
X205077395Y-111643003D01*
X205005602Y-111666999D01*
X204994596Y-111676709D01*
X204961714Y-111744020D01*
X204960891Y-111758774D01*
G37*
G36*
X203577500Y-110753105D02*
G01*
X203582285Y-110833636D01*
X203596642Y-110909634D01*
X203620570Y-110981098D01*
X203654070Y-111048028D01*
X203696018Y-111109119D01*
X203751531Y-111169745D01*
X203808272Y-111216434D01*
X203863630Y-111251726D01*
X203932049Y-111284264D01*
X204004680Y-111307505D01*
X204081525Y-111321450D01*
X204162583Y-111326098D01*
X204244603Y-111321656D01*
X204322135Y-111308330D01*
X204395179Y-111286119D01*
X204463735Y-111255024D01*
X204526543Y-111216029D01*
X204588828Y-111164332D01*
X204642244Y-111104346D01*
X204672929Y-111059751D01*
X204710120Y-110986934D01*
X204732960Y-110917245D01*
X204746184Y-110842885D01*
X204749865Y-110773987D01*
X204744892Y-110695813D01*
X204729973Y-110621574D01*
X204705107Y-110551271D01*
X204698941Y-110537682D01*
X204662211Y-110472674D01*
X204615679Y-110412746D01*
X204559343Y-110357899D01*
X204546899Y-110347539D01*
X204493044Y-110331053D01*
X204443951Y-110366590D01*
X204432227Y-110418248D01*
X204463002Y-110467340D01*
X204516963Y-110523588D01*
X204557670Y-110585901D01*
X204585124Y-110654280D01*
X204599324Y-110728724D01*
X204601488Y-110773987D01*
X204594778Y-110851506D01*
X204574647Y-110922358D01*
X204544701Y-110980983D01*
X204496410Y-111042189D01*
X204436166Y-111092266D01*
X204389363Y-111119469D01*
X204318102Y-111147419D01*
X204239827Y-111163767D01*
X204162583Y-111168562D01*
X204086462Y-111163445D01*
X204008845Y-111145999D01*
X203937636Y-111116172D01*
X203874816Y-111075175D01*
X203821867Y-111024221D01*
X203782297Y-110969259D01*
X203750175Y-110901072D01*
X203731387Y-110826478D01*
X203725877Y-110753105D01*
X203730707Y-110679227D01*
X203746506Y-110607168D01*
X203747859Y-110602895D01*
X203778039Y-110534653D01*
X203816003Y-110481995D01*
X203839084Y-110429605D01*
X203822231Y-110379047D01*
X203769841Y-110350837D01*
X203719649Y-110370620D01*
X203671340Y-110430838D01*
X203633027Y-110496363D01*
X203604708Y-110567195D01*
X203586384Y-110643333D01*
X203578055Y-110724777D01*
X203577500Y-110753105D01*
G37*
G36*
X204245404Y-108912697D02*
G01*
X204323509Y-108927603D01*
X204396896Y-108951714D01*
X204465566Y-108985031D01*
X204528329Y-109026247D01*
X204583994Y-109074423D01*
X204632560Y-109129561D01*
X204674028Y-109191660D01*
X204707207Y-109259552D01*
X204730906Y-109332069D01*
X204745125Y-109409212D01*
X204749865Y-109490980D01*
X204745125Y-109572679D01*
X204730906Y-109649982D01*
X204707207Y-109722888D01*
X204674028Y-109791398D01*
X204632560Y-109853978D01*
X204583994Y-109909459D01*
X204528329Y-109957842D01*
X204465566Y-109999127D01*
X204396896Y-110032145D01*
X204323509Y-110055730D01*
X204245404Y-110069881D01*
X204162583Y-110074598D01*
X204080724Y-110069881D01*
X204003306Y-110055730D01*
X203930331Y-110032145D01*
X203861798Y-109999127D01*
X203799035Y-109957842D01*
X203743371Y-109909459D01*
X203694805Y-109853978D01*
X203653337Y-109791398D01*
X203620158Y-109722888D01*
X203596459Y-109649982D01*
X203582239Y-109572679D01*
X203577500Y-109490980D01*
X203725877Y-109490980D01*
X203731387Y-109564567D01*
X203750175Y-109639894D01*
X203782297Y-109709333D01*
X203821867Y-109765776D01*
X203874816Y-109818607D01*
X203937636Y-109861740D01*
X204008845Y-109893236D01*
X204086462Y-109911659D01*
X204162583Y-109917061D01*
X204238776Y-109911659D01*
X204316637Y-109893236D01*
X204388264Y-109861740D01*
X204446517Y-109822929D01*
X204500761Y-109770979D01*
X204544701Y-109709333D01*
X204577032Y-109639894D01*
X204595942Y-109564567D01*
X204601488Y-109490980D01*
X204595942Y-109417234D01*
X204577032Y-109341900D01*
X204544701Y-109272627D01*
X204505181Y-109216291D01*
X204451874Y-109163826D01*
X204388264Y-109121318D01*
X204316637Y-109090239D01*
X204238776Y-109072061D01*
X204162583Y-109066730D01*
X204086462Y-109072061D01*
X204008845Y-109090239D01*
X203937636Y-109121318D01*
X203880119Y-109159550D01*
X203826273Y-109211110D01*
X203782297Y-109272627D01*
X203750175Y-109341900D01*
X203731387Y-109417234D01*
X203725877Y-109490980D01*
X203577500Y-109490980D01*
X203582239Y-109409212D01*
X203596459Y-109332069D01*
X203620158Y-109259552D01*
X203653337Y-109191660D01*
X203694805Y-109129493D01*
X203743371Y-109074149D01*
X203799035Y-109025628D01*
X203861798Y-108983931D01*
X203930331Y-108950272D01*
X204003306Y-108926229D01*
X204080724Y-108911803D01*
X204162583Y-108906995D01*
X204245404Y-108912697D01*
G37*
G36*
X204304000Y-108525243D02*
G01*
X204381301Y-108515913D01*
X204453379Y-108495705D01*
X204520233Y-108464622D01*
X204532978Y-108457100D01*
X204597387Y-108409865D01*
X204651579Y-108353799D01*
X204691980Y-108295167D01*
X204724936Y-108224016D01*
X204744212Y-108147583D01*
X204749865Y-108073516D01*
X204744606Y-107997622D01*
X204722388Y-107924772D01*
X204661049Y-107882094D01*
X204642154Y-107884472D01*
X204599656Y-107913049D01*
X204591229Y-107961409D01*
X204593428Y-108025156D01*
X204595494Y-108102935D01*
X204585799Y-108180773D01*
X204570347Y-108234350D01*
X204537156Y-108302242D01*
X204488430Y-108361427D01*
X204467765Y-108379064D01*
X204402699Y-108415629D01*
X204327396Y-108431717D01*
X204304000Y-108432553D01*
X204304000Y-108525243D01*
G37*
G36*
X203577500Y-108512421D02*
G01*
X203598749Y-108571405D01*
X203658832Y-108592288D01*
X204668532Y-108592288D01*
X204728250Y-108571405D01*
X204749865Y-108512421D01*
X204728250Y-108453802D01*
X204668532Y-108432553D01*
X203658832Y-108432553D01*
X203598749Y-108453802D01*
X203577500Y-108512421D01*
G37*
G36*
X203577500Y-106646161D02*
G01*
X203600580Y-106704779D01*
X203658100Y-106727860D01*
X204208745Y-106727860D01*
X204286369Y-106732690D01*
X204361176Y-106749161D01*
X204424900Y-106777319D01*
X204486885Y-106823370D01*
X204534722Y-106881151D01*
X204552028Y-106911775D01*
X204579544Y-106984463D01*
X204592493Y-107057999D01*
X204594527Y-107103750D01*
X204589066Y-107178179D01*
X204570824Y-107252532D01*
X204555692Y-107289863D01*
X204516493Y-107355720D01*
X204462198Y-107411651D01*
X204449813Y-107421021D01*
X204382933Y-107455733D01*
X204308004Y-107469193D01*
X204297405Y-107469382D01*
X204297405Y-107584786D01*
X204375973Y-107576114D01*
X204449103Y-107555134D01*
X204516795Y-107521846D01*
X204529680Y-107513712D01*
X204589501Y-107467286D01*
X204640734Y-107412275D01*
X204683382Y-107348676D01*
X204690881Y-107334926D01*
X204721986Y-107262884D01*
X204741570Y-107185976D01*
X204749347Y-107112599D01*
X204749865Y-107087264D01*
X204744910Y-107005881D01*
X204730043Y-106929484D01*
X204705265Y-106858071D01*
X204687217Y-106820550D01*
X204647546Y-106758311D01*
X204592592Y-106698333D01*
X204533344Y-106652612D01*
X204504035Y-106634804D01*
X204431826Y-106601686D01*
X204360586Y-106581347D01*
X204282705Y-106569572D01*
X204209112Y-106566294D01*
X203658100Y-106566294D01*
X203600580Y-106589375D01*
X203577500Y-106646161D01*
G37*
G36*
X203577500Y-107549249D02*
G01*
X203599848Y-107608966D01*
X203658832Y-107630948D01*
X204666334Y-107630948D01*
X204727151Y-107608966D01*
X204749865Y-107549249D01*
X204727151Y-107491363D01*
X204666334Y-107469382D01*
X203658832Y-107469382D01*
X203599848Y-107491363D01*
X203577500Y-107549249D01*
G37*
D10*
D11*
G36*
X201877026Y-114573229D02*
G01*
X201878604Y-114609889D01*
X201884271Y-114650498D01*
X201894060Y-114689733D01*
X201907970Y-114727595D01*
X201909999Y-114732231D01*
X201928111Y-114768123D01*
X201949474Y-114801794D01*
X201974089Y-114833244D01*
X202001956Y-114862473D01*
X202032662Y-114889046D01*
X202065612Y-114912528D01*
X202100806Y-114932918D01*
X202138244Y-114950218D01*
X202177502Y-114964002D01*
X202218157Y-114973848D01*
X202254876Y-114979233D01*
X202292664Y-114981602D01*
X202303657Y-114981725D01*
X202341394Y-114980243D01*
X202378149Y-114975799D01*
X202418953Y-114967092D01*
X202458475Y-114954516D01*
X202468155Y-114950767D01*
X202505547Y-114933640D01*
X202540603Y-114913398D01*
X202573324Y-114890042D01*
X202603709Y-114863572D01*
X202631450Y-114834343D01*
X202656054Y-114802893D01*
X202677520Y-114769222D01*
X202695850Y-114733330D01*
X202710516Y-114695571D01*
X202720992Y-114656302D01*
X202727277Y-114615521D01*
X202729340Y-114578598D01*
X202729372Y-114573229D01*
X202727976Y-114536260D01*
X202723065Y-114496723D01*
X202714619Y-114459360D01*
X202707024Y-114435659D01*
X202692455Y-114401165D01*
X202673684Y-114367337D01*
X202650711Y-114334176D01*
X202636133Y-114316041D01*
X202618730Y-114305050D01*
X202599863Y-114307615D01*
X202586673Y-114320071D01*
X202574034Y-114330696D01*
X202570920Y-114350113D01*
X202580445Y-114371545D01*
X202602817Y-114400621D01*
X202622236Y-114434315D01*
X202633385Y-114460938D01*
X202643989Y-114499312D01*
X202649411Y-114538425D01*
X202650787Y-114573229D01*
X202648599Y-114610864D01*
X202642035Y-114647108D01*
X202629610Y-114685748D01*
X202623127Y-114700723D01*
X202603853Y-114736440D01*
X202580608Y-114769402D01*
X202553392Y-114799610D01*
X202547472Y-114805320D01*
X202519302Y-114829147D01*
X202488785Y-114849930D01*
X202455920Y-114867671D01*
X202436647Y-114876212D01*
X202400710Y-114888609D01*
X202363586Y-114896949D01*
X202325272Y-114901231D01*
X202303474Y-114901857D01*
X202263527Y-114899829D01*
X202225086Y-114893743D01*
X202188153Y-114883600D01*
X202168285Y-114876212D01*
X202134116Y-114860162D01*
X202102295Y-114841069D01*
X202072821Y-114818933D01*
X202057460Y-114805320D01*
X202032190Y-114778754D01*
X202007918Y-114746618D01*
X201987654Y-114711728D01*
X201982356Y-114700723D01*
X201968059Y-114662770D01*
X201959057Y-114623100D01*
X201955483Y-114585928D01*
X201955245Y-114573229D01*
X201957496Y-114534294D01*
X201964249Y-114496832D01*
X201974296Y-114464052D01*
X201989363Y-114429291D01*
X202008370Y-114395786D01*
X202029067Y-114366416D01*
X202037310Y-114339671D01*
X202024854Y-114314942D01*
X201997560Y-114304317D01*
X201982172Y-114307065D01*
X201967884Y-114316041D01*
X201942250Y-114347128D01*
X201921194Y-114380216D01*
X201904717Y-114415302D01*
X201897542Y-114435659D01*
X201887625Y-114473277D01*
X201880953Y-114511735D01*
X201877527Y-114551033D01*
X201877026Y-114573229D01*
G37*
G36*
X201877026Y-113764296D02*
G01*
X201878604Y-113800956D01*
X201884271Y-113841566D01*
X201894060Y-113880801D01*
X201907970Y-113918662D01*
X201909999Y-113923298D01*
X201928111Y-113959191D01*
X201949474Y-113992862D01*
X201974089Y-114024312D01*
X202001956Y-114053541D01*
X202032662Y-114080114D01*
X202065612Y-114103595D01*
X202100806Y-114123986D01*
X202138244Y-114141285D01*
X202177502Y-114155070D01*
X202218157Y-114164916D01*
X202254876Y-114170300D01*
X202292664Y-114172669D01*
X202303657Y-114172793D01*
X202341394Y-114171311D01*
X202378149Y-114166867D01*
X202418953Y-114158160D01*
X202458475Y-114145584D01*
X202468155Y-114141835D01*
X202505547Y-114124707D01*
X202540603Y-114104466D01*
X202573324Y-114081110D01*
X202603709Y-114054640D01*
X202631450Y-114025411D01*
X202656054Y-113993961D01*
X202677520Y-113960290D01*
X202695850Y-113924398D01*
X202710516Y-113886639D01*
X202720992Y-113847369D01*
X202727277Y-113806589D01*
X202729340Y-113769666D01*
X202729372Y-113764296D01*
X202727976Y-113727328D01*
X202723065Y-113687791D01*
X202714619Y-113650428D01*
X202707024Y-113626727D01*
X202692455Y-113592232D01*
X202673684Y-113558405D01*
X202650711Y-113525244D01*
X202636133Y-113507109D01*
X202618730Y-113496118D01*
X202599863Y-113498682D01*
X202586673Y-113511139D01*
X202574034Y-113521763D01*
X202570920Y-113541181D01*
X202580445Y-113562613D01*
X202602817Y-113591689D01*
X202622236Y-113625383D01*
X202633385Y-113652006D01*
X202643989Y-113690380D01*
X202649411Y-113729493D01*
X202650787Y-113764296D01*
X202648599Y-113801932D01*
X202642035Y-113838176D01*
X202629610Y-113876816D01*
X202623127Y-113891791D01*
X202603853Y-113927508D01*
X202580608Y-113960470D01*
X202553392Y-113990677D01*
X202547472Y-113996388D01*
X202519302Y-114020215D01*
X202488785Y-114040998D01*
X202455920Y-114058739D01*
X202436647Y-114067280D01*
X202400710Y-114079677D01*
X202363586Y-114088016D01*
X202325272Y-114092299D01*
X202303474Y-114092925D01*
X202263527Y-114090897D01*
X202225086Y-114084811D01*
X202188153Y-114074668D01*
X202168285Y-114067280D01*
X202134116Y-114051230D01*
X202102295Y-114032137D01*
X202072821Y-114010001D01*
X202057460Y-113996388D01*
X202032190Y-113969822D01*
X202007918Y-113937686D01*
X201987654Y-113902795D01*
X201982356Y-113891791D01*
X201968059Y-113853838D01*
X201959057Y-113814168D01*
X201955483Y-113776996D01*
X201955245Y-113764296D01*
X201957496Y-113725362D01*
X201964249Y-113687899D01*
X201974296Y-113655120D01*
X201989363Y-113620359D01*
X202008370Y-113586854D01*
X202029067Y-113557484D01*
X202037310Y-113530739D01*
X202024854Y-113506010D01*
X201997560Y-113495385D01*
X201982172Y-113498133D01*
X201967884Y-113507109D01*
X201942250Y-113538196D01*
X201921194Y-113571283D01*
X201904717Y-113606370D01*
X201897542Y-113626727D01*
X201887625Y-113664344D01*
X201880953Y-113702802D01*
X201877527Y-113742101D01*
X201877026Y-113764296D01*
G37*
G36*
X202134946Y-113349022D02*
G01*
X202146487Y-113377416D01*
X202175246Y-113388956D01*
X202204922Y-113377416D01*
X202216646Y-113349022D01*
X202216646Y-113102276D01*
X202204922Y-113072967D01*
X202175246Y-113061427D01*
X202146487Y-113072967D01*
X202134946Y-113102276D01*
X202134946Y-113349022D01*
G37*
G36*
X202157137Y-112347701D02*
G01*
X202197588Y-112354889D01*
X202233605Y-112368888D01*
X202265189Y-112389698D01*
X202280694Y-112403816D01*
X202304524Y-112432589D01*
X202323108Y-112465679D01*
X202336447Y-112503087D01*
X202351449Y-112476774D01*
X202376771Y-112446377D01*
X202405323Y-112423220D01*
X202434951Y-112407184D01*
X202470392Y-112396405D01*
X202508821Y-112392812D01*
X202546395Y-112395728D01*
X202584338Y-112405671D01*
X202618730Y-112422670D01*
X202646433Y-112443389D01*
X202672402Y-112470932D01*
X202693652Y-112503454D01*
X202695342Y-112506648D01*
X202710396Y-112543347D01*
X202718446Y-112579190D01*
X202721129Y-112617393D01*
X202721129Y-112872566D01*
X202709405Y-112902058D01*
X202679547Y-112913599D01*
X201930332Y-112913599D01*
X201899924Y-112900593D01*
X201888750Y-112867437D01*
X201888750Y-112599624D01*
X201968251Y-112599624D01*
X201968251Y-112831716D01*
X202289735Y-112831716D01*
X202289735Y-112617393D01*
X202369419Y-112617393D01*
X202369419Y-112831716D01*
X202641628Y-112831716D01*
X202641628Y-112617393D01*
X202638962Y-112583701D01*
X202628462Y-112547283D01*
X202607923Y-112513529D01*
X202581153Y-112490167D01*
X202546937Y-112476503D01*
X202509371Y-112472496D01*
X202470884Y-112476503D01*
X202435120Y-112490167D01*
X202406239Y-112513529D01*
X202385276Y-112544232D01*
X202373015Y-112580173D01*
X202369419Y-112617393D01*
X202289735Y-112617393D01*
X202289735Y-112599624D01*
X202289257Y-112584164D01*
X202283533Y-112546604D01*
X202270135Y-112510415D01*
X202267645Y-112505626D01*
X202245006Y-112473909D01*
X202215363Y-112449598D01*
X202204073Y-112443213D01*
X202169271Y-112431091D01*
X202132748Y-112427433D01*
X202117231Y-112427974D01*
X202080069Y-112434446D01*
X202045187Y-112449598D01*
X202038430Y-112453868D01*
X202009039Y-112479660D01*
X201988217Y-112510415D01*
X201982465Y-112522832D01*
X201971546Y-112560599D01*
X201968251Y-112599624D01*
X201888750Y-112599624D01*
X201889510Y-112577067D01*
X201894710Y-112538471D01*
X201904837Y-112502454D01*
X201919890Y-112469015D01*
X201923876Y-112461946D01*
X201946595Y-112429517D01*
X201973965Y-112401954D01*
X202005986Y-112379256D01*
X202019988Y-112371614D01*
X202057297Y-112356967D01*
X202093690Y-112349229D01*
X202132748Y-112346650D01*
X202157137Y-112347701D01*
G37*
G36*
X201888750Y-112001351D02*
G01*
X201900840Y-112030294D01*
X201930149Y-112042201D01*
X202195580Y-112042201D01*
X202655916Y-112327782D01*
X202686874Y-112335842D01*
X202711420Y-112322653D01*
X202721129Y-112296458D01*
X202715817Y-112275942D01*
X202700796Y-112261653D01*
X202237162Y-111978271D01*
X202237162Y-112022234D01*
X202698781Y-111739951D01*
X202715817Y-111723647D01*
X202721129Y-111702032D01*
X202710871Y-111677485D01*
X202685775Y-111665945D01*
X202655916Y-111673639D01*
X202195580Y-111960319D01*
X201930149Y-111960319D01*
X201900840Y-111972409D01*
X201888750Y-112001351D01*
G37*
G36*
X202134946Y-111686461D02*
G01*
X202146487Y-111714855D01*
X202175246Y-111726395D01*
X202204922Y-111714855D01*
X202216646Y-111686461D01*
X202216646Y-111439715D01*
X202204922Y-111410406D01*
X202175246Y-111398865D01*
X202146487Y-111410406D01*
X202134946Y-111439715D01*
X202134946Y-111686461D01*
G37*
G36*
X201877026Y-110998979D02*
G01*
X201878562Y-111036012D01*
X201883871Y-111075325D01*
X201892973Y-111112705D01*
X201896443Y-111123543D01*
X201910286Y-111157778D01*
X201929190Y-111192008D01*
X201951947Y-111222644D01*
X201977952Y-111249146D01*
X202009331Y-111272725D01*
X202034929Y-111286758D01*
X202065887Y-111287308D01*
X202085487Y-111260380D01*
X202082190Y-111231620D01*
X202060208Y-111210005D01*
X202029657Y-111189130D01*
X202005620Y-111163843D01*
X201985366Y-111132799D01*
X201969942Y-111096684D01*
X201968251Y-111091486D01*
X201959360Y-111053043D01*
X201955562Y-111014520D01*
X201955245Y-110998979D01*
X201957452Y-110962187D01*
X201964897Y-110925458D01*
X201973929Y-110900244D01*
X201993504Y-110866118D01*
X202019530Y-110839075D01*
X202028151Y-110832649D01*
X202062387Y-110815744D01*
X202099514Y-110808524D01*
X202115163Y-110807920D01*
X202153939Y-110812535D01*
X202189208Y-110826381D01*
X202220972Y-110849458D01*
X202226904Y-110855181D01*
X202250587Y-110885996D01*
X202267113Y-110920492D01*
X202278080Y-110956160D01*
X202285786Y-110996947D01*
X202286621Y-111003192D01*
X202292469Y-111040293D01*
X202302533Y-111081354D01*
X202315919Y-111118642D01*
X202332629Y-111152155D01*
X202356323Y-111186485D01*
X202363924Y-111195350D01*
X202392531Y-111222330D01*
X202423855Y-111242684D01*
X202457897Y-111256411D01*
X202494656Y-111263511D01*
X202516881Y-111264593D01*
X202555764Y-111261266D01*
X202591356Y-111251284D01*
X202626705Y-111232617D01*
X202629721Y-111230521D01*
X202657571Y-111206704D01*
X202681127Y-111177842D01*
X202700389Y-111143935D01*
X202703727Y-111136549D01*
X202716389Y-111101449D01*
X202724908Y-111063538D01*
X202729282Y-111022817D01*
X202729922Y-110998979D01*
X202727736Y-110960542D01*
X202720364Y-110921426D01*
X202711420Y-110894015D01*
X202695922Y-110860270D01*
X202675468Y-110827549D01*
X202662877Y-110811584D01*
X202635629Y-110783333D01*
X202606137Y-110760132D01*
X202597298Y-110754431D01*
X202564692Y-110747470D01*
X202540512Y-110765971D01*
X202538313Y-110798028D01*
X202558463Y-110822574D01*
X202587615Y-110845343D01*
X202604076Y-110861959D01*
X202625495Y-110891731D01*
X202638148Y-110919295D01*
X202647627Y-110956252D01*
X202650738Y-110994224D01*
X202650787Y-111000078D01*
X202648555Y-111039531D01*
X202640706Y-111079043D01*
X202627206Y-111113398D01*
X202615067Y-111133435D01*
X202589672Y-111160000D01*
X202554382Y-111177857D01*
X202515613Y-111183760D01*
X202511386Y-111183810D01*
X202474503Y-111178485D01*
X202444707Y-111164942D01*
X202416589Y-111139892D01*
X202395441Y-111107830D01*
X202392684Y-111102477D01*
X202377906Y-111065580D01*
X202367992Y-111028418D01*
X202360935Y-110989985D01*
X202360260Y-110985423D01*
X202353199Y-110946038D01*
X202344035Y-110909972D01*
X202330264Y-110871072D01*
X202313467Y-110836951D01*
X202290044Y-110803182D01*
X202278744Y-110790701D01*
X202249690Y-110765933D01*
X202217025Y-110747249D01*
X202180748Y-110734648D01*
X202140860Y-110728130D01*
X202116445Y-110727137D01*
X202078498Y-110729561D01*
X202040459Y-110737735D01*
X202014229Y-110747653D01*
X201980272Y-110766985D01*
X201951030Y-110791941D01*
X201939125Y-110805355D01*
X201916925Y-110837685D01*
X201900619Y-110871285D01*
X201892963Y-110892550D01*
X201883251Y-110930872D01*
X201878286Y-110967676D01*
X201877026Y-110998979D01*
G37*
G36*
X201888750Y-110601474D02*
G01*
X201905299Y-110634167D01*
X201908900Y-110636278D01*
X201946058Y-110639273D01*
X201948467Y-110638293D01*
X202692370Y-110329631D01*
X202719332Y-110302841D01*
X202721129Y-110289698D01*
X202703576Y-110256666D01*
X202692370Y-110250863D01*
X201947368Y-109941102D01*
X201910209Y-109942240D01*
X201907800Y-109943667D01*
X201888824Y-109975029D01*
X201888750Y-109977738D01*
X201895161Y-110000453D01*
X201914395Y-110016756D01*
X202625325Y-110305451D01*
X202625325Y-110272845D01*
X201914395Y-110563738D01*
X201895161Y-110578942D01*
X201888750Y-110601474D01*
G37*
G36*
X202087319Y-110532231D02*
G01*
X202158394Y-110500723D01*
X202158394Y-110074459D01*
X202087319Y-110042951D01*
X202087319Y-110532231D01*
G37*
G36*
X202153631Y-108993867D02*
G01*
X202162240Y-109022260D01*
X202162240Y-109105242D01*
X202678631Y-109105242D01*
X202708856Y-109116233D01*
X202721129Y-109144077D01*
X202716366Y-109164410D01*
X202704093Y-109177599D01*
X202152898Y-109593422D01*
X202125238Y-109601299D01*
X202099226Y-109588660D01*
X202088052Y-109560816D01*
X202088052Y-109184926D01*
X202162240Y-109184926D01*
X202162240Y-109492762D01*
X202567944Y-109184926D01*
X202162240Y-109184926D01*
X202088052Y-109184926D01*
X201930332Y-109184926D01*
X201900473Y-109173386D01*
X201888750Y-109146092D01*
X201900473Y-109116782D01*
X201930332Y-109105242D01*
X202088052Y-109105242D01*
X202088052Y-109022260D01*
X202099226Y-108993867D01*
X202124139Y-108982327D01*
X202153631Y-108993867D01*
G37*
G36*
X201877026Y-108823874D02*
G01*
X201888877Y-108859995D01*
X201894978Y-108866922D01*
X201927786Y-108883840D01*
X201938575Y-108884691D01*
X201974648Y-108873510D01*
X201982905Y-108866372D01*
X202000403Y-108832736D01*
X202001040Y-108823874D01*
X201989636Y-108788960D01*
X201982356Y-108780826D01*
X201949310Y-108763734D01*
X201938575Y-108762875D01*
X201902734Y-108774363D01*
X201895527Y-108780277D01*
X201877911Y-108812835D01*
X201877026Y-108823874D01*
G37*
G36*
X202329096Y-108205889D02*
G01*
X202367118Y-108207443D01*
X202410560Y-108211174D01*
X202451620Y-108216940D01*
X202490296Y-108224741D01*
X202526590Y-108234577D01*
X202538122Y-108238275D01*
X202575823Y-108252841D01*
X202609388Y-108269931D01*
X202642681Y-108292554D01*
X202670571Y-108318475D01*
X202687753Y-108340014D01*
X202706860Y-108375560D01*
X202717969Y-108414989D01*
X202721129Y-108453297D01*
X202719908Y-108477084D01*
X202711557Y-108517175D01*
X202695295Y-108553759D01*
X202671120Y-108586836D01*
X202664699Y-108593671D01*
X202635607Y-108618933D01*
X202601066Y-108640875D01*
X202566372Y-108657350D01*
X202527506Y-108671283D01*
X202503600Y-108678024D01*
X202465682Y-108686450D01*
X202425290Y-108692853D01*
X202382425Y-108697235D01*
X202344816Y-108699341D01*
X202305489Y-108700043D01*
X202273380Y-108699594D01*
X202234903Y-108697768D01*
X202198269Y-108694538D01*
X202156739Y-108688809D01*
X202117863Y-108681057D01*
X202081640Y-108671283D01*
X202070199Y-108667562D01*
X202032790Y-108652902D01*
X201999483Y-108635700D01*
X201966442Y-108612929D01*
X201938758Y-108586836D01*
X201921763Y-108565174D01*
X201902863Y-108529759D01*
X201891875Y-108490838D01*
X201888750Y-108453297D01*
X201971548Y-108453297D01*
X201974238Y-108479927D01*
X201988363Y-108515321D01*
X202014596Y-108545254D01*
X202028826Y-108556150D01*
X202061956Y-108575313D01*
X202097096Y-108589561D01*
X202132565Y-108599842D01*
X202146814Y-108603116D01*
X202186779Y-108610272D01*
X202224097Y-108614654D01*
X202263605Y-108617284D01*
X202305306Y-108618161D01*
X202317202Y-108618089D01*
X202357587Y-108616712D01*
X202396027Y-108613581D01*
X202437575Y-108607857D01*
X202476581Y-108599842D01*
X202485888Y-108597483D01*
X202524636Y-108585127D01*
X202561673Y-108568069D01*
X202595100Y-108545254D01*
X202613933Y-108525906D01*
X202632094Y-108492332D01*
X202638148Y-108453297D01*
X202634699Y-108423554D01*
X202619372Y-108388494D01*
X202594550Y-108360973D01*
X202580161Y-108349918D01*
X202546795Y-108330520D01*
X202511534Y-108316151D01*
X202476031Y-108305835D01*
X202461800Y-108302561D01*
X202422055Y-108295406D01*
X202385137Y-108291023D01*
X202346221Y-108288393D01*
X202305306Y-108287517D01*
X202287357Y-108287675D01*
X202246931Y-108289270D01*
X202208538Y-108292583D01*
X202172178Y-108297615D01*
X202133114Y-108305469D01*
X202119249Y-108308968D01*
X202081071Y-108321474D01*
X202044667Y-108338905D01*
X202014596Y-108360057D01*
X201993786Y-108382244D01*
X201976635Y-108416741D01*
X201971548Y-108453297D01*
X201888750Y-108453297D01*
X201890520Y-108424278D01*
X201898392Y-108388271D01*
X201914773Y-108351431D01*
X201939125Y-108318475D01*
X201945610Y-108311685D01*
X201974874Y-108286590D01*
X202009449Y-108264791D01*
X202044061Y-108248422D01*
X202082739Y-108234577D01*
X202106576Y-108227794D01*
X202144477Y-108219314D01*
X202184955Y-108212870D01*
X202228009Y-108208461D01*
X202265854Y-108206341D01*
X202305489Y-108205634D01*
X202329096Y-108205889D01*
G37*
D10*
D11*
G36*
X186006875Y-115055665D02*
G01*
X186045748Y-115057924D01*
X186083096Y-115063058D01*
X186123911Y-115072446D01*
X186162734Y-115085589D01*
X186199325Y-115102064D01*
X186233442Y-115121630D01*
X186265087Y-115144288D01*
X186294259Y-115170036D01*
X186320683Y-115198613D01*
X186343901Y-115229754D01*
X186363914Y-115263459D01*
X186380721Y-115299729D01*
X186384403Y-115309176D01*
X186396756Y-115348136D01*
X186405309Y-115388975D01*
X186409674Y-115426248D01*
X186411129Y-115464959D01*
X186411129Y-115654003D01*
X186399405Y-115683496D01*
X186369547Y-115695036D01*
X185620332Y-115695036D01*
X185590473Y-115683496D01*
X185578750Y-115654003D01*
X185578750Y-115464959D01*
X185652938Y-115464959D01*
X185652938Y-115613154D01*
X186336757Y-115613154D01*
X186336757Y-115464959D01*
X186336073Y-115441177D01*
X186331584Y-115401253D01*
X186322905Y-115363484D01*
X186310036Y-115327872D01*
X186292977Y-115294417D01*
X186281508Y-115276416D01*
X186258916Y-115247326D01*
X186233117Y-115221304D01*
X186204109Y-115198349D01*
X186171893Y-115178463D01*
X186152224Y-115168588D01*
X186116150Y-115154475D01*
X186077972Y-115144395D01*
X186037691Y-115138347D01*
X185995306Y-115136331D01*
X185970868Y-115136989D01*
X185929728Y-115141309D01*
X185890656Y-115149661D01*
X185853653Y-115162046D01*
X185818718Y-115178463D01*
X185799908Y-115189451D01*
X185769469Y-115211090D01*
X185742185Y-115235798D01*
X185718057Y-115263573D01*
X185697085Y-115294417D01*
X185686738Y-115313270D01*
X185671951Y-115347958D01*
X185661388Y-115384802D01*
X185655051Y-115423803D01*
X185652938Y-115464959D01*
X185578750Y-115464959D01*
X185578868Y-115453752D01*
X185581155Y-115415452D01*
X185586352Y-115378589D01*
X185595854Y-115338220D01*
X185609158Y-115299729D01*
X185625953Y-115263459D01*
X185645932Y-115229754D01*
X185669093Y-115198613D01*
X185695437Y-115170036D01*
X185724723Y-115144288D01*
X185756528Y-115121630D01*
X185790852Y-115102064D01*
X185827694Y-115085589D01*
X185842117Y-115080220D01*
X185881902Y-115068485D01*
X185918292Y-115061298D01*
X185956154Y-115056985D01*
X185995489Y-115055547D01*
X186006875Y-115055665D01*
G37*
G36*
X185578750Y-114636976D02*
G01*
X185581085Y-114678261D01*
X185588092Y-114717118D01*
X185599770Y-114753549D01*
X185616119Y-114787552D01*
X185636612Y-114818578D01*
X185663992Y-114849268D01*
X185692173Y-114872801D01*
X185719800Y-114890500D01*
X185754135Y-114906769D01*
X185790829Y-114918390D01*
X185829881Y-114925362D01*
X185871291Y-114927686D01*
X185908057Y-114926003D01*
X185947670Y-114919958D01*
X185984718Y-114909517D01*
X186019202Y-114894679D01*
X186023333Y-114892515D01*
X186058121Y-114870616D01*
X186088505Y-114844486D01*
X186114484Y-114814124D01*
X186127014Y-114795429D01*
X186145343Y-114759109D01*
X186157674Y-114719804D01*
X186163599Y-114682360D01*
X186164932Y-114652730D01*
X186162688Y-114614078D01*
X186155956Y-114577991D01*
X186143018Y-114540459D01*
X186129029Y-114513511D01*
X186106645Y-114482256D01*
X186079885Y-114455262D01*
X186048749Y-114432527D01*
X186029561Y-114421737D01*
X185992415Y-114405975D01*
X185957061Y-114396295D01*
X185919508Y-114390691D01*
X185884847Y-114389131D01*
X185858285Y-114399572D01*
X185848394Y-114426866D01*
X185848394Y-114873098D01*
X185916171Y-114873098D01*
X185916171Y-114418440D01*
X185883381Y-114463686D01*
X185923091Y-114465787D01*
X185959857Y-114473603D01*
X185990726Y-114485668D01*
X186023398Y-114505735D01*
X186050249Y-114531314D01*
X186064915Y-114551430D01*
X186081324Y-114585596D01*
X186090160Y-114624348D01*
X186091843Y-114652730D01*
X186088488Y-114692075D01*
X186078422Y-114728001D01*
X186063449Y-114757693D01*
X186039141Y-114788631D01*
X186008804Y-114813850D01*
X185985231Y-114827486D01*
X185949287Y-114841565D01*
X185909967Y-114849800D01*
X185871291Y-114852215D01*
X185832669Y-114849496D01*
X185796945Y-114841339D01*
X185760996Y-114826084D01*
X185757902Y-114824371D01*
X185726492Y-114802826D01*
X185700018Y-114776476D01*
X185680232Y-114748351D01*
X185664067Y-114713372D01*
X185654612Y-114674929D01*
X185651839Y-114636976D01*
X185655182Y-114598966D01*
X185664389Y-114563165D01*
X185665211Y-114560772D01*
X185680324Y-114526288D01*
X185698917Y-114499406D01*
X185708626Y-114473211D01*
X185700199Y-114447932D01*
X185672722Y-114433827D01*
X185647443Y-114445734D01*
X185624994Y-114477096D01*
X185607224Y-114511520D01*
X185598167Y-114534028D01*
X185587112Y-114570325D01*
X185580285Y-114608837D01*
X185578750Y-114636976D01*
G37*
G36*
X185578750Y-114052625D02*
G01*
X185580807Y-114091233D01*
X185586978Y-114129662D01*
X185597264Y-114167912D01*
X185599815Y-114175540D01*
X185615153Y-114211315D01*
X185634606Y-114242616D01*
X185660756Y-114271883D01*
X185663380Y-114274275D01*
X185691773Y-114283801D01*
X185719067Y-114267864D01*
X185727310Y-114237456D01*
X185713755Y-114211261D01*
X185689256Y-114184020D01*
X185670714Y-114149694D01*
X185668692Y-114144583D01*
X185658492Y-114109346D01*
X185653492Y-114071207D01*
X185652938Y-114052625D01*
X185655054Y-114012341D01*
X185662367Y-113975569D01*
X185679683Y-113940334D01*
X185707302Y-113915243D01*
X185744346Y-113904614D01*
X185780912Y-113914695D01*
X185806994Y-113940334D01*
X185823970Y-113973616D01*
X185835716Y-114011269D01*
X185843541Y-114047882D01*
X185845280Y-114057937D01*
X185852482Y-114095721D01*
X185863114Y-114134771D01*
X185878207Y-114172767D01*
X185898935Y-114207056D01*
X185904081Y-114213459D01*
X185931952Y-114239444D01*
X185966164Y-114256912D01*
X186004098Y-114262735D01*
X186041828Y-114258742D01*
X186077005Y-114245405D01*
X186093491Y-114234342D01*
X186119551Y-114208158D01*
X186139686Y-114175747D01*
X186146980Y-114158688D01*
X186157920Y-114121928D01*
X186163810Y-114082541D01*
X186164932Y-114054823D01*
X186163005Y-114016792D01*
X186156343Y-113978138D01*
X186144923Y-113943276D01*
X186140569Y-113933557D01*
X186121828Y-113900840D01*
X186096841Y-113870384D01*
X186074990Y-113851125D01*
X186046597Y-113842698D01*
X186022417Y-113859551D01*
X186017654Y-113888311D01*
X186033041Y-113916154D01*
X186059374Y-113944502D01*
X186077554Y-113977154D01*
X186088271Y-114014386D01*
X186091787Y-114051246D01*
X186091843Y-114056838D01*
X186089050Y-114093803D01*
X186078551Y-114130512D01*
X186068212Y-114149345D01*
X186041559Y-114175311D01*
X186008861Y-114183967D01*
X185972491Y-114174708D01*
X185966729Y-114170961D01*
X185943100Y-114142254D01*
X185935039Y-114125715D01*
X185923256Y-114090026D01*
X185915163Y-114053361D01*
X185912141Y-114035956D01*
X185905066Y-113998644D01*
X185895299Y-113961622D01*
X185882205Y-113926638D01*
X185874772Y-113911575D01*
X185853288Y-113878719D01*
X185827042Y-113853074D01*
X185816886Y-113846362D01*
X185782311Y-113831799D01*
X185744896Y-113826945D01*
X185706705Y-113831721D01*
X185672506Y-113846051D01*
X185658067Y-113855887D01*
X185630514Y-113882913D01*
X185609803Y-113914353D01*
X185599815Y-113935572D01*
X185587822Y-113972379D01*
X185581239Y-114008958D01*
X185578770Y-114048507D01*
X185578750Y-114052625D01*
G37*
G36*
X185578750Y-113629841D02*
G01*
X185589924Y-113659699D01*
X185620515Y-113670690D01*
X186123167Y-113670690D01*
X186153575Y-113659699D01*
X186164932Y-113629841D01*
X186153575Y-113600898D01*
X186123167Y-113589907D01*
X185620515Y-113589907D01*
X185589924Y-113600898D01*
X185578750Y-113629841D01*
G37*
G36*
X186270445Y-113630940D02*
G01*
X186283348Y-113666563D01*
X186287298Y-113670874D01*
X186321263Y-113687136D01*
X186328697Y-113687543D01*
X186364483Y-113676176D01*
X186370646Y-113670324D01*
X186385793Y-113635522D01*
X186386033Y-113629841D01*
X186374252Y-113594879D01*
X186370646Y-113590457D01*
X186336725Y-113573479D01*
X186328697Y-113573054D01*
X186292801Y-113585052D01*
X186287298Y-113589907D01*
X186270857Y-113623562D01*
X186270445Y-113630940D01*
G37*
G36*
X185870192Y-112830800D02*
G01*
X185875588Y-112830904D01*
X185912255Y-112833617D01*
X185951800Y-112840967D01*
X185988826Y-112852851D01*
X186023333Y-112869269D01*
X186051102Y-112886905D01*
X186079403Y-112910409D01*
X186106864Y-112941122D01*
X186127380Y-112972217D01*
X186143809Y-113006220D01*
X186155544Y-113042650D01*
X186162585Y-113081508D01*
X186164932Y-113122793D01*
X186162597Y-113163642D01*
X186155590Y-113202294D01*
X186143912Y-113238747D01*
X186127563Y-113273002D01*
X186107070Y-113304292D01*
X186082958Y-113332032D01*
X186055229Y-113356224D01*
X186023882Y-113376866D01*
X186019718Y-113379188D01*
X185985002Y-113395108D01*
X185947790Y-113406310D01*
X185908083Y-113412796D01*
X185871291Y-113414602D01*
X185829881Y-113412346D01*
X185790829Y-113405580D01*
X185754135Y-113394303D01*
X185719800Y-113378515D01*
X185699784Y-113366505D01*
X185667317Y-113341484D01*
X185639428Y-113312087D01*
X185616119Y-113278314D01*
X185599770Y-113245078D01*
X185588092Y-113209484D01*
X185581085Y-113171530D01*
X185578750Y-113131219D01*
X185579060Y-113122793D01*
X185652938Y-113122793D01*
X185655657Y-113160166D01*
X185664930Y-113198219D01*
X185680782Y-113233068D01*
X185700277Y-113261139D01*
X185726557Y-113287307D01*
X185757902Y-113308539D01*
X185793615Y-113324079D01*
X185832748Y-113333168D01*
X185871291Y-113335833D01*
X185909967Y-113333168D01*
X185949287Y-113324079D01*
X185985231Y-113308539D01*
X186014225Y-113289441D01*
X186041160Y-113263722D01*
X186062900Y-113233068D01*
X186078752Y-113198219D01*
X186088024Y-113160166D01*
X186090744Y-113122793D01*
X186088024Y-113085473D01*
X186078752Y-113047603D01*
X186062900Y-113013066D01*
X186043351Y-112985188D01*
X186016888Y-112959151D01*
X185985231Y-112937962D01*
X185982103Y-112936283D01*
X185945852Y-112921329D01*
X185909967Y-112913333D01*
X185871291Y-112910668D01*
X185832748Y-112913333D01*
X185793615Y-112922422D01*
X185757902Y-112937962D01*
X185729197Y-112957024D01*
X185702457Y-112982621D01*
X185680782Y-113013066D01*
X185664930Y-113047603D01*
X185655657Y-113085473D01*
X185652938Y-113122793D01*
X185579060Y-113122793D01*
X185579581Y-113108609D01*
X185585271Y-113069940D01*
X185596351Y-113033879D01*
X185612821Y-113000427D01*
X185621749Y-112986522D01*
X185647648Y-112955117D01*
X185675332Y-112930950D01*
X185707160Y-112910668D01*
X185659350Y-112910668D01*
X185646523Y-112910912D01*
X185609916Y-112914583D01*
X185572539Y-112923828D01*
X185538633Y-112938511D01*
X185508715Y-112957810D01*
X185481013Y-112983419D01*
X185458765Y-113013616D01*
X185443792Y-113044281D01*
X185433727Y-113080616D01*
X185430372Y-113119678D01*
X185432626Y-113157578D01*
X185440312Y-113195837D01*
X185453453Y-113230504D01*
X185464261Y-113250517D01*
X185486092Y-113280991D01*
X185514453Y-113308539D01*
X185530206Y-113334918D01*
X185523795Y-113365326D01*
X185499798Y-113380530D01*
X185472321Y-113370638D01*
X185456094Y-113357279D01*
X185429635Y-113330527D01*
X185406712Y-113300298D01*
X185387324Y-113266591D01*
X185375119Y-113238066D01*
X185363831Y-113198584D01*
X185357958Y-113160837D01*
X185356000Y-113120594D01*
X185358473Y-113079825D01*
X185365892Y-113041414D01*
X185378257Y-113005361D01*
X185395567Y-112971667D01*
X185417034Y-112940778D01*
X185442050Y-112913324D01*
X185470615Y-112889304D01*
X185502729Y-112868719D01*
X185537705Y-112852130D01*
X185574857Y-112840280D01*
X185614184Y-112833170D01*
X185655686Y-112830800D01*
X185870192Y-112830800D01*
G37*
G36*
X185578750Y-112181053D02*
G01*
X185590290Y-112210362D01*
X185619050Y-112221903D01*
X185894372Y-112221903D01*
X185933184Y-112224318D01*
X185970588Y-112232553D01*
X186002450Y-112246632D01*
X186033442Y-112269658D01*
X186057361Y-112298548D01*
X186066014Y-112313860D01*
X186079772Y-112350204D01*
X186086246Y-112386972D01*
X186087263Y-112409848D01*
X186084533Y-112447062D01*
X186075412Y-112484239D01*
X186067846Y-112502904D01*
X186048246Y-112535833D01*
X186021099Y-112563798D01*
X186014906Y-112568483D01*
X185981466Y-112585839D01*
X185944002Y-112592569D01*
X185938702Y-112592663D01*
X185938702Y-112650366D01*
X185977986Y-112646030D01*
X186014551Y-112635540D01*
X186048397Y-112618896D01*
X186054840Y-112614829D01*
X186084750Y-112591616D01*
X186110367Y-112564110D01*
X186131691Y-112532311D01*
X186135440Y-112525436D01*
X186150993Y-112489415D01*
X186160785Y-112450961D01*
X186164673Y-112414272D01*
X186164932Y-112401605D01*
X186162455Y-112360913D01*
X186155021Y-112322715D01*
X186142632Y-112287008D01*
X186133608Y-112268248D01*
X186113773Y-112237128D01*
X186086296Y-112207139D01*
X186056672Y-112184279D01*
X186042017Y-112175375D01*
X186005913Y-112158816D01*
X185970293Y-112148646D01*
X185931352Y-112142759D01*
X185894556Y-112141120D01*
X185619050Y-112141120D01*
X185590290Y-112152660D01*
X185578750Y-112181053D01*
G37*
G36*
X185578750Y-112632597D02*
G01*
X185589924Y-112662456D01*
X185619416Y-112673447D01*
X186123167Y-112673447D01*
X186153575Y-112662456D01*
X186164932Y-112632597D01*
X186153575Y-112603654D01*
X186123167Y-112592663D01*
X185619416Y-112592663D01*
X185589924Y-112603654D01*
X185578750Y-112632597D01*
G37*
G36*
X185912920Y-111074221D02*
G01*
X185951342Y-111081228D01*
X185987658Y-111092906D01*
X186021867Y-111109255D01*
X186049537Y-111126812D01*
X186077876Y-111150033D01*
X186105570Y-111180180D01*
X186126464Y-111210554D01*
X186143294Y-111243584D01*
X186155315Y-111278744D01*
X186162528Y-111316033D01*
X186164932Y-111355451D01*
X186164454Y-111372834D01*
X186159884Y-111410458D01*
X186150473Y-111446024D01*
X186134341Y-111483129D01*
X186130439Y-111490185D01*
X186108590Y-111522825D01*
X186082840Y-111551065D01*
X186053191Y-111574904D01*
X186369180Y-111574904D01*
X186399772Y-111585894D01*
X186411129Y-111614837D01*
X186399955Y-111644696D01*
X186369913Y-111655687D01*
X185870009Y-111655687D01*
X185829720Y-111652813D01*
X185791470Y-111645291D01*
X185755257Y-111633121D01*
X185721082Y-111616303D01*
X185689769Y-111595454D01*
X185661960Y-111571194D01*
X185637654Y-111543522D01*
X185616851Y-111512438D01*
X185600182Y-111478550D01*
X185588275Y-111442646D01*
X185581131Y-111404727D01*
X185578750Y-111364794D01*
X185652938Y-111364794D01*
X185655747Y-111401104D01*
X185665324Y-111438443D01*
X185681698Y-111473054D01*
X185701773Y-111501126D01*
X185728442Y-111527293D01*
X185759917Y-111548525D01*
X185795522Y-111564065D01*
X185834330Y-111573154D01*
X185872390Y-111575819D01*
X185909907Y-111573154D01*
X185948448Y-111564065D01*
X185984132Y-111548525D01*
X186013258Y-111529427D01*
X186040380Y-111503708D01*
X186062350Y-111473054D01*
X186077323Y-111441702D01*
X186087389Y-111404612D01*
X186090744Y-111364794D01*
X186087971Y-111328018D01*
X186078516Y-111290415D01*
X186062350Y-111255800D01*
X186042590Y-111227579D01*
X186015937Y-111201163D01*
X185984132Y-111179596D01*
X185948448Y-111163744D01*
X185909907Y-111154472D01*
X185872390Y-111151753D01*
X185834330Y-111154472D01*
X185795522Y-111163744D01*
X185759917Y-111179596D01*
X185731105Y-111199002D01*
X185703999Y-111224977D01*
X185681698Y-111255800D01*
X185665324Y-111290415D01*
X185655747Y-111328018D01*
X185652938Y-111364794D01*
X185578750Y-111364794D01*
X185581142Y-111323955D01*
X185588321Y-111285338D01*
X185600285Y-111248942D01*
X185617035Y-111214767D01*
X185638009Y-111183443D01*
X185662464Y-111155600D01*
X185690399Y-111131236D01*
X185721815Y-111110354D01*
X185756093Y-111093524D01*
X185792615Y-111081502D01*
X185831381Y-111074290D01*
X185872390Y-111071885D01*
X185912920Y-111074221D01*
G37*
G36*
X185332553Y-110846205D02*
G01*
X185336766Y-110865073D01*
X185365568Y-110889788D01*
X185387141Y-110885040D01*
X186134707Y-110545969D01*
X186157957Y-110517167D01*
X186153575Y-110495594D01*
X186125742Y-110470879D01*
X186104299Y-110475628D01*
X185356733Y-110815797D01*
X185332647Y-110843746D01*
X185332553Y-110846205D01*
G37*
G36*
X185596518Y-110729701D02*
G01*
X185593954Y-110759193D01*
X185614470Y-110781175D01*
X186099536Y-111015282D01*
X186128845Y-111017480D01*
X186149911Y-110996414D01*
X186152476Y-110967105D01*
X186132143Y-110946039D01*
X185647076Y-110716146D01*
X185617584Y-110710833D01*
X185596518Y-110729701D01*
G37*
G36*
X186024248Y-110369748D02*
G01*
X186034982Y-110404936D01*
X186041834Y-110413346D01*
X186074790Y-110430787D01*
X186085981Y-110431664D01*
X186122228Y-110420819D01*
X186130494Y-110413895D01*
X186147761Y-110380814D01*
X186148629Y-110369748D01*
X186136294Y-110333991D01*
X186129945Y-110327250D01*
X186096788Y-110310680D01*
X186085981Y-110309848D01*
X186050494Y-110320469D01*
X186042200Y-110327250D01*
X186024880Y-110360552D01*
X186024248Y-110369748D01*
G37*
G36*
X185567026Y-110367733D02*
G01*
X185578877Y-110403854D01*
X185584978Y-110410781D01*
X185617786Y-110427699D01*
X185628575Y-110428550D01*
X185664648Y-110417369D01*
X185672905Y-110410232D01*
X185690403Y-110376595D01*
X185691040Y-110367733D01*
X185679636Y-110332819D01*
X185672356Y-110324685D01*
X185639310Y-110307593D01*
X185628575Y-110306734D01*
X185592734Y-110318222D01*
X185585527Y-110324136D01*
X185567911Y-110356694D01*
X185567026Y-110367733D01*
G37*
G36*
X184652920Y-115124012D02*
G01*
X184691342Y-115131018D01*
X184727658Y-115142696D01*
X184761867Y-115159045D01*
X184789537Y-115176603D01*
X184817876Y-115199824D01*
X184845570Y-115229971D01*
X184866464Y-115260345D01*
X184883294Y-115293375D01*
X184895315Y-115328534D01*
X184902528Y-115365823D01*
X184904932Y-115405242D01*
X184904454Y-115422624D01*
X184899884Y-115460248D01*
X184890473Y-115495815D01*
X184874341Y-115532920D01*
X184870439Y-115539976D01*
X184848590Y-115572616D01*
X184822840Y-115600855D01*
X184793191Y-115624694D01*
X185109180Y-115624694D01*
X185139772Y-115635685D01*
X185151129Y-115664628D01*
X185139955Y-115694487D01*
X185109913Y-115705478D01*
X184610009Y-115705478D01*
X184569720Y-115702604D01*
X184531470Y-115695082D01*
X184495257Y-115682912D01*
X184461082Y-115666093D01*
X184429769Y-115645245D01*
X184401960Y-115620985D01*
X184377654Y-115593313D01*
X184356851Y-115562229D01*
X184340182Y-115528340D01*
X184328275Y-115492437D01*
X184321131Y-115454518D01*
X184318750Y-115414584D01*
X184392938Y-115414584D01*
X184395747Y-115450895D01*
X184405324Y-115488234D01*
X184421698Y-115522845D01*
X184441773Y-115550916D01*
X184468442Y-115577084D01*
X184499917Y-115598316D01*
X184535522Y-115613856D01*
X184574330Y-115622945D01*
X184612390Y-115625610D01*
X184649907Y-115622945D01*
X184688448Y-115613856D01*
X184724132Y-115598316D01*
X184753258Y-115579218D01*
X184780380Y-115553499D01*
X184802350Y-115522845D01*
X184817323Y-115491493D01*
X184827389Y-115454402D01*
X184830744Y-115414584D01*
X184827971Y-115377808D01*
X184818516Y-115340206D01*
X184802350Y-115305591D01*
X184782590Y-115277369D01*
X184755937Y-115250954D01*
X184724132Y-115229387D01*
X184688448Y-115213535D01*
X184649907Y-115204263D01*
X184612390Y-115201543D01*
X184574330Y-115204263D01*
X184535522Y-115213535D01*
X184499917Y-115229387D01*
X184471105Y-115248793D01*
X184443999Y-115274768D01*
X184421698Y-115305591D01*
X184405324Y-115340206D01*
X184395747Y-115377808D01*
X184392938Y-115414584D01*
X184318750Y-115414584D01*
X184321142Y-115373746D01*
X184328321Y-115335129D01*
X184340285Y-115298733D01*
X184357035Y-115264558D01*
X184378009Y-115233234D01*
X184402464Y-115205390D01*
X184430399Y-115181027D01*
X184461815Y-115160144D01*
X184496093Y-115143314D01*
X184532615Y-115131293D01*
X184571381Y-115124080D01*
X184612390Y-115121676D01*
X184652920Y-115124012D01*
G37*
G36*
X184318750Y-114839392D02*
G01*
X184323901Y-114876787D01*
X184339357Y-114910318D01*
X184342197Y-114914497D01*
X184368163Y-114942229D01*
X184399589Y-114962375D01*
X184407226Y-114965971D01*
X184443128Y-114977832D01*
X184480025Y-114983413D01*
X184503214Y-114984289D01*
X185110646Y-114984289D01*
X185139955Y-114973299D01*
X185151129Y-114944356D01*
X185139955Y-114915596D01*
X185110646Y-114904422D01*
X184502848Y-114904422D01*
X184465912Y-114900916D01*
X184429924Y-114887231D01*
X184428109Y-114886104D01*
X184402748Y-114857722D01*
X184399350Y-114839392D01*
X184399350Y-114813014D01*
X184388176Y-114787918D01*
X184359050Y-114778393D01*
X184329924Y-114791582D01*
X184318750Y-114825654D01*
X184318750Y-114839392D01*
G37*
G36*
X184318750Y-114609499D02*
G01*
X184329924Y-114639357D01*
X184360515Y-114650348D01*
X184863167Y-114650348D01*
X184893575Y-114639357D01*
X184904932Y-114609499D01*
X184893575Y-114580556D01*
X184863167Y-114569565D01*
X184360515Y-114569565D01*
X184329924Y-114580556D01*
X184318750Y-114609499D01*
G37*
G36*
X185010445Y-114610598D02*
G01*
X185023348Y-114646221D01*
X185027298Y-114650532D01*
X185061263Y-114666794D01*
X185068697Y-114667201D01*
X185104483Y-114655834D01*
X185110646Y-114649982D01*
X185125793Y-114615180D01*
X185126033Y-114609499D01*
X185114252Y-114574537D01*
X185110646Y-114570115D01*
X185076725Y-114553137D01*
X185068697Y-114552712D01*
X185032801Y-114564710D01*
X185027298Y-114569565D01*
X185010857Y-114603221D01*
X185010445Y-114610598D01*
G37*
G36*
X184318750Y-113871458D02*
G01*
X184330290Y-113900767D01*
X184359050Y-113912308D01*
X184634372Y-113912308D01*
X184673184Y-113914723D01*
X184710588Y-113922958D01*
X184742450Y-113937037D01*
X184773442Y-113960062D01*
X184797361Y-113988953D01*
X184806014Y-114004265D01*
X184819772Y-114040609D01*
X184826246Y-114077377D01*
X184827263Y-114100252D01*
X184824533Y-114137467D01*
X184815412Y-114174643D01*
X184807846Y-114193309D01*
X184788246Y-114226237D01*
X184761099Y-114254203D01*
X184754906Y-114258888D01*
X184721466Y-114276244D01*
X184684002Y-114282974D01*
X184678702Y-114283068D01*
X184678702Y-114340771D01*
X184717986Y-114336434D01*
X184754551Y-114325944D01*
X184788397Y-114309300D01*
X184794840Y-114305233D01*
X184824750Y-114282021D01*
X184850367Y-114254515D01*
X184871691Y-114222715D01*
X184875440Y-114215840D01*
X184890993Y-114179819D01*
X184900785Y-114141365D01*
X184904673Y-114104677D01*
X184904932Y-114092009D01*
X184902455Y-114051318D01*
X184895021Y-114013119D01*
X184882632Y-113977413D01*
X184873608Y-113958653D01*
X184853773Y-113927533D01*
X184826296Y-113897544D01*
X184796672Y-113874684D01*
X184782017Y-113865779D01*
X184745913Y-113849220D01*
X184710293Y-113839051D01*
X184671352Y-113833163D01*
X184634556Y-113831524D01*
X184359050Y-113831524D01*
X184330290Y-113843065D01*
X184318750Y-113871458D01*
G37*
G36*
X184318750Y-114323002D02*
G01*
X184329924Y-114352861D01*
X184359416Y-114363852D01*
X184863167Y-114363852D01*
X184893575Y-114352861D01*
X184904932Y-114323002D01*
X184893575Y-114294059D01*
X184863167Y-114283068D01*
X184359416Y-114283068D01*
X184329924Y-114294059D01*
X184318750Y-114323002D01*
G37*
G36*
X184509808Y-113586976D02*
G01*
X184563298Y-113636252D01*
X184893209Y-113277215D01*
X184904932Y-113251020D01*
X184892110Y-113225741D01*
X184864815Y-113214750D01*
X184839536Y-113227939D01*
X184509808Y-113586976D01*
G37*
G36*
X184318750Y-113613171D02*
G01*
X184329924Y-113642114D01*
X184359233Y-113653105D01*
X185110646Y-113653105D01*
X185139955Y-113642114D01*
X185151129Y-113613171D01*
X185139955Y-113584412D01*
X185110646Y-113573237D01*
X184359233Y-113573237D01*
X184329924Y-113584412D01*
X184318750Y-113613171D01*
G37*
G36*
X184322596Y-113224642D02*
G01*
X184312704Y-113253035D01*
X184327725Y-113278314D01*
X184615505Y-113512421D01*
X184665696Y-113455818D01*
X184374986Y-113219513D01*
X184348242Y-113209987D01*
X184322596Y-113224642D01*
G37*
G36*
X184072553Y-112954265D02*
G01*
X184076766Y-112973133D01*
X184105568Y-112997848D01*
X184127141Y-112993100D01*
X184874707Y-112654030D01*
X184897957Y-112625227D01*
X184893575Y-112603654D01*
X184865742Y-112578939D01*
X184844299Y-112583688D01*
X184096733Y-112923857D01*
X184072647Y-112951806D01*
X184072553Y-112954265D01*
G37*
G36*
X184336518Y-112837761D02*
G01*
X184333954Y-112867254D01*
X184354470Y-112889235D01*
X184839536Y-113123342D01*
X184868845Y-113125540D01*
X184889911Y-113104474D01*
X184892476Y-113075165D01*
X184872143Y-113054099D01*
X184387076Y-112824206D01*
X184357584Y-112818893D01*
X184336518Y-112837761D01*
G37*
G36*
X184652301Y-111896411D02*
G01*
X184691067Y-111903624D01*
X184727589Y-111915645D01*
X184761867Y-111932475D01*
X184793271Y-111953358D01*
X184821172Y-111977721D01*
X184845570Y-112005565D01*
X184866464Y-112036889D01*
X184883294Y-112071064D01*
X184895315Y-112107460D01*
X184902528Y-112146077D01*
X184904932Y-112186915D01*
X184902551Y-112226849D01*
X184895407Y-112264767D01*
X184883500Y-112300671D01*
X184866830Y-112334560D01*
X184846016Y-112365644D01*
X184821676Y-112393316D01*
X184793809Y-112417576D01*
X184762417Y-112438424D01*
X184728322Y-112455243D01*
X184692166Y-112467413D01*
X184653950Y-112474935D01*
X184613673Y-112477808D01*
X184113769Y-112477808D01*
X184083727Y-112466817D01*
X184072553Y-112436959D01*
X184083727Y-112408016D01*
X184114135Y-112397025D01*
X184428292Y-112397025D01*
X184422186Y-112392609D01*
X184393929Y-112367890D01*
X184369464Y-112338771D01*
X184348791Y-112305251D01*
X184341750Y-112290714D01*
X184328255Y-112252592D01*
X184321126Y-112216111D01*
X184319326Y-112186915D01*
X184392938Y-112186915D01*
X184395693Y-112223226D01*
X184405087Y-112260564D01*
X184421148Y-112295176D01*
X184440987Y-112323247D01*
X184467645Y-112349414D01*
X184499367Y-112370647D01*
X184535155Y-112386186D01*
X184573757Y-112395275D01*
X184611291Y-112397941D01*
X184649334Y-112395275D01*
X184688081Y-112386186D01*
X184723582Y-112370647D01*
X184752473Y-112351549D01*
X184779583Y-112325830D01*
X184801801Y-112295176D01*
X184817064Y-112263824D01*
X184827324Y-112226733D01*
X184830744Y-112186915D01*
X184827917Y-112150139D01*
X184818279Y-112112537D01*
X184801801Y-112077922D01*
X184781805Y-112049700D01*
X184755139Y-112023285D01*
X184723582Y-112001718D01*
X184688081Y-111985866D01*
X184649334Y-111976593D01*
X184611291Y-111973874D01*
X184573757Y-111976593D01*
X184535155Y-111985866D01*
X184499367Y-112001718D01*
X184470319Y-112021124D01*
X184443201Y-112047098D01*
X184421148Y-112077922D01*
X184405087Y-112112537D01*
X184395693Y-112150139D01*
X184392938Y-112186915D01*
X184319326Y-112186915D01*
X184318750Y-112177573D01*
X184321142Y-112138154D01*
X184328321Y-112100865D01*
X184340285Y-112065706D01*
X184357035Y-112032676D01*
X184372439Y-112009580D01*
X184399217Y-111978486D01*
X184430399Y-111951652D01*
X184461815Y-111931376D01*
X184496024Y-111915027D01*
X184532340Y-111903349D01*
X184570762Y-111896342D01*
X184611291Y-111894007D01*
X184652301Y-111896411D01*
G37*
G36*
X184610192Y-111182161D02*
G01*
X184651294Y-111185046D01*
X184690151Y-111192602D01*
X184726765Y-111204830D01*
X184761134Y-111221728D01*
X184792710Y-111242577D01*
X184820760Y-111266837D01*
X184845284Y-111294509D01*
X184866281Y-111325593D01*
X184883191Y-111359470D01*
X184895269Y-111395522D01*
X184902517Y-111433750D01*
X184904932Y-111474153D01*
X184902528Y-111514591D01*
X184895315Y-111552922D01*
X184883294Y-111589146D01*
X184866464Y-111623264D01*
X184845570Y-111654588D01*
X184821172Y-111682431D01*
X184793271Y-111706795D01*
X184761867Y-111727677D01*
X184727589Y-111744427D01*
X184691067Y-111756391D01*
X184652301Y-111763570D01*
X184611291Y-111765963D01*
X184570762Y-111763638D01*
X184532340Y-111756666D01*
X184496024Y-111745045D01*
X184461815Y-111728777D01*
X184434136Y-111711157D01*
X184405765Y-111687907D01*
X184378009Y-111657782D01*
X184357035Y-111627477D01*
X184340285Y-111594378D01*
X184328321Y-111559196D01*
X184321142Y-111521930D01*
X184318750Y-111482580D01*
X184319057Y-111474153D01*
X184392938Y-111474153D01*
X184395693Y-111510464D01*
X184405087Y-111547803D01*
X184421148Y-111582414D01*
X184440987Y-111610593D01*
X184467645Y-111637126D01*
X184499367Y-111658984D01*
X184535155Y-111675045D01*
X184573757Y-111684439D01*
X184611291Y-111687194D01*
X184649334Y-111684439D01*
X184688081Y-111675045D01*
X184723582Y-111658984D01*
X184752473Y-111639306D01*
X184779583Y-111613198D01*
X184801801Y-111582414D01*
X184817064Y-111551062D01*
X184827324Y-111513971D01*
X184830744Y-111474153D01*
X184827917Y-111437334D01*
X184818279Y-111399850D01*
X184801801Y-111365526D01*
X184781805Y-111337595D01*
X184755139Y-111311374D01*
X184723582Y-111289872D01*
X184688081Y-111274020D01*
X184649334Y-111264748D01*
X184611291Y-111262028D01*
X184573757Y-111264748D01*
X184535155Y-111274020D01*
X184499367Y-111289872D01*
X184470319Y-111309224D01*
X184443201Y-111335016D01*
X184421148Y-111365526D01*
X184405087Y-111399850D01*
X184395693Y-111437334D01*
X184392938Y-111474153D01*
X184319057Y-111474153D01*
X184319608Y-111458997D01*
X184325481Y-111418576D01*
X184336919Y-111380764D01*
X184353920Y-111345560D01*
X184365524Y-111327286D01*
X184389499Y-111297504D01*
X184417443Y-111271722D01*
X184428693Y-111264043D01*
X184359599Y-111264043D01*
X184329924Y-111252503D01*
X184318750Y-111223194D01*
X184329924Y-111193702D01*
X184359233Y-111182161D01*
X184610192Y-111182161D01*
G37*
G36*
X184682000Y-110991285D02*
G01*
X184720650Y-110986620D01*
X184756689Y-110976516D01*
X184790116Y-110960974D01*
X184796489Y-110957213D01*
X184828693Y-110933596D01*
X184855789Y-110905563D01*
X184875990Y-110876247D01*
X184892468Y-110840671D01*
X184902106Y-110802455D01*
X184904932Y-110765422D01*
X184902303Y-110727474D01*
X184891194Y-110691050D01*
X184860524Y-110669710D01*
X184851077Y-110670900D01*
X184829828Y-110685188D01*
X184825614Y-110709368D01*
X184826714Y-110741242D01*
X184827747Y-110780131D01*
X184822899Y-110819050D01*
X184815173Y-110845839D01*
X184798578Y-110879785D01*
X184774215Y-110909377D01*
X184763882Y-110918196D01*
X184731349Y-110936478D01*
X184693698Y-110944522D01*
X184682000Y-110944940D01*
X184682000Y-110991285D01*
G37*
G36*
X184318750Y-110984874D02*
G01*
X184329374Y-111014366D01*
X184359416Y-111024808D01*
X184864266Y-111024808D01*
X184894125Y-111014366D01*
X184904932Y-110984874D01*
X184894125Y-110955565D01*
X184864266Y-110944940D01*
X184359416Y-110944940D01*
X184329374Y-110955565D01*
X184318750Y-110984874D01*
G37*
G36*
X184318750Y-110319373D02*
G01*
X184321888Y-110356230D01*
X184332471Y-110393178D01*
X184345311Y-110418658D01*
X184368126Y-110448780D01*
X184396453Y-110473750D01*
X184418401Y-110487534D01*
X184455014Y-110502827D01*
X184491835Y-110510645D01*
X184524280Y-110512630D01*
X185045067Y-110512630D01*
X185074925Y-110501639D01*
X185086649Y-110472697D01*
X185074925Y-110443387D01*
X185045067Y-110431847D01*
X184524097Y-110431847D01*
X184486075Y-110427416D01*
X184451164Y-110412616D01*
X184435070Y-110400340D01*
X184411403Y-110369335D01*
X184400990Y-110331457D01*
X184400449Y-110319373D01*
X184400449Y-110291163D01*
X184388725Y-110263869D01*
X184359050Y-110253244D01*
X184329924Y-110265884D01*
X184318750Y-110297391D01*
X184318750Y-110319373D01*
G37*
G36*
X184810227Y-110580957D02*
G01*
X184820302Y-110607152D01*
X184845398Y-110617594D01*
X184871410Y-110607152D01*
X184881485Y-110580957D01*
X184881485Y-110313145D01*
X184871410Y-110286950D01*
X184845398Y-110276325D01*
X184820302Y-110286950D01*
X184810227Y-110313145D01*
X184810227Y-110580957D01*
G37*
G36*
X184318750Y-109921502D02*
G01*
X184320807Y-109960109D01*
X184326978Y-109998538D01*
X184337264Y-110036788D01*
X184339815Y-110044417D01*
X184355153Y-110080191D01*
X184374606Y-110111493D01*
X184400756Y-110140760D01*
X184403380Y-110143152D01*
X184431773Y-110152677D01*
X184459067Y-110136741D01*
X184467310Y-110106332D01*
X184453755Y-110080137D01*
X184429256Y-110052896D01*
X184410714Y-110018571D01*
X184408692Y-110013459D01*
X184398492Y-109978222D01*
X184393492Y-109940083D01*
X184392938Y-109921502D01*
X184395054Y-109881218D01*
X184402367Y-109844445D01*
X184419683Y-109809211D01*
X184447302Y-109784119D01*
X184484346Y-109773490D01*
X184520912Y-109783572D01*
X184546994Y-109809211D01*
X184563970Y-109842493D01*
X184575716Y-109880145D01*
X184583541Y-109916759D01*
X184585280Y-109926814D01*
X184592482Y-109964597D01*
X184603114Y-110003648D01*
X184618207Y-110041644D01*
X184638935Y-110075932D01*
X184644081Y-110082336D01*
X184671952Y-110108321D01*
X184706164Y-110125789D01*
X184744098Y-110131612D01*
X184781828Y-110127619D01*
X184817005Y-110114282D01*
X184833491Y-110103218D01*
X184859551Y-110077035D01*
X184879686Y-110044624D01*
X184886980Y-110027564D01*
X184897920Y-109990805D01*
X184903810Y-109951418D01*
X184904932Y-109923700D01*
X184903005Y-109885668D01*
X184896343Y-109847014D01*
X184884923Y-109812152D01*
X184880569Y-109802433D01*
X184861828Y-109769717D01*
X184836841Y-109739260D01*
X184814990Y-109720001D01*
X184786597Y-109711575D01*
X184762417Y-109728428D01*
X184757654Y-109757187D01*
X184773041Y-109785031D01*
X184799374Y-109813378D01*
X184817554Y-109846031D01*
X184828271Y-109883262D01*
X184831787Y-109920123D01*
X184831843Y-109925715D01*
X184829050Y-109962679D01*
X184818551Y-109999388D01*
X184808212Y-110018222D01*
X184781559Y-110044188D01*
X184748861Y-110052843D01*
X184712491Y-110043584D01*
X184706729Y-110039837D01*
X184683100Y-110011131D01*
X184675039Y-109994591D01*
X184663256Y-109958903D01*
X184655163Y-109922238D01*
X184652141Y-109904832D01*
X184645066Y-109867520D01*
X184635299Y-109830498D01*
X184622205Y-109795515D01*
X184614772Y-109780451D01*
X184593288Y-109747596D01*
X184567042Y-109721950D01*
X184556886Y-109715239D01*
X184522311Y-109700676D01*
X184484896Y-109695821D01*
X184446705Y-109700598D01*
X184412506Y-109714928D01*
X184398067Y-109724764D01*
X184370514Y-109751789D01*
X184349803Y-109783229D01*
X184339815Y-109804448D01*
X184327822Y-109841255D01*
X184321239Y-109877835D01*
X184318770Y-109917383D01*
X184318750Y-109921502D01*
G37*
G36*
X184307026Y-108870403D02*
G01*
X184308604Y-108907063D01*
X184314271Y-108947672D01*
X184324060Y-108986907D01*
X184337970Y-109024769D01*
X184339999Y-109029405D01*
X184358111Y-109065297D01*
X184379474Y-109098968D01*
X184404089Y-109130418D01*
X184431956Y-109159647D01*
X184462662Y-109186220D01*
X184495612Y-109209702D01*
X184530806Y-109230092D01*
X184568244Y-109247391D01*
X184607502Y-109261176D01*
X184648157Y-109271022D01*
X184684876Y-109276406D01*
X184722664Y-109278776D01*
X184733657Y-109278899D01*
X184771394Y-109277417D01*
X184808149Y-109272973D01*
X184848953Y-109264266D01*
X184888475Y-109251690D01*
X184898155Y-109247941D01*
X184935547Y-109230813D01*
X184970603Y-109210572D01*
X185003324Y-109187216D01*
X185033709Y-109160746D01*
X185061450Y-109131517D01*
X185086054Y-109100067D01*
X185107520Y-109066396D01*
X185125850Y-109030504D01*
X185140516Y-108992745D01*
X185150992Y-108953476D01*
X185157277Y-108912695D01*
X185159340Y-108875772D01*
X185159372Y-108870403D01*
X185157976Y-108833434D01*
X185153065Y-108793897D01*
X185144619Y-108756534D01*
X185137024Y-108732833D01*
X185122455Y-108698338D01*
X185103684Y-108664511D01*
X185080711Y-108631350D01*
X185066133Y-108613215D01*
X185048730Y-108602224D01*
X185029863Y-108604788D01*
X185016673Y-108617245D01*
X185004034Y-108627869D01*
X185000920Y-108647287D01*
X185010445Y-108668719D01*
X185032817Y-108697795D01*
X185052236Y-108731489D01*
X185063385Y-108758112D01*
X185073989Y-108796486D01*
X185079411Y-108835599D01*
X185080787Y-108870403D01*
X185078599Y-108908038D01*
X185072035Y-108944282D01*
X185059610Y-108982922D01*
X185053127Y-108997897D01*
X185033853Y-109033614D01*
X185010608Y-109066576D01*
X184983392Y-109096783D01*
X184977472Y-109102494D01*
X184949302Y-109126321D01*
X184918785Y-109147104D01*
X184885920Y-109164845D01*
X184866647Y-109173386D01*
X184830710Y-109185783D01*
X184793586Y-109194123D01*
X184755272Y-109198405D01*
X184733474Y-109199031D01*
X184693527Y-109197003D01*
X184655086Y-109190917D01*
X184618153Y-109180774D01*
X184598285Y-109173386D01*
X184564116Y-109157336D01*
X184532295Y-109138243D01*
X184502821Y-109116107D01*
X184487460Y-109102494D01*
X184462190Y-109075928D01*
X184437918Y-109043792D01*
X184417654Y-109008902D01*
X184412356Y-108997897D01*
X184398059Y-108959944D01*
X184389057Y-108920274D01*
X184385483Y-108883102D01*
X184385245Y-108870403D01*
X184387496Y-108831468D01*
X184394249Y-108794006D01*
X184404296Y-108761226D01*
X184419363Y-108726465D01*
X184438370Y-108692960D01*
X184459067Y-108663590D01*
X184467310Y-108636845D01*
X184454854Y-108612116D01*
X184427560Y-108601491D01*
X184412172Y-108603689D01*
X184397884Y-108613215D01*
X184372250Y-108644302D01*
X184351194Y-108677389D01*
X184334717Y-108712476D01*
X184327542Y-108732833D01*
X184317625Y-108770450D01*
X184310953Y-108808908D01*
X184307527Y-108848207D01*
X184307026Y-108870403D01*
G37*
G36*
X184427560Y-108601491D02*
G01*
X184444596Y-108681359D01*
X184658736Y-108681359D01*
X184658736Y-108845123D01*
X184669360Y-108874616D01*
X184695922Y-108886156D01*
X184721933Y-108874616D01*
X184732008Y-108845123D01*
X184732008Y-108642524D01*
X184720834Y-108613215D01*
X184691525Y-108601491D01*
X184427560Y-108601491D01*
G37*
G36*
X184318750Y-107664515D02*
G01*
X184329740Y-107694007D01*
X184359050Y-107705547D01*
X184664048Y-107705547D01*
X184703919Y-107708619D01*
X184742409Y-107719238D01*
X184774781Y-107737442D01*
X184783299Y-107744382D01*
X184808330Y-107773678D01*
X184822970Y-107808169D01*
X184827263Y-107844033D01*
X184823131Y-107882483D01*
X184809040Y-107919448D01*
X184784948Y-107950828D01*
X184752545Y-107974268D01*
X184717339Y-107986862D01*
X184676660Y-107991155D01*
X184672291Y-107991128D01*
X184672291Y-108063485D01*
X184709936Y-108060724D01*
X184748705Y-108052388D01*
X184784254Y-108038506D01*
X184794290Y-108033260D01*
X184824938Y-108012681D01*
X184853277Y-107985085D01*
X184875990Y-107952294D01*
X184891252Y-107918781D01*
X184900862Y-107882584D01*
X184904819Y-107843705D01*
X184904932Y-107835607D01*
X184902034Y-107798305D01*
X184892152Y-107760496D01*
X184875257Y-107726064D01*
X184851976Y-107695683D01*
X184822938Y-107670281D01*
X184791543Y-107651509D01*
X184755890Y-107637308D01*
X184716481Y-107628368D01*
X184677801Y-107624817D01*
X184664231Y-107624581D01*
X184359050Y-107624581D01*
X184329924Y-107635755D01*
X184318750Y-107664515D01*
G37*
G36*
X184318750Y-108399624D02*
G01*
X184329924Y-108429483D01*
X184359416Y-108440474D01*
X184863167Y-108440474D01*
X184893025Y-108429483D01*
X184904932Y-108399624D01*
X184893025Y-108370682D01*
X184863167Y-108359691D01*
X184359416Y-108359691D01*
X184329924Y-108370682D01*
X184318750Y-108399624D01*
G37*
G36*
X184318750Y-108031062D02*
G01*
X184329740Y-108060371D01*
X184359050Y-108071912D01*
X184664048Y-108071912D01*
X184703919Y-108074983D01*
X184742409Y-108085602D01*
X184774781Y-108103806D01*
X184783299Y-108110746D01*
X184808330Y-108140064D01*
X184822970Y-108174620D01*
X184827263Y-108210580D01*
X184823238Y-108248988D01*
X184809513Y-108286071D01*
X184786047Y-108317742D01*
X184754767Y-108341625D01*
X184717600Y-108355594D01*
X184678702Y-108359691D01*
X184678702Y-108417393D01*
X184718566Y-108413611D01*
X184755496Y-108404785D01*
X184789492Y-108390914D01*
X184795939Y-108387534D01*
X184828456Y-108365968D01*
X184855736Y-108339552D01*
X184875990Y-108311331D01*
X184892468Y-108276611D01*
X184902106Y-108238948D01*
X184904932Y-108202154D01*
X184902034Y-108164834D01*
X184892152Y-108126964D01*
X184875257Y-108092428D01*
X184851976Y-108062047D01*
X184822938Y-108036645D01*
X184791543Y-108017873D01*
X184755890Y-108003769D01*
X184716481Y-107994889D01*
X184677801Y-107991363D01*
X184664231Y-107991128D01*
X184359050Y-107991128D01*
X184329924Y-108002119D01*
X184318750Y-108031062D01*
G37*
G36*
X184652920Y-106864696D02*
G01*
X184691342Y-106871702D01*
X184727658Y-106883380D01*
X184761867Y-106899729D01*
X184789537Y-106917286D01*
X184817876Y-106940508D01*
X184845570Y-106970655D01*
X184866464Y-107001029D01*
X184883294Y-107034059D01*
X184895315Y-107069218D01*
X184902528Y-107106507D01*
X184904932Y-107145926D01*
X184904454Y-107163308D01*
X184899884Y-107200932D01*
X184890473Y-107236499D01*
X184874341Y-107273604D01*
X184870439Y-107280660D01*
X184848590Y-107313300D01*
X184822840Y-107341539D01*
X184793191Y-107365378D01*
X185109180Y-107365378D01*
X185139772Y-107376369D01*
X185151129Y-107405312D01*
X185139955Y-107435170D01*
X185109913Y-107446161D01*
X184610009Y-107446161D01*
X184569720Y-107443288D01*
X184531470Y-107435766D01*
X184495257Y-107423596D01*
X184461082Y-107406777D01*
X184429769Y-107385929D01*
X184401960Y-107361669D01*
X184377654Y-107333997D01*
X184356851Y-107302913D01*
X184340182Y-107269024D01*
X184328275Y-107233121D01*
X184321131Y-107195202D01*
X184318750Y-107155268D01*
X184392938Y-107155268D01*
X184395747Y-107191579D01*
X184405324Y-107228918D01*
X184421698Y-107263529D01*
X184441773Y-107291600D01*
X184468442Y-107317768D01*
X184499917Y-107339000D01*
X184535522Y-107354539D01*
X184574330Y-107363629D01*
X184612390Y-107366294D01*
X184649907Y-107363629D01*
X184688448Y-107354539D01*
X184724132Y-107339000D01*
X184753258Y-107319902D01*
X184780380Y-107294183D01*
X184802350Y-107263529D01*
X184817323Y-107232177D01*
X184827389Y-107195086D01*
X184830744Y-107155268D01*
X184827971Y-107118492D01*
X184818516Y-107080890D01*
X184802350Y-107046275D01*
X184782590Y-107018053D01*
X184755937Y-106991638D01*
X184724132Y-106970071D01*
X184688448Y-106954219D01*
X184649907Y-106944946D01*
X184612390Y-106942227D01*
X184574330Y-106944946D01*
X184535522Y-106954219D01*
X184499917Y-106970071D01*
X184471105Y-106989477D01*
X184443999Y-107015452D01*
X184421698Y-107046275D01*
X184405324Y-107080890D01*
X184395747Y-107118492D01*
X184392938Y-107155268D01*
X184318750Y-107155268D01*
X184321142Y-107114430D01*
X184328321Y-107075813D01*
X184340285Y-107039417D01*
X184357035Y-107005242D01*
X184378009Y-106973918D01*
X184402464Y-106946074D01*
X184430399Y-106921711D01*
X184461815Y-106900828D01*
X184496093Y-106883998D01*
X184532615Y-106871977D01*
X184571381Y-106864764D01*
X184612390Y-106862360D01*
X184652920Y-106864696D01*
G37*
G36*
X184318750Y-106652433D02*
G01*
X184330473Y-106681926D01*
X184360332Y-106693466D01*
X185109547Y-106693466D01*
X185139405Y-106681926D01*
X185151129Y-106652433D01*
X185139405Y-106623124D01*
X185109364Y-106611584D01*
X184775972Y-106611584D01*
X184775972Y-106099040D01*
X185109364Y-106099040D01*
X185139405Y-106087500D01*
X185151129Y-106058190D01*
X185139405Y-106028698D01*
X185109547Y-106017158D01*
X184360332Y-106017158D01*
X184330473Y-106028698D01*
X184318750Y-106058190D01*
X184330473Y-106087500D01*
X184360149Y-106099040D01*
X184701600Y-106099040D01*
X184701600Y-106611584D01*
X184360149Y-106611584D01*
X184330473Y-106623124D01*
X184318750Y-106652433D01*
G37*
G36*
X183058750Y-115654003D02*
G01*
X183070473Y-115683496D01*
X183100332Y-115695036D01*
X183849547Y-115695036D01*
X183879405Y-115683496D01*
X183891129Y-115654003D01*
X183891129Y-115161610D01*
X183879955Y-115132667D01*
X183850829Y-115120577D01*
X183823169Y-115132667D01*
X183811628Y-115161610D01*
X183811628Y-115613154D01*
X183515972Y-115613154D01*
X183515972Y-115284525D01*
X183504248Y-115255033D01*
X183475489Y-115243492D01*
X183446912Y-115255033D01*
X183435189Y-115284525D01*
X183435189Y-115613154D01*
X183138251Y-115613154D01*
X183138251Y-115161610D01*
X183126527Y-115132667D01*
X183099050Y-115120577D01*
X183069924Y-115132667D01*
X183058750Y-115161610D01*
X183058750Y-115654003D01*
G37*
G36*
X183350192Y-114425950D02*
G01*
X183355588Y-114426054D01*
X183392255Y-114428767D01*
X183431800Y-114436117D01*
X183468826Y-114448001D01*
X183503333Y-114464419D01*
X183531102Y-114482055D01*
X183559403Y-114505559D01*
X183586864Y-114536272D01*
X183607380Y-114567367D01*
X183623809Y-114601370D01*
X183635544Y-114637800D01*
X183642585Y-114676658D01*
X183644932Y-114717943D01*
X183642597Y-114758792D01*
X183635590Y-114797444D01*
X183623912Y-114833897D01*
X183607563Y-114868152D01*
X183587070Y-114899442D01*
X183562958Y-114927182D01*
X183535229Y-114951374D01*
X183503882Y-114972016D01*
X183499718Y-114974338D01*
X183465002Y-114990258D01*
X183427790Y-115001460D01*
X183388083Y-115007946D01*
X183351291Y-115009752D01*
X183309881Y-115007496D01*
X183270829Y-115000730D01*
X183234135Y-114989453D01*
X183199800Y-114973665D01*
X183179784Y-114961655D01*
X183147317Y-114936634D01*
X183119428Y-114907237D01*
X183096119Y-114873464D01*
X183079770Y-114840228D01*
X183068092Y-114804634D01*
X183061085Y-114766681D01*
X183058750Y-114726369D01*
X183059060Y-114717943D01*
X183132938Y-114717943D01*
X183135657Y-114755316D01*
X183144930Y-114793369D01*
X183160782Y-114828218D01*
X183180277Y-114856290D01*
X183206557Y-114882457D01*
X183237902Y-114903689D01*
X183273615Y-114919229D01*
X183312748Y-114928318D01*
X183351291Y-114930983D01*
X183389967Y-114928318D01*
X183429287Y-114919229D01*
X183465231Y-114903689D01*
X183494225Y-114884591D01*
X183521160Y-114858872D01*
X183542900Y-114828218D01*
X183558752Y-114793369D01*
X183568024Y-114755316D01*
X183570744Y-114717943D01*
X183568024Y-114680623D01*
X183558752Y-114642753D01*
X183542900Y-114608217D01*
X183523351Y-114580338D01*
X183496888Y-114554301D01*
X183465231Y-114533112D01*
X183462103Y-114531433D01*
X183425852Y-114516479D01*
X183389967Y-114508483D01*
X183351291Y-114505818D01*
X183312748Y-114508483D01*
X183273615Y-114517572D01*
X183237902Y-114533112D01*
X183209197Y-114552174D01*
X183182457Y-114577771D01*
X183160782Y-114608217D01*
X183144930Y-114642753D01*
X183135657Y-114680623D01*
X183132938Y-114717943D01*
X183059060Y-114717943D01*
X183059581Y-114703759D01*
X183065271Y-114665090D01*
X183076351Y-114629030D01*
X183092821Y-114595577D01*
X183101749Y-114581672D01*
X183127648Y-114550267D01*
X183155332Y-114526100D01*
X183187160Y-114505818D01*
X183139350Y-114505818D01*
X183126523Y-114506062D01*
X183089916Y-114509733D01*
X183052539Y-114518978D01*
X183018633Y-114533661D01*
X182988715Y-114552960D01*
X182961013Y-114578569D01*
X182938765Y-114608766D01*
X182923792Y-114639431D01*
X182913727Y-114675766D01*
X182910372Y-114714829D01*
X182912626Y-114752728D01*
X182920312Y-114790987D01*
X182933453Y-114825654D01*
X182944261Y-114845667D01*
X182966092Y-114876141D01*
X182994453Y-114903689D01*
X183010206Y-114930068D01*
X183003795Y-114960476D01*
X182979798Y-114975680D01*
X182952321Y-114965788D01*
X182936094Y-114952429D01*
X182909635Y-114925677D01*
X182886712Y-114895448D01*
X182867324Y-114861741D01*
X182855119Y-114833216D01*
X182843831Y-114793734D01*
X182837958Y-114755987D01*
X182836000Y-114715744D01*
X182838473Y-114674975D01*
X182845892Y-114636564D01*
X182858257Y-114600511D01*
X182875567Y-114566817D01*
X182897034Y-114535928D01*
X182922050Y-114508474D01*
X182950615Y-114484454D01*
X182982729Y-114463869D01*
X183017705Y-114447280D01*
X183054857Y-114435430D01*
X183094184Y-114428320D01*
X183135686Y-114425950D01*
X183350192Y-114425950D01*
G37*
G36*
X183058750Y-114008295D02*
G01*
X183061085Y-114049580D01*
X183068092Y-114088437D01*
X183079770Y-114124868D01*
X183096119Y-114158871D01*
X183116612Y-114189897D01*
X183143992Y-114220587D01*
X183172173Y-114244120D01*
X183199800Y-114261819D01*
X183234135Y-114278088D01*
X183270829Y-114289709D01*
X183309881Y-114296681D01*
X183351291Y-114299005D01*
X183388057Y-114297322D01*
X183427670Y-114291277D01*
X183464718Y-114280836D01*
X183499202Y-114265998D01*
X183503333Y-114263834D01*
X183538121Y-114241935D01*
X183568505Y-114215805D01*
X183594484Y-114185443D01*
X183607014Y-114166748D01*
X183625343Y-114130428D01*
X183637674Y-114091123D01*
X183643599Y-114053679D01*
X183644932Y-114024049D01*
X183642688Y-113985397D01*
X183635956Y-113949310D01*
X183623018Y-113911778D01*
X183609029Y-113884830D01*
X183586645Y-113853575D01*
X183559885Y-113826581D01*
X183528749Y-113803846D01*
X183509561Y-113793056D01*
X183472415Y-113777294D01*
X183437061Y-113767614D01*
X183399508Y-113762010D01*
X183364847Y-113760450D01*
X183338285Y-113770891D01*
X183328394Y-113798185D01*
X183328394Y-114244417D01*
X183396171Y-114244417D01*
X183396171Y-113789759D01*
X183363381Y-113835005D01*
X183403091Y-113837106D01*
X183439857Y-113844922D01*
X183470726Y-113856987D01*
X183503398Y-113877054D01*
X183530249Y-113902633D01*
X183544915Y-113922749D01*
X183561324Y-113956915D01*
X183570160Y-113995667D01*
X183571843Y-114024049D01*
X183568488Y-114063394D01*
X183558422Y-114099320D01*
X183543449Y-114129012D01*
X183519141Y-114159950D01*
X183488804Y-114185169D01*
X183465231Y-114198804D01*
X183429287Y-114212884D01*
X183389967Y-114221119D01*
X183351291Y-114223534D01*
X183312669Y-114220815D01*
X183276945Y-114212658D01*
X183240996Y-114197403D01*
X183237902Y-114195690D01*
X183206492Y-114174145D01*
X183180018Y-114147795D01*
X183160232Y-114119670D01*
X183144067Y-114084691D01*
X183134612Y-114046248D01*
X183131839Y-114008295D01*
X183135182Y-113970285D01*
X183144389Y-113934484D01*
X183145211Y-113932091D01*
X183160324Y-113897607D01*
X183178917Y-113870725D01*
X183188626Y-113844530D01*
X183180199Y-113819251D01*
X183152722Y-113805146D01*
X183127443Y-113817053D01*
X183104994Y-113848415D01*
X183087224Y-113882839D01*
X183078167Y-113905347D01*
X183067112Y-113941644D01*
X183060285Y-113980155D01*
X183058750Y-114008295D01*
G37*
G36*
X183422000Y-113591006D02*
G01*
X183460650Y-113586341D01*
X183496689Y-113576237D01*
X183530116Y-113560695D01*
X183536489Y-113556934D01*
X183568693Y-113533317D01*
X183595789Y-113505284D01*
X183615990Y-113475968D01*
X183632468Y-113440392D01*
X183642106Y-113402176D01*
X183644932Y-113365143D01*
X183642303Y-113327195D01*
X183631194Y-113290771D01*
X183600524Y-113269431D01*
X183591077Y-113270621D01*
X183569828Y-113284909D01*
X183565614Y-113309089D01*
X183566714Y-113340963D01*
X183567747Y-113379852D01*
X183562899Y-113418771D01*
X183555173Y-113445560D01*
X183538578Y-113479506D01*
X183514215Y-113509098D01*
X183503882Y-113517916D01*
X183471349Y-113536199D01*
X183433698Y-113544243D01*
X183422000Y-113544661D01*
X183422000Y-113591006D01*
G37*
G36*
X183058750Y-113584595D02*
G01*
X183069374Y-113614087D01*
X183099416Y-113624528D01*
X183604266Y-113624528D01*
X183634125Y-113614087D01*
X183644932Y-113584595D01*
X183634125Y-113555286D01*
X183604266Y-113544661D01*
X183099416Y-113544661D01*
X183069374Y-113555286D01*
X183058750Y-113584595D01*
G37*
G36*
X183058750Y-112943274D02*
G01*
X183060807Y-112981882D01*
X183066978Y-113020311D01*
X183077264Y-113058561D01*
X183079815Y-113066189D01*
X183095153Y-113101963D01*
X183114606Y-113133265D01*
X183140756Y-113162532D01*
X183143380Y-113164924D01*
X183171773Y-113174450D01*
X183199067Y-113158513D01*
X183207310Y-113128105D01*
X183193755Y-113101910D01*
X183169256Y-113074669D01*
X183150714Y-113040343D01*
X183148692Y-113035232D01*
X183138492Y-112999995D01*
X183133492Y-112961856D01*
X183132938Y-112943274D01*
X183135054Y-112902990D01*
X183142367Y-112866218D01*
X183159683Y-112830983D01*
X183187302Y-112805892D01*
X183224346Y-112795263D01*
X183260912Y-112805344D01*
X183286994Y-112830983D01*
X183303970Y-112864265D01*
X183315716Y-112901918D01*
X183323541Y-112938531D01*
X183325280Y-112948586D01*
X183332482Y-112986370D01*
X183343114Y-113025420D01*
X183358207Y-113063416D01*
X183378935Y-113097705D01*
X183384081Y-113104108D01*
X183411952Y-113130093D01*
X183446164Y-113147561D01*
X183484098Y-113153384D01*
X183521828Y-113149391D01*
X183557005Y-113136054D01*
X183573491Y-113124991D01*
X183599551Y-113098807D01*
X183619686Y-113066396D01*
X183626980Y-113049337D01*
X183637920Y-113012577D01*
X183643810Y-112973190D01*
X183644932Y-112945472D01*
X183643005Y-112907441D01*
X183636343Y-112868787D01*
X183624923Y-112833925D01*
X183620569Y-112824206D01*
X183601828Y-112791489D01*
X183576841Y-112761033D01*
X183554990Y-112741774D01*
X183526597Y-112733347D01*
X183502417Y-112750200D01*
X183497654Y-112778960D01*
X183513041Y-112806803D01*
X183539374Y-112835151D01*
X183557554Y-112867803D01*
X183568271Y-112905035D01*
X183571787Y-112941895D01*
X183571843Y-112947487D01*
X183569050Y-112984452D01*
X183558551Y-113021161D01*
X183548212Y-113039994D01*
X183521559Y-113065960D01*
X183488861Y-113074616D01*
X183452491Y-113065357D01*
X183446729Y-113061610D01*
X183423100Y-113032903D01*
X183415039Y-113016364D01*
X183403256Y-112980675D01*
X183395163Y-112944010D01*
X183392141Y-112926605D01*
X183385066Y-112889293D01*
X183375299Y-112852271D01*
X183362205Y-112817287D01*
X183354772Y-112802224D01*
X183333288Y-112769368D01*
X183307042Y-112743723D01*
X183296886Y-112737011D01*
X183262311Y-112722448D01*
X183224896Y-112717594D01*
X183186705Y-112722370D01*
X183152506Y-112736700D01*
X183138067Y-112746536D01*
X183110514Y-112773562D01*
X183089803Y-112805002D01*
X183079815Y-112826221D01*
X183067822Y-112863028D01*
X183061239Y-112899607D01*
X183058770Y-112939156D01*
X183058750Y-112943274D01*
G37*
G36*
X183058750Y-112353428D02*
G01*
X183061888Y-112390284D01*
X183072471Y-112427232D01*
X183085311Y-112452712D01*
X183108126Y-112482834D01*
X183136453Y-112507804D01*
X183158401Y-112521589D01*
X183195014Y-112536882D01*
X183231835Y-112544700D01*
X183264280Y-112546685D01*
X183785067Y-112546685D01*
X183814925Y-112535694D01*
X183826649Y-112506751D01*
X183814925Y-112477442D01*
X183785067Y-112465901D01*
X183264097Y-112465901D01*
X183226075Y-112461471D01*
X183191164Y-112446671D01*
X183175070Y-112434394D01*
X183151403Y-112403389D01*
X183140990Y-112365512D01*
X183140449Y-112353428D01*
X183140449Y-112325218D01*
X183128725Y-112297923D01*
X183099050Y-112287299D01*
X183069924Y-112299938D01*
X183058750Y-112331446D01*
X183058750Y-112353428D01*
G37*
G36*
X183550227Y-112615012D02*
G01*
X183560302Y-112641207D01*
X183585398Y-112651648D01*
X183611410Y-112641207D01*
X183621485Y-112615012D01*
X183621485Y-112347199D01*
X183611410Y-112321004D01*
X183585398Y-112310380D01*
X183560302Y-112321004D01*
X183550227Y-112347199D01*
X183550227Y-112615012D01*
G37*
G36*
X183422000Y-112122618D02*
G01*
X183460650Y-112117953D01*
X183496689Y-112107849D01*
X183530116Y-112092307D01*
X183536489Y-112088546D01*
X183568693Y-112064929D01*
X183595789Y-112036896D01*
X183615990Y-112007580D01*
X183632468Y-111972004D01*
X183642106Y-111933788D01*
X183644932Y-111896755D01*
X183642303Y-111858807D01*
X183631194Y-111822383D01*
X183600524Y-111801043D01*
X183591077Y-111802233D01*
X183569828Y-111816521D01*
X183565614Y-111840701D01*
X183566714Y-111872575D01*
X183567747Y-111911464D01*
X183562899Y-111950383D01*
X183555173Y-111977172D01*
X183538578Y-112011118D01*
X183514215Y-112040710D01*
X183503882Y-112049528D01*
X183471349Y-112067811D01*
X183433698Y-112075855D01*
X183422000Y-112076273D01*
X183422000Y-112122618D01*
G37*
G36*
X183058750Y-112116207D02*
G01*
X183069374Y-112145699D01*
X183099416Y-112156140D01*
X183604266Y-112156140D01*
X183634125Y-112145699D01*
X183644932Y-112116207D01*
X183634125Y-112086898D01*
X183604266Y-112076273D01*
X183099416Y-112076273D01*
X183069374Y-112086898D01*
X183058750Y-112116207D01*
G37*
G36*
X183047026Y-111792890D02*
G01*
X183058877Y-111829011D01*
X183064978Y-111835938D01*
X183097786Y-111852856D01*
X183108575Y-111853707D01*
X183144648Y-111842526D01*
X183152905Y-111835389D01*
X183170403Y-111801752D01*
X183171040Y-111792890D01*
X183159636Y-111757976D01*
X183152356Y-111749842D01*
X183119310Y-111732750D01*
X183108575Y-111731891D01*
X183072734Y-111743379D01*
X183065527Y-111749293D01*
X183047911Y-111781851D01*
X183047026Y-111792890D01*
G37*
G36*
X183648393Y-110833700D02*
G01*
X183686506Y-110838490D01*
X183722099Y-110848351D01*
X183758688Y-110865256D01*
X183765602Y-110869333D01*
X183797380Y-110892510D01*
X183824507Y-110920338D01*
X183846982Y-110952817D01*
X183854581Y-110966985D01*
X183869147Y-111004559D01*
X183876841Y-111041006D01*
X183879405Y-111079945D01*
X183879120Y-111093006D01*
X183874846Y-111130641D01*
X183864080Y-111169739D01*
X183846982Y-111205975D01*
X183842859Y-111212821D01*
X183819453Y-111244306D01*
X183791396Y-111271210D01*
X183758688Y-111293536D01*
X183744426Y-111301049D01*
X183706591Y-111315450D01*
X183669878Y-111323057D01*
X183630644Y-111325593D01*
X183613145Y-111325092D01*
X183575403Y-111320302D01*
X183539922Y-111310441D01*
X183503149Y-111293536D01*
X183496168Y-111289437D01*
X183464097Y-111266196D01*
X183436749Y-111238375D01*
X183414123Y-111205975D01*
X183406567Y-111191824D01*
X183392084Y-111154443D01*
X183384433Y-111118354D01*
X183381883Y-111079945D01*
X183381914Y-111078846D01*
X183457354Y-111078846D01*
X183457908Y-111093713D01*
X183464541Y-111130064D01*
X183480068Y-111165491D01*
X183486002Y-111174811D01*
X183510781Y-111203462D01*
X183541801Y-111225942D01*
X183556868Y-111233412D01*
X183592033Y-111244296D01*
X183630644Y-111247923D01*
X183645951Y-111247387D01*
X183683278Y-111240968D01*
X183719487Y-111225942D01*
X183729022Y-111220148D01*
X183758198Y-111195905D01*
X183780853Y-111165491D01*
X183787239Y-111153281D01*
X183799360Y-111116476D01*
X183803019Y-111078846D01*
X183802477Y-111063993D01*
X183796005Y-111027803D01*
X183780853Y-110992751D01*
X183775046Y-110983520D01*
X183750528Y-110955135D01*
X183719487Y-110932850D01*
X183704476Y-110925380D01*
X183669344Y-110914496D01*
X183630644Y-110910868D01*
X183615386Y-110911405D01*
X183578100Y-110917824D01*
X183541801Y-110932850D01*
X183532301Y-110938595D01*
X183503064Y-110962622D01*
X183480068Y-110992751D01*
X183473525Y-111004802D01*
X183461103Y-111041307D01*
X183457354Y-111078846D01*
X183381914Y-111078846D01*
X183382387Y-111062331D01*
X183387184Y-111024650D01*
X183108941Y-111195350D01*
X183080548Y-111201212D01*
X183056551Y-111186924D01*
X183047026Y-111159630D01*
X183047567Y-111152649D01*
X183069191Y-111122993D01*
X183495456Y-110863607D01*
X183487408Y-110875862D01*
X183503149Y-110865256D01*
X183517523Y-110857743D01*
X183555412Y-110843342D01*
X183591898Y-110835735D01*
X183630644Y-110833199D01*
X183648393Y-110833700D01*
G37*
G36*
X182388393Y-115260846D02*
G01*
X182426506Y-115265636D01*
X182462099Y-115275497D01*
X182498688Y-115292402D01*
X182505602Y-115296479D01*
X182537380Y-115319656D01*
X182564507Y-115347484D01*
X182586982Y-115379963D01*
X182594581Y-115394131D01*
X182609147Y-115431705D01*
X182616841Y-115468152D01*
X182619405Y-115507091D01*
X182619120Y-115520152D01*
X182614846Y-115557787D01*
X182604080Y-115596885D01*
X182586982Y-115633121D01*
X182582859Y-115639967D01*
X182559453Y-115671451D01*
X182531396Y-115698356D01*
X182498688Y-115720682D01*
X182484426Y-115728195D01*
X182446591Y-115742596D01*
X182409878Y-115750203D01*
X182370644Y-115752739D01*
X182353145Y-115752238D01*
X182315403Y-115747448D01*
X182279922Y-115737587D01*
X182243149Y-115720682D01*
X182236168Y-115716583D01*
X182204097Y-115693342D01*
X182176749Y-115665521D01*
X182154123Y-115633121D01*
X182146567Y-115618970D01*
X182132084Y-115581589D01*
X182124433Y-115545499D01*
X182121883Y-115507091D01*
X182121914Y-115505992D01*
X182197354Y-115505992D01*
X182197908Y-115520859D01*
X182204541Y-115557209D01*
X182220068Y-115592637D01*
X182226002Y-115601957D01*
X182250781Y-115630608D01*
X182281801Y-115653087D01*
X182296868Y-115660558D01*
X182332033Y-115671441D01*
X182370644Y-115675069D01*
X182385951Y-115674533D01*
X182423278Y-115668114D01*
X182459487Y-115653087D01*
X182469022Y-115647294D01*
X182498198Y-115623051D01*
X182520853Y-115592637D01*
X182527239Y-115580427D01*
X182539360Y-115543622D01*
X182543019Y-115505992D01*
X182542477Y-115491139D01*
X182536005Y-115454949D01*
X182520853Y-115419897D01*
X182515046Y-115410666D01*
X182490528Y-115382281D01*
X182459487Y-115359996D01*
X182444476Y-115352526D01*
X182409344Y-115341642D01*
X182370644Y-115338014D01*
X182355386Y-115338551D01*
X182318100Y-115344969D01*
X182281801Y-115359996D01*
X182272301Y-115365740D01*
X182243064Y-115389768D01*
X182220068Y-115419897D01*
X182213525Y-115431948D01*
X182201103Y-115468453D01*
X182197354Y-115505992D01*
X182121914Y-115505992D01*
X182122387Y-115489477D01*
X182127184Y-115451796D01*
X181848941Y-115622496D01*
X181820548Y-115628358D01*
X181796551Y-115614070D01*
X181787026Y-115586775D01*
X181787567Y-115579795D01*
X181809191Y-115550139D01*
X182235456Y-115290753D01*
X182227408Y-115303008D01*
X182243149Y-115292402D01*
X182257523Y-115284888D01*
X182295412Y-115270488D01*
X182331898Y-115262881D01*
X182370644Y-115260345D01*
X182388393Y-115260846D01*
G37*
G36*
X181798750Y-114877494D02*
G01*
X181801285Y-114917699D01*
X181808892Y-114955470D01*
X181821571Y-114990806D01*
X181830806Y-115009385D01*
X181850708Y-115040210D01*
X181877205Y-115069906D01*
X181908317Y-115094807D01*
X181918551Y-115101343D01*
X181954804Y-115119021D01*
X181993956Y-115130151D01*
X182031670Y-115134571D01*
X182044763Y-115134865D01*
X182075171Y-115124424D01*
X182087811Y-115096031D01*
X182075171Y-115067637D01*
X182044763Y-115057196D01*
X182007252Y-115053387D01*
X181970507Y-115040764D01*
X181958301Y-115034115D01*
X181927817Y-115010498D01*
X181903364Y-114980360D01*
X181897485Y-114970551D01*
X181882896Y-114936207D01*
X181875745Y-114898961D01*
X181874953Y-114880792D01*
X181877804Y-114842083D01*
X181887826Y-114803873D01*
X181905065Y-114771314D01*
X181920566Y-114752747D01*
X181951685Y-114728307D01*
X181988028Y-114712919D01*
X182025203Y-114706809D01*
X182038535Y-114706402D01*
X182075174Y-114709519D01*
X182110739Y-114719931D01*
X182128111Y-114728567D01*
X182158385Y-114750852D01*
X182182207Y-114779237D01*
X182187828Y-114788468D01*
X182202605Y-114823275D01*
X182209106Y-114861658D01*
X182209444Y-114873281D01*
X182220984Y-114901674D01*
X182250843Y-114913215D01*
X182279419Y-114901674D01*
X182291143Y-114873281D01*
X182296313Y-114835958D01*
X182309461Y-114805687D01*
X182332479Y-114776206D01*
X182358371Y-114755861D01*
X182392437Y-114740996D01*
X182425416Y-114736810D01*
X182464579Y-114742143D01*
X182498540Y-114758140D01*
X182518289Y-114774729D01*
X182541061Y-114806586D01*
X182552702Y-114842033D01*
X182555658Y-114875479D01*
X182552327Y-114912285D01*
X182541366Y-114947672D01*
X182538256Y-114954248D01*
X182518106Y-114985068D01*
X182492094Y-115008286D01*
X182457189Y-115023987D01*
X182426515Y-115027704D01*
X182396656Y-115038695D01*
X182384566Y-115066538D01*
X182396656Y-115094931D01*
X182425599Y-115105373D01*
X182464201Y-115101845D01*
X182500162Y-115091260D01*
X182530562Y-115075514D01*
X182560421Y-115052432D01*
X182585518Y-115024242D01*
X182604201Y-114994181D01*
X182619532Y-114956931D01*
X182627947Y-114919837D01*
X182631103Y-114879666D01*
X182631129Y-114875479D01*
X182628499Y-114838553D01*
X182619532Y-114800703D01*
X182604201Y-114765753D01*
X182583412Y-114734509D01*
X182557817Y-114708026D01*
X182530379Y-114688084D01*
X182496840Y-114671606D01*
X182460704Y-114661968D01*
X182425599Y-114659141D01*
X182388071Y-114664053D01*
X182355990Y-114676543D01*
X182323978Y-114696556D01*
X182295356Y-114722156D01*
X182271588Y-114751831D01*
X182253774Y-114784071D01*
X182240952Y-114749397D01*
X182222422Y-114716360D01*
X182205414Y-114694862D01*
X182177107Y-114668983D01*
X182145173Y-114649392D01*
X182129210Y-114642472D01*
X182093183Y-114631560D01*
X182055946Y-114626211D01*
X182038352Y-114625619D01*
X182000502Y-114628242D01*
X181961268Y-114637308D01*
X181925004Y-114652849D01*
X181914704Y-114658775D01*
X181883184Y-114681798D01*
X181856171Y-114709651D01*
X181833667Y-114742334D01*
X181829707Y-114749450D01*
X181814742Y-114782907D01*
X181804675Y-114818364D01*
X181799505Y-114855821D01*
X181798750Y-114877494D01*
G37*
G36*
X182239096Y-114031814D02*
G01*
X182277118Y-114033368D01*
X182320560Y-114037099D01*
X182361620Y-114042865D01*
X182400296Y-114050666D01*
X182436590Y-114060502D01*
X182448122Y-114064200D01*
X182485823Y-114078766D01*
X182519388Y-114095856D01*
X182552681Y-114118479D01*
X182580571Y-114144399D01*
X182597753Y-114165939D01*
X182616860Y-114201485D01*
X182627969Y-114240913D01*
X182631129Y-114279221D01*
X182629908Y-114303009D01*
X182621557Y-114343100D01*
X182605295Y-114379684D01*
X182581120Y-114412761D01*
X182574699Y-114419595D01*
X182545607Y-114444857D01*
X182511066Y-114466799D01*
X182476372Y-114483275D01*
X182437506Y-114497208D01*
X182413600Y-114503949D01*
X182375682Y-114512374D01*
X182335290Y-114518778D01*
X182292425Y-114523159D01*
X182254816Y-114525266D01*
X182215489Y-114525968D01*
X182183380Y-114525518D01*
X182144903Y-114523693D01*
X182108269Y-114520463D01*
X182066739Y-114514734D01*
X182027863Y-114506982D01*
X181991640Y-114497208D01*
X181980199Y-114493487D01*
X181942790Y-114478827D01*
X181909483Y-114461625D01*
X181876442Y-114438853D01*
X181848758Y-114412761D01*
X181831763Y-114391099D01*
X181812863Y-114355684D01*
X181801875Y-114316762D01*
X181798750Y-114279221D01*
X181881548Y-114279221D01*
X181884238Y-114305852D01*
X181898363Y-114341246D01*
X181924596Y-114371179D01*
X181938826Y-114382075D01*
X181971956Y-114401238D01*
X182007096Y-114415486D01*
X182042565Y-114425767D01*
X182056814Y-114429041D01*
X182096779Y-114436196D01*
X182134097Y-114440579D01*
X182173605Y-114443209D01*
X182215306Y-114444085D01*
X182227202Y-114444014D01*
X182267587Y-114442636D01*
X182306027Y-114439506D01*
X182347575Y-114433781D01*
X182386581Y-114425767D01*
X182395888Y-114423407D01*
X182434636Y-114411052D01*
X182471673Y-114393993D01*
X182505100Y-114371179D01*
X182523933Y-114351830D01*
X182542094Y-114318256D01*
X182548148Y-114279221D01*
X182544699Y-114249478D01*
X182529372Y-114214419D01*
X182504550Y-114186898D01*
X182490161Y-114175843D01*
X182456795Y-114156444D01*
X182421534Y-114142075D01*
X182386031Y-114131760D01*
X182371800Y-114128486D01*
X182332055Y-114121331D01*
X182295137Y-114116948D01*
X182256221Y-114114318D01*
X182215306Y-114113442D01*
X182197357Y-114113599D01*
X182156931Y-114115195D01*
X182118538Y-114118508D01*
X182082178Y-114123539D01*
X182043114Y-114131393D01*
X182029249Y-114134892D01*
X181991071Y-114147399D01*
X181954667Y-114164830D01*
X181924596Y-114185982D01*
X181903786Y-114208169D01*
X181886635Y-114242666D01*
X181881548Y-114279221D01*
X181798750Y-114279221D01*
X181800520Y-114250203D01*
X181808392Y-114214196D01*
X181824773Y-114177356D01*
X181849125Y-114144399D01*
X181855610Y-114137610D01*
X181884874Y-114112514D01*
X181919449Y-114090716D01*
X181954061Y-114074347D01*
X181992739Y-114060502D01*
X182016576Y-114053718D01*
X182054477Y-114045239D01*
X182094955Y-114038795D01*
X182138009Y-114034386D01*
X182175854Y-114032266D01*
X182215489Y-114031559D01*
X182239096Y-114031814D01*
G37*
G36*
X181798750Y-113645228D02*
G01*
X181800971Y-113682071D01*
X181808779Y-113721165D01*
X181822210Y-113757766D01*
X181834287Y-113780783D01*
X181856291Y-113812432D01*
X181882323Y-113840198D01*
X181912383Y-113864081D01*
X181930824Y-113875671D01*
X181966442Y-113892673D01*
X182004465Y-113904110D01*
X182044894Y-113909983D01*
X182068394Y-113910842D01*
X182098069Y-113899302D01*
X182109793Y-113871092D01*
X182098069Y-113841050D01*
X182068394Y-113828960D01*
X182030046Y-113825585D01*
X181994686Y-113815461D01*
X181972773Y-113804963D01*
X181941324Y-113782475D01*
X181915741Y-113754303D01*
X181905911Y-113739384D01*
X181890137Y-113703784D01*
X181882714Y-113667703D01*
X181881548Y-113645228D01*
X181884974Y-113607404D01*
X181896418Y-113569741D01*
X181905911Y-113550889D01*
X181928788Y-113519620D01*
X181957529Y-113494276D01*
X181972773Y-113484577D01*
X182009056Y-113468922D01*
X182045661Y-113461554D01*
X182068394Y-113460397D01*
X182106716Y-113463798D01*
X182141998Y-113473999D01*
X182163831Y-113484577D01*
X182195368Y-113507186D01*
X182220919Y-113535721D01*
X182230693Y-113550889D01*
X182246586Y-113586696D01*
X182254065Y-113622807D01*
X182255239Y-113645228D01*
X182255239Y-113828960D01*
X182267513Y-113858452D01*
X182296822Y-113869993D01*
X182589547Y-113869993D01*
X182618856Y-113858452D01*
X182631129Y-113828960D01*
X182631129Y-113460397D01*
X182618856Y-113431638D01*
X182589730Y-113419548D01*
X182560421Y-113431088D01*
X182548331Y-113460397D01*
X182548331Y-113789209D01*
X182338038Y-113789209D01*
X182338038Y-113645228D01*
X182335817Y-113607985D01*
X182328008Y-113568577D01*
X182314578Y-113531806D01*
X182302500Y-113508757D01*
X182280482Y-113477019D01*
X182254406Y-113449194D01*
X182224274Y-113425281D01*
X182205780Y-113413686D01*
X182170251Y-113396684D01*
X182132287Y-113385247D01*
X182091889Y-113379374D01*
X182068394Y-113378515D01*
X182031150Y-113380713D01*
X181991523Y-113388441D01*
X181954302Y-113401733D01*
X181930824Y-113413686D01*
X181898526Y-113435426D01*
X181870256Y-113461078D01*
X181846014Y-113490642D01*
X181834287Y-113508757D01*
X181817108Y-113543770D01*
X181805552Y-113581420D01*
X181799617Y-113621707D01*
X181798750Y-113645228D01*
G37*
G36*
X181798750Y-113150087D02*
G01*
X181810290Y-113178846D01*
X181840149Y-113190936D01*
X181851872Y-113188921D01*
X181866710Y-113182510D01*
X182548331Y-112869635D01*
X182548331Y-113230870D01*
X182560421Y-113260729D01*
X182589730Y-113272819D01*
X182618856Y-113260729D01*
X182631129Y-113230870D01*
X182631129Y-112803506D01*
X182618856Y-112775113D01*
X182589913Y-112763572D01*
X182578739Y-112765771D01*
X182567565Y-112769984D01*
X181822197Y-113113267D01*
X181799322Y-113142522D01*
X181798750Y-113150087D01*
G37*
G36*
X181863046Y-111800401D02*
G01*
X182144003Y-111972703D01*
X182158886Y-111938886D01*
X182165076Y-111927882D01*
X182186217Y-111897593D01*
X182214227Y-111868731D01*
X182246996Y-111844914D01*
X182264959Y-111835098D01*
X182299254Y-111821623D01*
X182336070Y-111813537D01*
X182375407Y-111810842D01*
X182398509Y-111811674D01*
X182437953Y-111817364D01*
X182474643Y-111828444D01*
X182508580Y-111844914D01*
X182526043Y-111856192D01*
X182554321Y-111879671D01*
X182578542Y-111907235D01*
X182598706Y-111938886D01*
X182609725Y-111961935D01*
X182621978Y-111998706D01*
X182629103Y-112038114D01*
X182631129Y-112075357D01*
X182631129Y-112271728D01*
X182619405Y-112301221D01*
X182589547Y-112312761D01*
X181840332Y-112312761D01*
X181810473Y-112301221D01*
X181798750Y-112271728D01*
X181810473Y-112242419D01*
X181840515Y-112230879D01*
X182127012Y-112230879D01*
X182127012Y-112075357D01*
X182206696Y-112075357D01*
X182206696Y-112230879D01*
X182551628Y-112230879D01*
X182551628Y-112075357D01*
X182550559Y-112052534D01*
X182543749Y-112016101D01*
X182529280Y-111980469D01*
X182520343Y-111965494D01*
X182496695Y-111937289D01*
X182467181Y-111914890D01*
X182449203Y-111905468D01*
X182412699Y-111894110D01*
X182375407Y-111890710D01*
X182360435Y-111891300D01*
X182323893Y-111898360D01*
X182288395Y-111914890D01*
X182276887Y-111922818D01*
X182248897Y-111949585D01*
X182228495Y-111980469D01*
X182220001Y-111999159D01*
X182209762Y-112036940D01*
X182206696Y-112075357D01*
X182127012Y-112075357D01*
X182127605Y-112057424D01*
X181820182Y-111868545D01*
X181804062Y-111854439D01*
X181798750Y-111832824D01*
X181798919Y-111827696D01*
X181817984Y-111794722D01*
X181826777Y-111791550D01*
X181863046Y-111800401D01*
G37*
G36*
X181798750Y-111414436D02*
G01*
X181801085Y-111455721D01*
X181808092Y-111494578D01*
X181819770Y-111531009D01*
X181836119Y-111565012D01*
X181856612Y-111596038D01*
X181883992Y-111626728D01*
X181912173Y-111650261D01*
X181939800Y-111667960D01*
X181974135Y-111684229D01*
X182010829Y-111695850D01*
X182049881Y-111702822D01*
X182091291Y-111705146D01*
X182128057Y-111703463D01*
X182167670Y-111697418D01*
X182204718Y-111686977D01*
X182239202Y-111672139D01*
X182243333Y-111669975D01*
X182278121Y-111648076D01*
X182308505Y-111621946D01*
X182334484Y-111591584D01*
X182347014Y-111572889D01*
X182365343Y-111536569D01*
X182377674Y-111497264D01*
X182383599Y-111459820D01*
X182384932Y-111430190D01*
X182382688Y-111391538D01*
X182375956Y-111355451D01*
X182363018Y-111317919D01*
X182349029Y-111290971D01*
X182326645Y-111259716D01*
X182299885Y-111232721D01*
X182268749Y-111209987D01*
X182249561Y-111199197D01*
X182212415Y-111183435D01*
X182177061Y-111173755D01*
X182139508Y-111168151D01*
X182104847Y-111166591D01*
X182078285Y-111177032D01*
X182068394Y-111204326D01*
X182068394Y-111650558D01*
X182136171Y-111650558D01*
X182136171Y-111195900D01*
X182103381Y-111241146D01*
X182143091Y-111243247D01*
X182179857Y-111251063D01*
X182210726Y-111263128D01*
X182243398Y-111283195D01*
X182270249Y-111308774D01*
X182284915Y-111328890D01*
X182301324Y-111363056D01*
X182310160Y-111401808D01*
X182311843Y-111430190D01*
X182308488Y-111469535D01*
X182298422Y-111505461D01*
X182283449Y-111535153D01*
X182259141Y-111566091D01*
X182228804Y-111591310D01*
X182205231Y-111604945D01*
X182169287Y-111619025D01*
X182129967Y-111627260D01*
X182091291Y-111629675D01*
X182052669Y-111626956D01*
X182016945Y-111618799D01*
X181980996Y-111603544D01*
X181977902Y-111601831D01*
X181946492Y-111580286D01*
X181920018Y-111553936D01*
X181900232Y-111525811D01*
X181884067Y-111490832D01*
X181874612Y-111452389D01*
X181871839Y-111414436D01*
X181875182Y-111376426D01*
X181884389Y-111340625D01*
X181885211Y-111338232D01*
X181900324Y-111303748D01*
X181918917Y-111276866D01*
X181928626Y-111250671D01*
X181920199Y-111225392D01*
X181892722Y-111211287D01*
X181867443Y-111223194D01*
X181844994Y-111254556D01*
X181827224Y-111288980D01*
X181818167Y-111311488D01*
X181807112Y-111347785D01*
X181800285Y-111386296D01*
X181798750Y-111414436D01*
G37*
G36*
X182090192Y-110497793D02*
G01*
X182095588Y-110497897D01*
X182132255Y-110500609D01*
X182171800Y-110507959D01*
X182208826Y-110519843D01*
X182243333Y-110536261D01*
X182271102Y-110553897D01*
X182299403Y-110577402D01*
X182326864Y-110608114D01*
X182347380Y-110639209D01*
X182363809Y-110673212D01*
X182375544Y-110709643D01*
X182382585Y-110748500D01*
X182384932Y-110789785D01*
X182382597Y-110830635D01*
X182375590Y-110869286D01*
X182363912Y-110905739D01*
X182347563Y-110939994D01*
X182327070Y-110971284D01*
X182302958Y-110999025D01*
X182275229Y-111023216D01*
X182243882Y-111043859D01*
X182239718Y-111046180D01*
X182205002Y-111062100D01*
X182167790Y-111073303D01*
X182128083Y-111079788D01*
X182091291Y-111081594D01*
X182049881Y-111079339D01*
X182010829Y-111072572D01*
X181974135Y-111061295D01*
X181939800Y-111045507D01*
X181919784Y-111033497D01*
X181887317Y-111008476D01*
X181859428Y-110979080D01*
X181836119Y-110945307D01*
X181819770Y-110912070D01*
X181808092Y-110876476D01*
X181801085Y-110838523D01*
X181798750Y-110798211D01*
X181799060Y-110789785D01*
X181872938Y-110789785D01*
X181875657Y-110827158D01*
X181884930Y-110865211D01*
X181900782Y-110900061D01*
X181920277Y-110928132D01*
X181946557Y-110954299D01*
X181977902Y-110975532D01*
X182013615Y-110991071D01*
X182052748Y-111000160D01*
X182091291Y-111002826D01*
X182129967Y-111000160D01*
X182169287Y-110991071D01*
X182205231Y-110975532D01*
X182234225Y-110956433D01*
X182261160Y-110930715D01*
X182282900Y-110900061D01*
X182298752Y-110865211D01*
X182308024Y-110827158D01*
X182310744Y-110789785D01*
X182308024Y-110752465D01*
X182298752Y-110714595D01*
X182282900Y-110680059D01*
X182263351Y-110652181D01*
X182236888Y-110626143D01*
X182205231Y-110604954D01*
X182202103Y-110603275D01*
X182165852Y-110588322D01*
X182129967Y-110580325D01*
X182091291Y-110577660D01*
X182052748Y-110580325D01*
X182013615Y-110589415D01*
X181977902Y-110604954D01*
X181949197Y-110624017D01*
X181922457Y-110649613D01*
X181900782Y-110680059D01*
X181884930Y-110714595D01*
X181875657Y-110752465D01*
X181872938Y-110789785D01*
X181799060Y-110789785D01*
X181799581Y-110775602D01*
X181805271Y-110736933D01*
X181816351Y-110700872D01*
X181832821Y-110667419D01*
X181841749Y-110653515D01*
X181867648Y-110622109D01*
X181895332Y-110597943D01*
X181927160Y-110577660D01*
X181879350Y-110577660D01*
X181866523Y-110577905D01*
X181829916Y-110581576D01*
X181792539Y-110590820D01*
X181758633Y-110605504D01*
X181728715Y-110624802D01*
X181701013Y-110650411D01*
X181678765Y-110680608D01*
X181663792Y-110711273D01*
X181653727Y-110747608D01*
X181650372Y-110786671D01*
X181652626Y-110824570D01*
X181660312Y-110862830D01*
X181673453Y-110897496D01*
X181684261Y-110917509D01*
X181706092Y-110947983D01*
X181734453Y-110975532D01*
X181750206Y-111001910D01*
X181743795Y-111032318D01*
X181719798Y-111047522D01*
X181692321Y-111037630D01*
X181676094Y-111024271D01*
X181649635Y-110997519D01*
X181626712Y-110967290D01*
X181607324Y-110933583D01*
X181595119Y-110905059D01*
X181583831Y-110865577D01*
X181577958Y-110827830D01*
X181576000Y-110787587D01*
X181578473Y-110746817D01*
X181585892Y-110708406D01*
X181598257Y-110672354D01*
X181615567Y-110638660D01*
X181637034Y-110607771D01*
X181662050Y-110580316D01*
X181690615Y-110556296D01*
X181722729Y-110535711D01*
X181757705Y-110519122D01*
X181794857Y-110507272D01*
X181834184Y-110500163D01*
X181875686Y-110497793D01*
X182090192Y-110497793D01*
G37*
G36*
X181798750Y-110080137D02*
G01*
X181801085Y-110121422D01*
X181808092Y-110160280D01*
X181819770Y-110196710D01*
X181836119Y-110230713D01*
X181856612Y-110261740D01*
X181883992Y-110292429D01*
X181912173Y-110315962D01*
X181939800Y-110333661D01*
X181974135Y-110349930D01*
X182010829Y-110361551D01*
X182049881Y-110368523D01*
X182091291Y-110370847D01*
X182128057Y-110369164D01*
X182167670Y-110363119D01*
X182204718Y-110352678D01*
X182239202Y-110337840D01*
X182243333Y-110335676D01*
X182278121Y-110313777D01*
X182308505Y-110287647D01*
X182334484Y-110257286D01*
X182347014Y-110238590D01*
X182365343Y-110202270D01*
X182377674Y-110162965D01*
X182383599Y-110125521D01*
X182384932Y-110095891D01*
X182382688Y-110057240D01*
X182375956Y-110021153D01*
X182363018Y-109983620D01*
X182349029Y-109956673D01*
X182326645Y-109925418D01*
X182299885Y-109898423D01*
X182268749Y-109875688D01*
X182249561Y-109864898D01*
X182212415Y-109849136D01*
X182177061Y-109839456D01*
X182139508Y-109833852D01*
X182104847Y-109832292D01*
X182078285Y-109842733D01*
X182068394Y-109870027D01*
X182068394Y-110316259D01*
X182136171Y-110316259D01*
X182136171Y-109861601D01*
X182103381Y-109906847D01*
X182143091Y-109908949D01*
X182179857Y-109916765D01*
X182210726Y-109928829D01*
X182243398Y-109948896D01*
X182270249Y-109974476D01*
X182284915Y-109994591D01*
X182301324Y-110028758D01*
X182310160Y-110067509D01*
X182311843Y-110095891D01*
X182308488Y-110135237D01*
X182298422Y-110171162D01*
X182283449Y-110200854D01*
X182259141Y-110231792D01*
X182228804Y-110257011D01*
X182205231Y-110270647D01*
X182169287Y-110284726D01*
X182129967Y-110292961D01*
X182091291Y-110295376D01*
X182052669Y-110292657D01*
X182016945Y-110284500D01*
X181980996Y-110269246D01*
X181977902Y-110267533D01*
X181946492Y-110245987D01*
X181920018Y-110219637D01*
X181900232Y-110191512D01*
X181884067Y-110156533D01*
X181874612Y-110118090D01*
X181871839Y-110080137D01*
X181875182Y-110042127D01*
X181884389Y-110006326D01*
X181885211Y-110003934D01*
X181900324Y-109969450D01*
X181918917Y-109942568D01*
X181928626Y-109916372D01*
X181920199Y-109891093D01*
X181892722Y-109876988D01*
X181867443Y-109888895D01*
X181844994Y-109920258D01*
X181827224Y-109954682D01*
X181818167Y-109977189D01*
X181807112Y-110013487D01*
X181800285Y-110051998D01*
X181798750Y-110080137D01*
G37*
G36*
X181798750Y-109203977D02*
G01*
X181810290Y-109233286D01*
X181839050Y-109244827D01*
X182114372Y-109244827D01*
X182153184Y-109247242D01*
X182190588Y-109255477D01*
X182222450Y-109269556D01*
X182253442Y-109292582D01*
X182277361Y-109321472D01*
X182286014Y-109336784D01*
X182299772Y-109373128D01*
X182306246Y-109409896D01*
X182307263Y-109432772D01*
X182304533Y-109469986D01*
X182295412Y-109507163D01*
X182287846Y-109525828D01*
X182268246Y-109558757D01*
X182241099Y-109586722D01*
X182234906Y-109591407D01*
X182201466Y-109608763D01*
X182164002Y-109615493D01*
X182158702Y-109615587D01*
X182158702Y-109673290D01*
X182197986Y-109668954D01*
X182234551Y-109658463D01*
X182268397Y-109641820D01*
X182274840Y-109637752D01*
X182304750Y-109614540D01*
X182330367Y-109587034D01*
X182351691Y-109555235D01*
X182355440Y-109548360D01*
X182370993Y-109512339D01*
X182380785Y-109473885D01*
X182384673Y-109437196D01*
X182384932Y-109424528D01*
X182382455Y-109383837D01*
X182375021Y-109345638D01*
X182362632Y-109309932D01*
X182353608Y-109291172D01*
X182333773Y-109260052D01*
X182306296Y-109230063D01*
X182276672Y-109207203D01*
X182262017Y-109198299D01*
X182225913Y-109181740D01*
X182190293Y-109171570D01*
X182151352Y-109165683D01*
X182114556Y-109164043D01*
X181839050Y-109164043D01*
X181810290Y-109175584D01*
X181798750Y-109203977D01*
G37*
G36*
X181798750Y-109655521D02*
G01*
X181809924Y-109685380D01*
X181839416Y-109696371D01*
X182343167Y-109696371D01*
X182373575Y-109685380D01*
X182384932Y-109655521D01*
X182373575Y-109626578D01*
X182343167Y-109615587D01*
X181839416Y-109615587D01*
X181809924Y-109626578D01*
X181798750Y-109655521D01*
G37*
G36*
X181798750Y-108785040D02*
G01*
X181800807Y-108823647D01*
X181806978Y-108862076D01*
X181817264Y-108900326D01*
X181819815Y-108907955D01*
X181835153Y-108943729D01*
X181854606Y-108975031D01*
X181880756Y-109004298D01*
X181883380Y-109006690D01*
X181911773Y-109016215D01*
X181939067Y-109000279D01*
X181947310Y-108969870D01*
X181933755Y-108943675D01*
X181909256Y-108916434D01*
X181890714Y-108882109D01*
X181888692Y-108876997D01*
X181878492Y-108841760D01*
X181873492Y-108803621D01*
X181872938Y-108785040D01*
X181875054Y-108744756D01*
X181882367Y-108707983D01*
X181899683Y-108672749D01*
X181927302Y-108647657D01*
X181964346Y-108637028D01*
X182000912Y-108647110D01*
X182026994Y-108672749D01*
X182043970Y-108706031D01*
X182055716Y-108743683D01*
X182063541Y-108780297D01*
X182065280Y-108790352D01*
X182072482Y-108828135D01*
X182083114Y-108867186D01*
X182098207Y-108905182D01*
X182118935Y-108939470D01*
X182124081Y-108945874D01*
X182151952Y-108971859D01*
X182186164Y-108989327D01*
X182224098Y-108995150D01*
X182261828Y-108991157D01*
X182297005Y-108977820D01*
X182313491Y-108966756D01*
X182339551Y-108940573D01*
X182359686Y-108908162D01*
X182366980Y-108891102D01*
X182377920Y-108854343D01*
X182383810Y-108814956D01*
X182384932Y-108787238D01*
X182383005Y-108749206D01*
X182376343Y-108710552D01*
X182364923Y-108675690D01*
X182360569Y-108665971D01*
X182341828Y-108633255D01*
X182316841Y-108602798D01*
X182294990Y-108583539D01*
X182266597Y-108575113D01*
X182242417Y-108591966D01*
X182237654Y-108620725D01*
X182253041Y-108648569D01*
X182279374Y-108676916D01*
X182297554Y-108709569D01*
X182308271Y-108746800D01*
X182311787Y-108783661D01*
X182311843Y-108789253D01*
X182309050Y-108826218D01*
X182298551Y-108862926D01*
X182288212Y-108881760D01*
X182261559Y-108907726D01*
X182228861Y-108916381D01*
X182192491Y-108907122D01*
X182186729Y-108903375D01*
X182163100Y-108874669D01*
X182155039Y-108858129D01*
X182143256Y-108822441D01*
X182135163Y-108785776D01*
X182132141Y-108768370D01*
X182125066Y-108731058D01*
X182115299Y-108694036D01*
X182102205Y-108659053D01*
X182094772Y-108643989D01*
X182073288Y-108611134D01*
X182047042Y-108585488D01*
X182036886Y-108578777D01*
X182002311Y-108564214D01*
X181964896Y-108559359D01*
X181926705Y-108564136D01*
X181892506Y-108578466D01*
X181878067Y-108588302D01*
X181850514Y-108615327D01*
X181829803Y-108646767D01*
X181819815Y-108667986D01*
X181807822Y-108704794D01*
X181801239Y-108741373D01*
X181798770Y-108780921D01*
X181798750Y-108785040D01*
G37*
G36*
X182132920Y-107838492D02*
G01*
X182171342Y-107845498D01*
X182207658Y-107857176D01*
X182241867Y-107873525D01*
X182269537Y-107891083D01*
X182297876Y-107914304D01*
X182325570Y-107944451D01*
X182346464Y-107974825D01*
X182363294Y-108007855D01*
X182375315Y-108043015D01*
X182382528Y-108080304D01*
X182384932Y-108119722D01*
X182384454Y-108137104D01*
X182379884Y-108174728D01*
X182370473Y-108210295D01*
X182354341Y-108247400D01*
X182350439Y-108254456D01*
X182328590Y-108287096D01*
X182302840Y-108315336D01*
X182273191Y-108339174D01*
X182589180Y-108339174D01*
X182619772Y-108350165D01*
X182631129Y-108379108D01*
X182619955Y-108408967D01*
X182589913Y-108419958D01*
X182090009Y-108419958D01*
X182049720Y-108417084D01*
X182011470Y-108409562D01*
X181975257Y-108397392D01*
X181941082Y-108380573D01*
X181909769Y-108359725D01*
X181881960Y-108335465D01*
X181857654Y-108307793D01*
X181836851Y-108276709D01*
X181820182Y-108242821D01*
X181808275Y-108206917D01*
X181801131Y-108168998D01*
X181798750Y-108129064D01*
X181872938Y-108129064D01*
X181875747Y-108165375D01*
X181885324Y-108202714D01*
X181901698Y-108237325D01*
X181921773Y-108265396D01*
X181948442Y-108291564D01*
X181979917Y-108312796D01*
X182015522Y-108328336D01*
X182054330Y-108337425D01*
X182092390Y-108340090D01*
X182129907Y-108337425D01*
X182168448Y-108328336D01*
X182204132Y-108312796D01*
X182233258Y-108293698D01*
X182260380Y-108267979D01*
X182282350Y-108237325D01*
X182297323Y-108205973D01*
X182307389Y-108168882D01*
X182310744Y-108129064D01*
X182307971Y-108092288D01*
X182298516Y-108054686D01*
X182282350Y-108020071D01*
X182262590Y-107991850D01*
X182235937Y-107965434D01*
X182204132Y-107943867D01*
X182168448Y-107928015D01*
X182129907Y-107918743D01*
X182092390Y-107916024D01*
X182054330Y-107918743D01*
X182015522Y-107928015D01*
X181979917Y-107943867D01*
X181951105Y-107963273D01*
X181923999Y-107989248D01*
X181901698Y-108020071D01*
X181885324Y-108054686D01*
X181875747Y-108092288D01*
X181872938Y-108129064D01*
X181798750Y-108129064D01*
X181801142Y-108088226D01*
X181808321Y-108049609D01*
X181820285Y-108013213D01*
X181837035Y-107979038D01*
X181858009Y-107947714D01*
X181882464Y-107919870D01*
X181910399Y-107895507D01*
X181941815Y-107874624D01*
X181976093Y-107857795D01*
X182012615Y-107845773D01*
X182051381Y-107838560D01*
X182092390Y-107836156D01*
X182132920Y-107838492D01*
G37*
G36*
X181798750Y-107427843D02*
G01*
X181801213Y-107468534D01*
X181808603Y-107506733D01*
X181820919Y-107542440D01*
X181829890Y-107561200D01*
X181849814Y-107592319D01*
X181877356Y-107622308D01*
X181907007Y-107645169D01*
X181921665Y-107654073D01*
X181957769Y-107670543D01*
X181993389Y-107680659D01*
X182032330Y-107686515D01*
X182069126Y-107688145D01*
X182344632Y-107688145D01*
X182373209Y-107676605D01*
X182384932Y-107648394D01*
X182373209Y-107618902D01*
X182344632Y-107607362D01*
X182068943Y-107607362D01*
X182030114Y-107604965D01*
X181992649Y-107596790D01*
X181960683Y-107582815D01*
X181929778Y-107559790D01*
X181905827Y-107530900D01*
X181897118Y-107515587D01*
X181883360Y-107479125D01*
X181876886Y-107442301D01*
X181875869Y-107419417D01*
X181878600Y-107382228D01*
X181887721Y-107345138D01*
X181895286Y-107326543D01*
X181914976Y-107293525D01*
X181942065Y-107265618D01*
X181948226Y-107260964D01*
X181981838Y-107243608D01*
X182019474Y-107236879D01*
X182024796Y-107236784D01*
X182024796Y-107178899D01*
X181985512Y-107183875D01*
X181948947Y-107194684D01*
X181915102Y-107211324D01*
X181908659Y-107215352D01*
X181878827Y-107238178D01*
X181853218Y-107265441D01*
X181831830Y-107297140D01*
X181828059Y-107304012D01*
X181812603Y-107339954D01*
X181802871Y-107378401D01*
X181799007Y-107415145D01*
X181798750Y-107427843D01*
G37*
G36*
X181798750Y-107196851D02*
G01*
X181809924Y-107225793D01*
X181840515Y-107236784D01*
X182344266Y-107236784D01*
X182373575Y-107225793D01*
X182384932Y-107196851D01*
X182373575Y-107167358D01*
X182344266Y-107155818D01*
X181840515Y-107155818D01*
X181809924Y-107167358D01*
X181798750Y-107196851D01*
G37*
G36*
X182162000Y-106933435D02*
G01*
X182200650Y-106928769D01*
X182236689Y-106918666D01*
X182270116Y-106903124D01*
X182276489Y-106899363D01*
X182308693Y-106875745D01*
X182335789Y-106847713D01*
X182355990Y-106818396D01*
X182372468Y-106782821D01*
X182382106Y-106744605D01*
X182384932Y-106707571D01*
X182382303Y-106669624D01*
X182371194Y-106633199D01*
X182340524Y-106611860D01*
X182331077Y-106613049D01*
X182309828Y-106627337D01*
X182305614Y-106651517D01*
X182306714Y-106683391D01*
X182307747Y-106722280D01*
X182302899Y-106761199D01*
X182295173Y-106787988D01*
X182278578Y-106821934D01*
X182254215Y-106851527D01*
X182243882Y-106860345D01*
X182211349Y-106878627D01*
X182173698Y-106886672D01*
X182162000Y-106887090D01*
X182162000Y-106933435D01*
G37*
G36*
X181798750Y-106927023D02*
G01*
X181809374Y-106956516D01*
X181839416Y-106966957D01*
X182344266Y-106966957D01*
X182374125Y-106956516D01*
X182384932Y-106927023D01*
X182374125Y-106897714D01*
X182344266Y-106887090D01*
X181839416Y-106887090D01*
X181809374Y-106897714D01*
X181798750Y-106927023D01*
G37*
G36*
X182090192Y-105974659D02*
G01*
X182095588Y-105974763D01*
X182132255Y-105977476D01*
X182171800Y-105984826D01*
X182208826Y-105996710D01*
X182243333Y-106013128D01*
X182271102Y-106030764D01*
X182299403Y-106054268D01*
X182326864Y-106084981D01*
X182347380Y-106116076D01*
X182363809Y-106150079D01*
X182375544Y-106186509D01*
X182382585Y-106225367D01*
X182384932Y-106266652D01*
X182382597Y-106307501D01*
X182375590Y-106346153D01*
X182363912Y-106382606D01*
X182347563Y-106416861D01*
X182327070Y-106448151D01*
X182302958Y-106475891D01*
X182275229Y-106500083D01*
X182243882Y-106520725D01*
X182239718Y-106523047D01*
X182205002Y-106538967D01*
X182167790Y-106550169D01*
X182128083Y-106556655D01*
X182091291Y-106558461D01*
X182049881Y-106556205D01*
X182010829Y-106549439D01*
X181974135Y-106538162D01*
X181939800Y-106522374D01*
X181919784Y-106510364D01*
X181887317Y-106485343D01*
X181859428Y-106455946D01*
X181836119Y-106422173D01*
X181819770Y-106388937D01*
X181808092Y-106353343D01*
X181801085Y-106315390D01*
X181798750Y-106275078D01*
X181799060Y-106266652D01*
X181872938Y-106266652D01*
X181875657Y-106304025D01*
X181884930Y-106342078D01*
X181900782Y-106376927D01*
X181920277Y-106404999D01*
X181946557Y-106431166D01*
X181977902Y-106452398D01*
X182013615Y-106467938D01*
X182052748Y-106477027D01*
X182091291Y-106479692D01*
X182129967Y-106477027D01*
X182169287Y-106467938D01*
X182205231Y-106452398D01*
X182234225Y-106433300D01*
X182261160Y-106407581D01*
X182282900Y-106376927D01*
X182298752Y-106342078D01*
X182308024Y-106304025D01*
X182310744Y-106266652D01*
X182308024Y-106229332D01*
X182298752Y-106191462D01*
X182282900Y-106156926D01*
X182263351Y-106129047D01*
X182236888Y-106103010D01*
X182205231Y-106081821D01*
X182202103Y-106080142D01*
X182165852Y-106065188D01*
X182129967Y-106057192D01*
X182091291Y-106054527D01*
X182052748Y-106057192D01*
X182013615Y-106066281D01*
X181977902Y-106081821D01*
X181949197Y-106100883D01*
X181922457Y-106126480D01*
X181900782Y-106156926D01*
X181884930Y-106191462D01*
X181875657Y-106229332D01*
X181872938Y-106266652D01*
X181799060Y-106266652D01*
X181799581Y-106252468D01*
X181805271Y-106213799D01*
X181816351Y-106177739D01*
X181832821Y-106144286D01*
X181841749Y-106130381D01*
X181867648Y-106098976D01*
X181895332Y-106074809D01*
X181927160Y-106054527D01*
X181879350Y-106054527D01*
X181866523Y-106054771D01*
X181829916Y-106058442D01*
X181792539Y-106067687D01*
X181758633Y-106082370D01*
X181728715Y-106101669D01*
X181701013Y-106127278D01*
X181678765Y-106157475D01*
X181663792Y-106188140D01*
X181653727Y-106224475D01*
X181650372Y-106263538D01*
X181652626Y-106301437D01*
X181660312Y-106339696D01*
X181673453Y-106374363D01*
X181684261Y-106394376D01*
X181706092Y-106424850D01*
X181734453Y-106452398D01*
X181750206Y-106478777D01*
X181743795Y-106509185D01*
X181719798Y-106524389D01*
X181692321Y-106514497D01*
X181676094Y-106501138D01*
X181649635Y-106474386D01*
X181626712Y-106444157D01*
X181607324Y-106410450D01*
X181595119Y-106381925D01*
X181583831Y-106342443D01*
X181577958Y-106304696D01*
X181576000Y-106264453D01*
X181578473Y-106223684D01*
X181585892Y-106185273D01*
X181598257Y-106149220D01*
X181615567Y-106115526D01*
X181637034Y-106084637D01*
X181662050Y-106057183D01*
X181690615Y-106033163D01*
X181722729Y-106012578D01*
X181757705Y-105995989D01*
X181794857Y-105984139D01*
X181834184Y-105977029D01*
X181875686Y-105974659D01*
X182090192Y-105974659D01*
G37*
D12*
D13*
G36*
X204688750Y-106015491D02*
G01*
X204707010Y-106048226D01*
X204716410Y-106053410D01*
X205211734Y-106286418D01*
X205238845Y-106287517D01*
X205259911Y-106266451D01*
X205262110Y-106238241D01*
X205243242Y-106217175D01*
X204759091Y-105993509D01*
X204759091Y-106036557D01*
X205243242Y-105816006D01*
X205262659Y-105794574D01*
X205261010Y-105764532D01*
X205239395Y-105744748D01*
X205212834Y-105745664D01*
X204716410Y-105975558D01*
X204690478Y-106002760D01*
X204688750Y-106015491D01*
G37*
G36*
X204688750Y-105475104D02*
G01*
X204700473Y-105504047D01*
X204730332Y-105516137D01*
X205421844Y-105516137D01*
X205384842Y-105621100D01*
X205379529Y-105641983D01*
X205391253Y-105671475D01*
X205420013Y-105683016D01*
X205443460Y-105677337D01*
X205459397Y-105656821D01*
X205515817Y-105495071D01*
X205519480Y-105484080D01*
X205521129Y-105474005D01*
X205508856Y-105445245D01*
X205479547Y-105434254D01*
X204730332Y-105434254D01*
X204700473Y-105445795D01*
X204688750Y-105475104D01*
G37*
G36*
X204677026Y-105216268D02*
G01*
X204688877Y-105252388D01*
X204694978Y-105259315D01*
X204727786Y-105276234D01*
X204738575Y-105277084D01*
X204774648Y-105265904D01*
X204782905Y-105258766D01*
X204800403Y-105225129D01*
X204801040Y-105216268D01*
X204789636Y-105181353D01*
X204782356Y-105173220D01*
X204749310Y-105156127D01*
X204738575Y-105155268D01*
X204702734Y-105166756D01*
X204695527Y-105172670D01*
X204677911Y-105205228D01*
X204677026Y-105216268D01*
G37*
G36*
X204688750Y-104987656D02*
G01*
X204700473Y-105016599D01*
X204730332Y-105028689D01*
X204759091Y-105017149D01*
X205140293Y-104698961D01*
X205170793Y-104675377D01*
X205204774Y-104657013D01*
X205241382Y-104644720D01*
X205271452Y-104641259D01*
X205310149Y-104644464D01*
X205347495Y-104655082D01*
X205359746Y-104660676D01*
X205392147Y-104682341D01*
X205417223Y-104710930D01*
X205420013Y-104715264D01*
X205435659Y-104750451D01*
X205441620Y-104787286D01*
X205441811Y-104795681D01*
X205437428Y-104832677D01*
X205423006Y-104869047D01*
X205418913Y-104875915D01*
X205395898Y-104904636D01*
X205366921Y-104927326D01*
X205357547Y-104932702D01*
X205322190Y-104946601D01*
X205286030Y-104952538D01*
X205271269Y-104953035D01*
X205242509Y-104964575D01*
X205230785Y-104994068D01*
X205242509Y-105023010D01*
X205271269Y-105034917D01*
X205310163Y-105032440D01*
X205346681Y-105025006D01*
X205384470Y-105010935D01*
X205398763Y-105003593D01*
X205431736Y-104981701D01*
X205460129Y-104955408D01*
X205483943Y-104924714D01*
X205488156Y-104918047D01*
X205505544Y-104882799D01*
X205516492Y-104844831D01*
X205520839Y-104808336D01*
X205521129Y-104795681D01*
X205518593Y-104758465D01*
X205509828Y-104719968D01*
X205494801Y-104684476D01*
X205489072Y-104674415D01*
X205466754Y-104643485D01*
X205439642Y-104617099D01*
X205407735Y-104595257D01*
X205400778Y-104591433D01*
X205363852Y-104575591D01*
X205327774Y-104566350D01*
X205289000Y-104561861D01*
X205270902Y-104561391D01*
X205232378Y-104564927D01*
X205203858Y-104572566D01*
X205168811Y-104587423D01*
X205142675Y-104602424D01*
X205112568Y-104623350D01*
X205087720Y-104643274D01*
X204771548Y-104912185D01*
X204771548Y-104583557D01*
X204758725Y-104554614D01*
X204730149Y-104542524D01*
X204700290Y-104554614D01*
X204688750Y-104583557D01*
X204688750Y-104987656D01*
G37*
D14*
%TA.AperFunction,EtchedComponent*%
%TO.C,ce_icon_mask_cu_3mm*%
G36*
X177978571Y-108328571D02*
G01*
X178016805Y-108565635D01*
X178123274Y-108771518D01*
X178285625Y-108933869D01*
X178491508Y-109040337D01*
X178728571Y-109078571D01*
X178965635Y-109040337D01*
X179171518Y-108933869D01*
X179333869Y-108771518D01*
X179440337Y-108565635D01*
X179478571Y-108328571D01*
X179473214Y-108221429D01*
X179794643Y-108221429D01*
X179800000Y-108328571D01*
X179778233Y-108544504D01*
X179715803Y-108745624D01*
X179617019Y-108927621D01*
X179486189Y-109086189D01*
X179327621Y-109217019D01*
X179145624Y-109315803D01*
X178944504Y-109378233D01*
X178728571Y-109400000D01*
X178512639Y-109378233D01*
X178311519Y-109315803D01*
X178129521Y-109217019D01*
X177970954Y-109086189D01*
X177840124Y-108927621D01*
X177741340Y-108745624D01*
X177678910Y-108544504D01*
X177657143Y-108328571D01*
X177662500Y-108221429D01*
X177983929Y-108221429D01*
X177978571Y-108328571D01*
G37*
%TD.AperFunction*%
%TA.AperFunction,EtchedComponent*%
G36*
X177978571Y-106507143D02*
G01*
X178006797Y-106711367D01*
X178086862Y-106895477D01*
X178211742Y-107050738D01*
X178374415Y-107168418D01*
X178567857Y-107239786D01*
X178567857Y-106614286D01*
X178889286Y-106614286D01*
X178889286Y-107239786D01*
X179082728Y-107168418D01*
X179245400Y-107050738D01*
X179370281Y-106895477D01*
X179450345Y-106711367D01*
X179478571Y-106507143D01*
X179473214Y-106400000D01*
X179794643Y-106400000D01*
X179800000Y-106507143D01*
X179778233Y-106723076D01*
X179715803Y-106924195D01*
X179617019Y-107106193D01*
X179486189Y-107264761D01*
X179327621Y-107395591D01*
X179145624Y-107494375D01*
X178944504Y-107556804D01*
X178728571Y-107578571D01*
X178512639Y-107556804D01*
X178311519Y-107494375D01*
X178129521Y-107395591D01*
X177970954Y-107264761D01*
X177840124Y-107106193D01*
X177741340Y-106924195D01*
X177678910Y-106723076D01*
X177657143Y-106507143D01*
X177662500Y-106400000D01*
X177983929Y-106400000D01*
X177978571Y-106507143D01*
G37*
%TD.AperFunction*%
%TA.AperFunction,EtchedComponent*%
%TO.C,rohs_icon_mask_cu_3mm*%
G36*
X177899304Y-110711070D02*
G01*
X177998740Y-110871002D01*
X178047730Y-110976308D01*
X178124540Y-110983633D01*
X178187187Y-110901543D01*
X178162906Y-110760190D01*
X178149113Y-110731772D01*
X178184025Y-110728941D01*
X178220235Y-110728941D01*
X178228053Y-110752683D01*
X178247847Y-110873522D01*
X178199246Y-111010804D01*
X178088560Y-111058476D01*
X177982297Y-111016804D01*
X177929930Y-110891081D01*
X177884680Y-110787075D01*
X177776517Y-110777957D01*
X177723624Y-110868655D01*
X177753996Y-111011427D01*
X177773867Y-111052313D01*
X177696771Y-111052313D01*
X177686303Y-111020960D01*
X177671004Y-110964853D01*
X177670796Y-110823596D01*
X177752360Y-110712706D01*
X177826936Y-110700419D01*
X177899304Y-110711070D01*
G37*
%TD.AperFunction*%
%TA.AperFunction,EtchedComponent*%
G36*
X178239820Y-111238819D02*
G01*
X178007753Y-111238819D01*
X178007753Y-111455638D01*
X178239820Y-111455638D01*
X178239820Y-111528007D01*
X177956321Y-111528007D01*
X177672926Y-111528007D01*
X177672926Y-111455742D01*
X177808883Y-111454833D01*
X177944944Y-111453820D01*
X177944944Y-111240741D01*
X177808883Y-111239728D01*
X177672926Y-111238715D01*
X177672926Y-111166476D01*
X178239820Y-111166476D01*
X178239820Y-111238819D01*
G37*
%TD.AperFunction*%
%TA.AperFunction,EtchedComponent*%
G36*
X178019338Y-111663159D02*
G01*
X178085784Y-111723838D01*
X178074823Y-111924735D01*
X177865900Y-111994947D01*
X177714227Y-111943723D01*
X177672406Y-111878680D01*
X177673461Y-111841950D01*
X177721916Y-111841950D01*
X177774491Y-111906162D01*
X178001987Y-111903019D01*
X178050275Y-111816260D01*
X177967776Y-111715604D01*
X177799661Y-111717344D01*
X177731163Y-111767763D01*
X177721916Y-111841950D01*
X177673461Y-111841950D01*
X177676277Y-111743917D01*
X177842573Y-111638092D01*
X178019338Y-111663159D01*
G37*
%TD.AperFunction*%
%TA.AperFunction,EtchedComponent*%
G36*
X177749944Y-112091551D02*
G01*
X177932787Y-112213507D01*
X177941905Y-112232781D01*
X177946580Y-112214312D01*
X178103552Y-112117838D01*
X178217196Y-112196155D01*
X178238807Y-112358400D01*
X178240626Y-112464043D01*
X177956737Y-112464043D01*
X177672926Y-112464043D01*
X177672926Y-112387934D01*
X177916448Y-112387934D01*
X177916344Y-112354659D01*
X177911144Y-112341048D01*
X177973465Y-112341048D01*
X177973465Y-112387934D01*
X178178933Y-112387934D01*
X178178933Y-112336788D01*
X178174777Y-112266186D01*
X178129320Y-112205299D01*
X178074329Y-112195766D01*
X178018325Y-112206312D01*
X177977621Y-112271641D01*
X177973465Y-112341048D01*
X177911144Y-112341048D01*
X177867848Y-112227716D01*
X177760490Y-112172517D01*
X177672926Y-112131216D01*
X177672926Y-112053185D01*
X177749944Y-112091551D01*
G37*
%TD.AperFunction*%
%TA.AperFunction,EtchedComponent*%
G36*
X178817965Y-110110157D02*
G01*
X179050342Y-110150877D01*
X179279785Y-110230532D01*
X179490480Y-110344595D01*
X179679077Y-110489532D01*
X179842226Y-110661807D01*
X179976576Y-110857886D01*
X180078777Y-111074234D01*
X180145479Y-111307317D01*
X180173220Y-111532577D01*
X180167325Y-111756973D01*
X180128136Y-111977127D01*
X180055993Y-112189661D01*
X179937030Y-112414095D01*
X179784326Y-112612893D01*
X179602190Y-112782658D01*
X179394931Y-112919995D01*
X179166859Y-113021508D01*
X178922281Y-113083798D01*
X178669849Y-113101254D01*
X178482330Y-113092630D01*
X178248727Y-113042678D01*
X178033862Y-112960908D01*
X177832729Y-112845341D01*
X177638605Y-112688791D01*
X177474325Y-112504237D01*
X177342828Y-112295600D01*
X177247053Y-112066796D01*
X177203018Y-111899077D01*
X177176945Y-111706772D01*
X177176794Y-111699161D01*
X177277393Y-111699161D01*
X177319353Y-111950415D01*
X177403080Y-112184586D01*
X177527236Y-112398793D01*
X177690485Y-112590155D01*
X177830806Y-112711306D01*
X178011421Y-112826157D01*
X178206939Y-112911931D01*
X178411105Y-112965895D01*
X178637102Y-112988233D01*
X178859992Y-112974452D01*
X179075941Y-112925743D01*
X179281119Y-112843295D01*
X179471694Y-112728299D01*
X179643836Y-112581947D01*
X179792801Y-112406195D01*
X179908850Y-112212004D01*
X179991059Y-112003623D01*
X180038506Y-111785304D01*
X180050269Y-111561293D01*
X180025425Y-111335843D01*
X179963052Y-111113200D01*
X179904986Y-110983406D01*
X179836420Y-110859027D01*
X179695508Y-110673380D01*
X179529426Y-110516005D01*
X179340510Y-110388768D01*
X179131100Y-110293535D01*
X178922695Y-110236798D01*
X178709765Y-110213266D01*
X178496636Y-110222423D01*
X178287633Y-110263754D01*
X178087081Y-110336741D01*
X177899304Y-110440870D01*
X177704623Y-110596518D01*
X177542440Y-110781416D01*
X177415782Y-110990547D01*
X177327679Y-111218891D01*
X177281159Y-111461431D01*
X177277393Y-111699161D01*
X177176794Y-111699161D01*
X177175023Y-111609779D01*
X177180974Y-111455723D01*
X177203232Y-111307317D01*
X177273400Y-111066089D01*
X177381839Y-110842189D01*
X177524916Y-110639958D01*
X177699000Y-110463734D01*
X177900457Y-110317859D01*
X178125657Y-110206672D01*
X178350962Y-110138333D01*
X178583285Y-110106068D01*
X178817965Y-110110157D01*
G37*
%TD.AperFunction*%
%TA.AperFunction,EtchedComponent*%
G36*
X179774810Y-111075954D02*
G01*
X179725318Y-111141491D01*
X179591157Y-111270977D01*
X179454018Y-111366249D01*
X179271759Y-111475432D01*
X179089078Y-111570695D01*
X178908384Y-111656665D01*
X178706059Y-111759840D01*
X178726061Y-111800648D01*
X178826593Y-111847768D01*
X178993013Y-111921072D01*
X179039692Y-111940969D01*
X179039692Y-111957412D01*
X178956076Y-112086589D01*
X178790195Y-112274992D01*
X178651069Y-112126566D01*
X178508098Y-111974348D01*
X178405958Y-111884953D01*
X178255951Y-111782777D01*
X178232210Y-111739060D01*
X178313488Y-111697447D01*
X178497982Y-111600705D01*
X178680848Y-111487103D01*
X178882123Y-111344228D01*
X179029649Y-111223165D01*
X179165310Y-111076756D01*
X179296514Y-111038520D01*
X179573519Y-111044159D01*
X179758051Y-111034092D01*
X179774810Y-111075954D01*
G37*
%TD.AperFunction*%
%TA.AperFunction,EtchedComponent*%
G36*
X179776234Y-111079510D02*
G01*
X179774810Y-111075954D01*
X179791664Y-111053638D01*
X179776234Y-111079510D01*
G37*
%TD.AperFunction*%
%TA.AperFunction,EtchedComponent*%
%TO.C,weee_icon_mask_cu_3mm*%
G36*
X177601676Y-115559976D02*
G01*
X177175000Y-115559976D01*
X177175000Y-113811397D01*
X177601676Y-113811397D01*
X177601676Y-115559976D01*
G37*
%TD.AperFunction*%
%TA.AperFunction,EtchedComponent*%
G36*
X179879237Y-114149989D02*
G01*
X179846220Y-114214946D01*
X179923690Y-114334774D01*
X179951283Y-114492773D01*
X179976214Y-114492773D01*
X179976214Y-114777723D01*
X179958096Y-114777723D01*
X179935576Y-114942244D01*
X179946425Y-114942244D01*
X179946425Y-115045212D01*
X179906279Y-115045212D01*
X179786862Y-115165861D01*
X179786862Y-115235306D01*
X179731716Y-115235306D01*
X179731716Y-115153328D01*
X179205303Y-115108795D01*
X179786862Y-115108795D01*
X179845533Y-115045212D01*
X179786862Y-115045212D01*
X179786862Y-115108795D01*
X179205303Y-115108795D01*
X178345132Y-115036027D01*
X178319754Y-115013758D01*
X178234388Y-115013758D01*
X178234388Y-114983192D01*
X178234388Y-114904273D01*
X178319108Y-114904273D01*
X178319108Y-114498057D01*
X178374254Y-114498057D01*
X178374254Y-114983192D01*
X179731716Y-115098007D01*
X179731716Y-115045212D01*
X179731716Y-114942244D01*
X179731716Y-114241341D01*
X179629550Y-114250506D01*
X179629550Y-114274695D01*
X179426788Y-114274695D01*
X179426788Y-114268679D01*
X178578525Y-114344781D01*
X178522411Y-114455689D01*
X178405507Y-114500859D01*
X178374254Y-114498057D01*
X178319108Y-114498057D01*
X178319108Y-114477908D01*
X178231571Y-114326938D01*
X178282518Y-114203950D01*
X178405507Y-114153002D01*
X178575467Y-114289910D01*
X179150176Y-114238363D01*
X179786862Y-114238363D01*
X179786862Y-114942244D01*
X179879217Y-114942244D01*
X179903070Y-114777723D01*
X179850862Y-114777723D01*
X179850862Y-114537892D01*
X179850862Y-114492773D01*
X179896117Y-114492773D01*
X179871993Y-114353298D01*
X179786862Y-114238363D01*
X179150176Y-114238363D01*
X179426788Y-114213553D01*
X179426788Y-114209502D01*
X179426788Y-114119458D01*
X179471908Y-114119458D01*
X179471908Y-114209502D01*
X179584431Y-114199415D01*
X179584431Y-114119458D01*
X179471908Y-114119458D01*
X179426788Y-114119458D01*
X179426788Y-114074339D01*
X179629550Y-114074339D01*
X179629550Y-114195360D01*
X179727174Y-114186606D01*
X179718361Y-114149989D01*
X179798809Y-114069541D01*
X179879237Y-114149989D01*
G37*
%TD.AperFunction*%
%TA.AperFunction,EtchedComponent*%
G36*
X179421990Y-114787810D02*
G01*
X179306173Y-114787810D01*
X179306173Y-114419433D01*
X179421990Y-114419433D01*
X179421990Y-114787810D01*
G37*
%TD.AperFunction*%
%TA.AperFunction,EtchedComponent*%
G36*
X178465019Y-114326938D02*
G01*
X178405507Y-114386456D01*
X178345974Y-114326938D01*
X178405507Y-114267405D01*
X178465019Y-114326938D01*
G37*
%TD.AperFunction*%
%TA.AperFunction,EtchedComponent*%
G36*
X179080225Y-114700197D02*
G01*
X180161039Y-115728663D01*
X180081238Y-115728663D01*
X179041021Y-114738835D01*
X178062763Y-115702870D01*
X178024868Y-115663019D01*
X179001165Y-114700899D01*
X178032408Y-113779081D01*
X178070323Y-113739211D01*
X179040354Y-114662262D01*
X180096648Y-113621338D01*
X180175001Y-113621338D01*
X179080225Y-114700197D01*
G37*
%TD.AperFunction*%
%TD*%
D15*
%TO.P,REF\u002A\u002A,*%
%TO.N,*%
X196750000Y-60250000D03*
%TD*%
D16*
%TO.P,D1,1*%
%TO.N,GND*%
X174379500Y-94726000D03*
%TO.P,D1,2*%
%TO.N,VCC*%
X174379500Y-92186000D03*
%TD*%
D17*
%TO.P,D2,1*%
%TO.N,GND*%
X208042000Y-68525000D03*
%TO.P,D2,2*%
%TO.N,VCC*%
X210582000Y-68525000D03*
%TD*%
D18*
%TO.P,D3,1*%
%TO.N,GND*%
X202882500Y-80431704D03*
%TO.P,D3,2*%
%TO.N,VCC*%
X204152500Y-78232000D03*
%TD*%
D19*
%TO.P,D4,1*%
%TO.N,GND*%
X175622949Y-87013051D03*
%TO.P,D4,2*%
%TO.N,VCC*%
X177419000Y-85217000D03*
%TD*%
D20*
%TO.P,BT1,1*%
%TO.N,+3V0*%
X180630000Y-92760000D03*
%TO.P,BT1,2*%
%TO.N,GND*%
X209930000Y-92760000D03*
%TD*%
D21*
%TO.P,SW1,1*%
%TO.N,VCC*%
X200964693Y-72541520D03*
%TO.P,SW1,2*%
%TO.N,+3V0*%
X221637930Y-80065963D03*
%TD*%
D22*
%TO.N,+3V0*%
X222577623Y-80407983D02*
X215102017Y-80407983D01*
X182950000Y-97720000D02*
X179900000Y-94670000D01*
X197790000Y-97720000D02*
X182950000Y-97720000D01*
X179900000Y-94670000D02*
X179900000Y-93840000D01*
X215102017Y-80407983D02*
X197790000Y-97720000D01*
%TO.N,GND*%
X174860000Y-81640000D02*
X180750000Y-81640000D01*
X202882500Y-80431704D02*
X200906916Y-78456120D01*
X200540000Y-102650000D02*
X182303500Y-102650000D01*
X169980000Y-89900000D02*
X172866949Y-87013051D01*
X174379500Y-94726000D02*
X171226000Y-94726000D01*
X185270000Y-86160000D02*
X197154204Y-86160000D01*
X200906916Y-78456120D02*
X200906916Y-76794339D01*
X180750000Y-81640000D02*
X185270000Y-86160000D01*
X171226000Y-94726000D02*
X169980000Y-93480000D01*
X169980000Y-93480000D02*
X169980000Y-89900000D01*
X200906916Y-76794339D02*
X208042000Y-69659255D01*
X174412898Y-85803000D02*
X174373000Y-85803000D01*
X174373000Y-85803000D02*
X172950000Y-84380000D01*
X175622949Y-87013051D02*
X174412898Y-85803000D01*
X172866949Y-87013051D02*
X175622949Y-87013051D01*
X208042000Y-69659255D02*
X208042000Y-68525000D01*
X182303500Y-102650000D02*
X174379500Y-94726000D01*
X197154204Y-86160000D02*
X202882500Y-80431704D01*
X172950000Y-83550000D02*
X174860000Y-81640000D01*
X209337000Y-93853000D02*
X200540000Y-102650000D01*
X172950000Y-84380000D02*
X172950000Y-83550000D01*
%TO.N,VCC*%
X207199500Y-65025000D02*
X208820000Y-65025000D01*
X176264000Y-91636000D02*
X179380000Y-88520000D01*
X209850000Y-80780000D02*
X206920000Y-77850000D01*
X210582000Y-71802500D02*
X204152500Y-78232000D01*
X210582000Y-66787000D02*
X210582000Y-68525000D01*
X176264000Y-92186000D02*
X176264000Y-91636000D01*
X204810480Y-87359520D02*
X209850000Y-82320000D01*
X179380000Y-88520000D02*
X179380000Y-86930000D01*
X208820000Y-65025000D02*
X210582000Y-66787000D01*
X179561520Y-87359520D02*
X204810480Y-87359520D01*
X206920000Y-77850000D02*
X204534500Y-77850000D01*
X177419000Y-85217000D02*
X179561520Y-87359520D01*
X210582000Y-68525000D02*
X210582000Y-71802500D01*
X200025000Y-72199500D02*
X207199500Y-65025000D01*
X209850000Y-82320000D02*
X209850000Y-80780000D01*
X204534500Y-77850000D02*
X204152500Y-78232000D01*
%TD*%
M02*
