<?xml version="1.0" encoding="UTF-8" standalone="no"?>
<!-- Uploaded to: SVG Repo, www.svgrepo.com, Generator: SVG Repo Mixer Tools -->

<svg
   fill="#000000"
   height="943.97949"
   width="906.65204"
   version="1.1"
   id="Layer_1"
   viewBox="0 0 245.15418 255.24733"
   xml:space="preserve"
   sodipodi:docname="BoardOutlinePlane2.svg"
   inkscape:version="1.4 (e7c3feb, 2024-10-09)"
   xmlns:inkscape="http://www.inkscape.org/namespaces/inkscape"
   xmlns:sodipodi="http://sodipodi.sourceforge.net/DTD/sodipodi-0.dtd"
   xmlns="http://www.w3.org/2000/svg"
   xmlns:svg="http://www.w3.org/2000/svg"><defs
   id="defs2" /><sodipodi:namedview
   id="namedview2"
   pagecolor="#ffffff"
   bordercolor="#000000"
   borderopacity="0.25"
   inkscape:showpageshadow="2"
   inkscape:pageopacity="0.0"
   inkscape:pagecheckerboard="0"
   inkscape:deskcolor="#d1d1d1"
   inkscape:zoom="0.70975843"
   inkscape:cx="207.81719"
   inkscape:cy="258.53867"
   inkscape:window-width="1920"
   inkscape:window-height="1011"
   inkscape:window-x="0"
   inkscape:window-y="32"
   inkscape:window-maximized="1"
   inkscape:current-layer="Layer_1" />
<g
   id="g2"
   style="fill:none;stroke:#000000;stroke-opacity:1;stroke-width:5.10982675;stroke-dasharray:none"
   transform="rotate(45,82.815838,112.86681)">
	<g
   id="g1"
   style="fill:none;stroke:#000000;stroke-opacity:1;stroke-width:5.10982675;stroke-dasharray:none">
		<path
   style="fill:none;stroke:#000000;stroke-opacity:1;stroke-width:5.10982675;stroke-dasharray:none"
   d="M 207.449,8.626 C 201.89,3.064 194.404,0 186.369,0 177.812,0 169.693,3.408 163.501,9.598 L 132.517,42.713 25.956,10.816 5.153,31.621 c -2.205,2.202 -3.417,5.134 -3.417,8.251 0.002,3.115 1.215,6.045 3.419,8.247 l 0.664,0.666 79.943,43.999 -28.174,30.563 c -2.094,2.106 -3.941,4.374 -5.522,6.781 L 17.195,121.103 3.29,135.01 c -4.063,4.063 -4.063,10.676 0,14.741 l 0.745,0.747 39.745,20.16 2.11,2.11 20.163,39.745 0.743,0.743 c 1.971,1.973 4.589,3.06 7.378,3.06 2.784,0 5.4,-1.085 7.368,-3.05 l 13.905,-13.905 -9.201,-35.554 c 2.299,-1.537 4.466,-3.315 6.481,-5.317 l 30.702,-28.306 43.882,79.729 0.452,0.824 0.666,0.664 c 2.204,2.206 5.134,3.421 8.251,3.421 3.115,0 6.045,-1.215 8.247,-3.419 L 205.732,190.6 173.622,83.317 206.474,52.579 c 5.954,-5.952 9.358,-13.764 9.587,-21.995 0.236,-8.37 -2.823,-16.169 -8.612,-21.958 z"
   id="path1" />
	</g>
</g>
</svg>
