<?xml version="1.0" encoding="UTF-8" standalone="no"?>
<svg
   viewBox="0 0 10.716437 11.796909"
   version="1.1"
   id="svg2142"
   sodipodi:docname="PacMan.svg"
   width="10.716437"
   height="11.796909"
   inkscape:version="1.4 (e7c3feb, 2024-10-09)"
   xmlns:inkscape="http://www.inkscape.org/namespaces/inkscape"
   xmlns:sodipodi="http://sodipodi.sourceforge.net/DTD/sodipodi-0.dtd"
   xmlns="http://www.w3.org/2000/svg"
   xmlns:svg="http://www.w3.org/2000/svg">
  <sodipodi:namedview
     id="namedview2142"
     pagecolor="#ffffff"
     bordercolor="#000000"
     borderopacity="0.25"
     inkscape:showpageshadow="2"
     inkscape:pageopacity="0.0"
     inkscape:pagecheckerboard="0"
     inkscape:deskcolor="#d1d1d1"
     inkscape:zoom="39.14208"
     inkscape:cx="0.038321929"
     inkscape:cy="3.0274324"
     inkscape:window-width="1920"
     inkscape:window-height="1011"
     inkscape:window-x="0"
     inkscape:window-y="32"
     inkscape:window-maximized="1"
     inkscape:current-layer="Layer_4" />
  <defs
     id="defs1">
    <style
       id="style1">
      .cls-1 {
        letter-spacing: .29em;
      }

      .cls-2 {
        fill: #d0d2cd;
      }

      .cls-2, .cls-3, .cls-4, .cls-5, .cls-6, .cls-7, .cls-8, .cls-9, .cls-10 {
        stroke-width: 0px;
      }

      .cls-11 {
        letter-spacing: .13em;
      }

      .cls-3, .cls-5 {
        fill: #c83434;
      }

      .cls-3, .cls-9, .cls-10 {
        fill-rule: evenodd;
      }

      .cls-12 {
        stroke: #d864ff;
      }

      .cls-12, .cls-13, .cls-14, .cls-15, .cls-16, .cls-17, .cls-18, .cls-19, .cls-20, .cls-21, .cls-22, .cls-23, .cls-24, .cls-25, .cls-26, .cls-27 {
        fill: none;
        stroke-linecap: round;
        stroke-linejoin: round;
      }

      .cls-12, .cls-22 {
        stroke-width: 7.09px;
      }

      .cls-13 {
        stroke-width: .34px;
      }

      .cls-13, .cls-14, .cls-15, .cls-17, .cls-18, .cls-19, .cls-20, .cls-21, .cls-25, .cls-27 {
        stroke: #f2eda1;
      }

      .cls-28 {
        letter-spacing: .91em;
      }

      .cls-4 {
        fill: #d864ff;
      }

      .cls-29 {
        letter-spacing: .63em;
      }

      .cls-14, .cls-15, .cls-17, .cls-19, .cls-27 {
        font-family: ArialMT, Arial;
      }

      .cls-14, .cls-15, .cls-19, .cls-27 {
        font-size: 7.56px;
      }

      .cls-14, .cls-19, .cls-27 {
        stroke-width: 1.13px;
      }

      .cls-15, .cls-21 {
        stroke-width: 1.42px;
      }

      .cls-16, .cls-20 {
        stroke-width: 1.13px;
      }

      .cls-16, .cls-22, .cls-23, .cls-24 {
        stroke: #c83434;
      }

      .cls-30 {
        letter-spacing: .16em;
      }

      .cls-17 {
        font-size: 3.78px;
        stroke-width: .43px;
      }

      .cls-31 {
        letter-spacing: .64em;
      }

      .cls-32 {
        letter-spacing: .3em;
      }

      .cls-33 {
        letter-spacing: .31em;
      }

      .cls-34 {
        letter-spacing: .91em;
      }

      .cls-35 {
        letter-spacing: .32em;
      }

      .cls-18, .cls-26 {
        stroke-width: .28px;
      }

      .cls-19 {
        letter-spacing: -.06em;
      }

      .cls-36 {
        letter-spacing: .32em;
      }

      .cls-37 {
        letter-spacing: .16em;
      }

      .cls-6, .cls-10 {
        fill: rgba(216, 100, 255, .4);
      }

      .cls-7, .cls-9 {
        fill: #f2eda1;
      }

      .cls-38 {
        isolation: isolate;
        opacity: 0;
      }

      .cls-8 {
        fill: #fff;
      }

      .cls-39 {
        letter-spacing: .72em;
      }

      .cls-40 {
        letter-spacing: .11em;
      }

      .cls-41 {
        letter-spacing: .32em;
      }

      .cls-42 {
        letter-spacing: .36em;
      }

      .cls-43 {
        letter-spacing: .06em;
      }

      .cls-44 {
        letter-spacing: -.02em;
      }

      .cls-23 {
        stroke-width: .71px;
      }

      .cls-24 {
        stroke-width: 1.7px;
      }

      .cls-45 {
        letter-spacing: .15em;
      }

      .cls-46 {
        letter-spacing: .18em;
      }

      .cls-25 {
        stroke-width: .43px;
      }

      .cls-26 {
        stroke: #d0d2cd;
      }

      .cls-27 {
        letter-spacing: -.04em;
      }

      .cls-47 {
        letter-spacing: -.06em;
      }
    </style>
  </defs>
  <g
     id="Layer_2"
     data-name="Layer 2"
     style="display:none"
     inkscape:label="falab|nk logo"
     transform="translate(-356.00398,-290.54309)">
    <path
       class="cls-24"
       d="m 268.21,175.45 v 0.3 c 0,0 -0.05,0.3 -0.05,0.3 l -0.06,0.29 -0.09,0.29 -0.06,0.14 -0.06,0.14 -0.07,0.14 -0.08,0.13 -0.08,0.13 -0.09,0.13 -0.1,0.12 -0.11,0.12 -0.11,0.11 -0.12,0.11 -0.13,0.1 -0.14,0.1 -0.14,0.09 -0.15,0.09 -0.16,0.08 -0.17,0.07 -0.18,0.06 -0.18,0.06 -0.19,0.05 -0.2,0.04 -0.21,0.03 -0.22,0.02 h -0.22 c 0,0 -0.23,0.02 -0.23,0.02 h -0.17 c 0,0 -0.16,0 -0.16,0 h -0.16 c 0,0 -0.15,-0.02 -0.15,-0.02 l -0.14,-0.02 -0.14,-0.02 -0.13,-0.02 -0.13,-0.03 -0.12,-0.03 -0.12,-0.03 -0.11,-0.03 -0.11,-0.04 -0.1,-0.04 -0.1,-0.04 -0.09,-0.04 -0.09,-0.04 -0.08,-0.05 -0.08,-0.05 -0.07,-0.05 -0.07,-0.05 -0.07,-0.05 -0.06,-0.05 -0.06,-0.05 -0.06,-0.05 -0.11,-0.11 -0.09,-0.11 -0.09,-0.11 -0.08,-0.11 -0.02,0.12 -0.02,0.13 -0.04,0.28 -0.04,0.27 -0.02,0.12 -0.02,0.1 h -2.76 l 0.02,-0.14 0.02,-0.24 0.02,-0.31 0.02,-0.37 0.03,-0.83 v -0.82 c 0,0 0,-2.08 0,-2.08 h 2.87 v 0.59 c 0,0 0.01,0.25 0.01,0.25 l 0.02,0.24 0.03,0.24 0.04,0.23 0.03,0.11 0.03,0.11 0.04,0.1 0.04,0.1 0.05,0.1 0.05,0.09 0.06,0.09 0.06,0.09 0.07,0.08 0.07,0.08 0.08,0.07 0.09,0.07 0.09,0.06 0.1,0.06 0.11,0.05 0.12,0.04 0.13,0.04 0.13,0.03 0.14,0.03 0.15,0.02 h 0.16 c 0,0 0.17,0.01 0.17,0.01 h 0.1 c 0,0 0.09,0 0.09,0 h 0.09 c 0,0 0.09,-0.02 0.09,-0.02 l 0.08,-0.02 0.08,-0.02 0.08,-0.02 0.07,-0.03 0.07,-0.03 0.07,-0.03 0.06,-0.04 0.06,-0.04 0.06,-0.04 0.05,-0.04 0.05,-0.05 0.05,-0.05 0.04,-0.05 0.04,-0.05 0.04,-0.05 0.04,-0.06 0.03,-0.06 0.03,-0.06 0.03,-0.06 0.02,-0.06 0.02,-0.06 0.02,-0.06 v -0.07 c 0,0 0.03,-0.07 0.03,-0.07 l 0.02,-0.13 v -0.14 c 0,0 0,-0.18 0,-0.18 l -0.02,-0.17 -0.02,-0.08 -0.02,-0.08 -0.03,-0.08 -0.03,-0.07 -0.04,-0.07 -0.04,-0.07 -0.05,-0.07 -0.05,-0.06 -0.06,-0.06 -0.06,-0.06 -0.06,-0.05 -0.07,-0.05 -0.08,-0.05 -0.08,-0.05 -0.09,-0.04 -0.09,-0.04 -0.2,-0.07 -0.22,-0.06 -0.24,-0.05 -0.27,-0.03 -0.29,-0.02 h -0.31 c 0,0 -1.18,0 -1.18,0 h -2.87 v -2.31 c 0,0 0,-0.23 0,-0.23 v -0.22 c 0,0 0.04,-0.21 0.04,-0.21 l 0.03,-0.2 0.04,-0.2 0.05,-0.19 0.06,-0.18 0.07,-0.17 0.07,-0.17 0.08,-0.16 0.09,-0.15 0.1,-0.14 0.11,-0.14 0.12,-0.13 0.12,-0.12 0.13,-0.11 0.14,-0.11 0.15,-0.1 0.16,-0.09 0.17,-0.09 0.17,-0.08 0.18,-0.07 0.19,-0.06 0.2,-0.06 0.42,-0.09 0.45,-0.07 0.48,-0.04 h 0.51 c 0,0 0.29,0 0.29,0 h 0.28 c 0,0 0.27,0.03 0.27,0.03 l 0.26,0.03 0.25,0.04 0.24,0.05 0.23,0.05 0.21,0.06 0.2,0.07 0.19,0.07 0.18,0.08 0.17,0.09 0.16,0.09 0.15,0.1 0.15,0.11 0.14,0.11 0.13,0.12 0.12,0.12 0.11,0.13 0.1,0.13 0.09,0.14 0.09,0.14 0.08,0.15 0.07,0.15 0.06,0.15 0.06,0.16 0.05,0.16 0.04,0.16 0.07,0.33 0.04,0.34 h -2.76 l -0.02,-0.14 -0.03,-0.14 -0.03,-0.13 -0.04,-0.12 -0.05,-0.11 -0.03,-0.05 -0.03,-0.05 -0.03,-0.05 -0.04,-0.05 -0.04,-0.05 -0.04,-0.04 -0.05,-0.04 -0.05,-0.04 -0.05,-0.04 -0.06,-0.03 -0.06,-0.03 -0.07,-0.03 -0.07,-0.03 -0.07,-0.02 -0.08,-0.02 -0.08,-0.02 -0.09,-0.02 h -0.09 c 0,0 -0.1,-0.02 -0.1,-0.02 h -0.1 c 0,0 -0.11,-0.01 -0.11,-0.01 h -0.11 c 0,0 -0.12,0 -0.12,0 h -0.12 c 0,0 -0.11,0.02 -0.11,0.02 h -0.11 c 0,0 -0.1,0.03 -0.1,0.03 l -0.09,0.02 -0.09,0.03 -0.08,0.03 -0.08,0.03 -0.07,0.03 -0.07,0.04 -0.06,0.04 -0.06,0.04 -0.06,0.05 -0.05,0.05 -0.05,0.05 -0.04,0.05 -0.04,0.05 -0.04,0.06 -0.03,0.06 -0.03,0.06 -0.03,0.06 -0.02,0.06 -0.02,0.06 -0.03,0.13 -0.02,0.13 v 0.14 c 0,0 -0.01,0.14 -0.01,0.14 v 0.62 h 2.08 c 0,0 0.27,0.03 0.27,0.03 l 0.27,0.02 0.26,0.03 0.25,0.04 0.24,0.04 0.23,0.05 0.23,0.06 0.22,0.06 0.21,0.07 0.2,0.08 0.19,0.08 0.18,0.09 0.18,0.1 0.17,0.1 0.16,0.11 0.15,0.12 0.14,0.13 0.13,0.13 0.12,0.14 0.11,0.15 0.1,0.15 0.09,0.16 0.08,0.17 0.07,0.17 0.06,0.18 0.05,0.19 0.04,0.2 0.03,0.2 0.02,0.21 v 0.05 c 0,0 0,0.17 0,0.17 z"
       id="path3833"
       style="fill:#f2eca0;fill-rule:evenodd;stroke-width:0px" />
    <path
       class="cls-24"
       d="m 226.47,172.13 h -2.93 v -3.38 l -1.35,-1.29 -2.64,4.67 h -3.26 l 3.99,-6.53 -3.66,-3.94 h 3.32 l 1.07,1.28 0.98,1.2 0.45,0.55 0.41,0.52 0.37,0.47 0.32,0.43 v -8.72 h 2.93 z"
       id="path3834"
       style="fill:#f2eca0;fill-rule:evenodd;stroke-width:0px" />
    <path
       class="cls-24"
       d="m 285.19,178.48 h -2.76 l -0.02,-0.11 -0.02,-0.12 -0.02,-0.13 -0.02,-0.13 v -0.13 c 0,0 -0.03,-0.13 -0.03,-0.13 v -0.13 c 0,0 0,-0.13 0,-0.13 l -0.1,0.14 -0.1,0.14 -0.11,0.13 -0.12,0.12 -0.12,0.11 -0.13,0.1 -0.14,0.09 -0.15,0.08 -0.17,0.07 -0.18,0.07 -0.2,0.06 -0.21,0.05 -0.23,0.04 -0.25,0.03 -0.26,0.02 h -0.28 c 0,0 -0.28,0 -0.28,0 l -0.27,-0.02 -0.26,-0.04 -0.25,-0.05 -0.24,-0.07 -0.24,-0.08 -0.23,-0.09 -0.22,-0.11 -0.21,-0.12 -0.2,-0.13 -0.19,-0.14 -0.18,-0.15 -0.17,-0.16 -0.16,-0.17 -0.16,-0.18 -0.15,-0.19 -0.14,-0.2 -0.13,-0.21 -0.23,-0.44 -0.2,-0.47 -0.16,-0.49 -0.12,-0.51 -0.09,-0.53 -0.05,-0.54 -0.02,-0.49 h 2.92 v 0.19 c 0,0 0,0.18 0,0.18 v 0.18 c 0,0 0.03,0.17 0.03,0.17 l 0.02,0.17 0.03,0.16 0.03,0.16 0.03,0.15 0.04,0.15 0.04,0.14 0.05,0.14 0.05,0.13 0.06,0.13 0.06,0.12 0.06,0.12 0.07,0.11 0.07,0.1 0.08,0.1 0.08,0.09 0.09,0.08 0.09,0.08 0.09,0.07 0.1,0.06 0.1,0.06 0.11,0.05 0.11,0.04 0.12,0.04 0.12,0.03 0.12,0.02 h 0.13 c 0,0 0.13,0.02 0.13,0.02 h 0.14 c 0,0 0.15,0 0.15,0 h 0.15 c 0,0 0.14,-0.03 0.14,-0.03 l 0.13,-0.03 0.13,-0.03 0.12,-0.04 0.12,-0.05 0.11,-0.05 0.1,-0.06 0.1,-0.07 0.09,-0.07 0.09,-0.08 0.08,-0.09 0.08,-0.09 0.07,-0.1 0.07,-0.1 0.06,-0.11 0.06,-0.11 0.1,-0.24 0.08,-0.25 0.06,-0.27 0.05,-0.29 0.03,-0.3 0.02,-0.31 v -0.32 c 0,0 0,-0.39 0,-0.39 l -0.02,-0.36 -0.04,-0.34 -0.02,-0.16 -0.03,-0.15 -0.03,-0.15 -0.04,-0.14 -0.04,-0.13 -0.04,-0.13 -0.05,-0.12 -0.05,-0.12 -0.06,-0.11 -0.06,-0.1 -0.07,-0.1 -0.07,-0.09 -0.08,-0.08 -0.08,-0.08 -0.09,-0.07 -0.09,-0.07 -0.1,-0.06 -0.11,-0.05 -0.11,-0.05 -0.12,-0.04 -0.12,-0.03 -0.13,-0.03 -0.14,-0.02 -0.14,-0.02 h -0.15 c 0,0 -0.15,-0.01 -0.15,-0.01 h -0.14 c 0,0 -0.13,0.01 -0.13,0.01 l -0.13,0.02 -0.13,0.03 -0.12,0.03 -0.12,0.04 -0.11,0.05 -0.11,0.05 -0.1,0.06 -0.1,0.07 -0.09,0.07 -0.09,0.08 -0.08,0.08 -0.08,0.09 -0.07,0.09 -0.07,0.1 -0.07,0.1 -0.06,0.11 -0.11,0.23 -0.09,0.25 -0.07,0.27 -0.06,0.28 -0.04,0.3 -0.02,0.31 v 0.32 h -2.93 v -0.06 c 0,0 0.01,-0.54 0.01,-0.54 l 0.02,-0.26 0.03,-0.26 0.04,-0.26 0.05,-0.25 0.05,-0.25 0.06,-0.24 0.07,-0.23 0.08,-0.23 0.09,-0.22 0.1,-0.21 0.1,-0.21 0.11,-0.2 0.12,-0.19 0.13,-0.18 0.14,-0.17 0.15,-0.17 0.15,-0.16 0.16,-0.15 0.17,-0.14 0.18,-0.13 0.19,-0.12 0.2,-0.11 0.2,-0.09 0.21,-0.08 0.22,-0.07 0.23,-0.06 0.24,-0.05 0.25,-0.03 0.26,-0.02 h 0.26 c 0,0 0.16,0 0.16,0 h 0.15 c 0,0 0.15,0.02 0.15,0.02 h 0.14 c 0,0 0.14,0.03 0.14,0.03 l 0.13,0.02 0.13,0.02 0.12,0.03 0.12,0.03 0.11,0.03 0.11,0.03 0.11,0.04 0.1,0.04 0.1,0.04 0.1,0.04 0.09,0.05 0.09,0.05 0.08,0.05 0.08,0.05 0.08,0.05 0.07,0.06 0.07,0.06 0.07,0.06 0.06,0.06 0.12,0.12 0.11,0.12 0.1,0.13 0.09,0.13 v -5.4 h 2.93 v 14.79 z"
       id="path3835"
       style="fill:#f2eca0;fill-rule:evenodd;stroke-width:0px" />
    <path
       class="cls-24"
       d="m 297.12,175.45 v 0.3 c 0,0 -0.05,0.3 -0.05,0.3 l -0.06,0.29 -0.09,0.29 -0.06,0.14 -0.06,0.14 -0.07,0.14 -0.08,0.13 -0.08,0.13 -0.09,0.13 -0.1,0.12 -0.11,0.12 -0.11,0.11 -0.12,0.11 -0.13,0.1 -0.14,0.1 -0.14,0.09 -0.15,0.09 -0.16,0.08 -0.17,0.07 -0.18,0.06 -0.18,0.06 -0.19,0.05 -0.2,0.04 -0.21,0.03 -0.22,0.02 h -0.22 c 0,0 -0.23,0.02 -0.23,0.02 h -0.17 c 0,0 -0.16,0 -0.16,0 h -0.16 c 0,0 -0.15,-0.02 -0.15,-0.02 l -0.14,-0.02 -0.14,-0.02 -0.13,-0.02 -0.13,-0.03 -0.12,-0.03 -0.12,-0.03 -0.11,-0.03 -0.11,-0.04 -0.1,-0.04 -0.1,-0.04 -0.09,-0.04 -0.09,-0.04 -0.08,-0.05 -0.08,-0.05 -0.07,-0.05 -0.07,-0.05 -0.07,-0.05 -0.06,-0.05 -0.06,-0.05 -0.06,-0.05 -0.11,-0.11 -0.09,-0.11 -0.09,-0.11 -0.08,-0.11 -0.02,0.12 -0.02,0.13 -0.04,0.28 -0.04,0.27 -0.02,0.12 -0.02,0.1 h -2.76 l 0.02,-0.14 0.02,-0.24 0.02,-0.31 0.02,-0.37 0.03,-0.83 v -0.82 c 0,0 0,-1.74 0,-1.74 h 2.87 v 0.25 c 0,0 0.01,0.25 0.01,0.25 l 0.02,0.24 0.03,0.24 0.04,0.23 0.03,0.11 0.03,0.11 0.04,0.1 0.04,0.1 0.05,0.1 0.05,0.09 0.06,0.09 0.06,0.09 0.07,0.08 0.07,0.08 0.08,0.07 0.09,0.07 0.09,0.06 0.1,0.06 0.11,0.05 0.12,0.04 0.13,0.04 0.13,0.03 0.14,0.03 0.15,0.02 h 0.16 c 0,0 0.17,0.01 0.17,0.01 h 0.1 c 0,0 0.09,0 0.09,0 h 0.09 c 0,0 0.09,-0.02 0.09,-0.02 l 0.08,-0.02 0.08,-0.02 0.08,-0.02 0.07,-0.03 0.07,-0.03 0.07,-0.03 0.06,-0.04 0.06,-0.04 0.06,-0.04 0.05,-0.04 0.05,-0.05 0.05,-0.05 0.04,-0.05 0.04,-0.05 0.04,-0.05 0.04,-0.06 0.03,-0.06 0.03,-0.06 0.03,-0.06 0.02,-0.06 0.02,-0.06 0.02,-0.06 v -0.07 c 0,0 0.03,-0.07 0.03,-0.07 l 0.02,-0.13 v -0.14 c 0,0 0,-0.18 0,-0.18 l -0.02,-0.17 -0.02,-0.08 -0.02,-0.08 -0.03,-0.08 -0.03,-0.07 -0.04,-0.07 -0.04,-0.07 -0.05,-0.07 -0.05,-0.06 -0.06,-0.06 -0.06,-0.06 -0.06,-0.05 -0.07,-0.05 -0.08,-0.05 -0.08,-0.05 -0.09,-0.04 -0.09,-0.04 -0.2,-0.07 -0.22,-0.06 -0.24,-0.05 -0.27,-0.03 -0.29,-0.02 h -0.31 c 0,0 -1.18,0 -1.18,0 v 0.34 h -2.87 v -2.87 c 0,0 0.02,-0.22 0.02,-0.22 l 0.02,-0.21 0.03,-0.2 0.04,-0.2 0.05,-0.19 0.06,-0.18 0.07,-0.17 0.07,-0.17 0.08,-0.16 0.09,-0.15 0.1,-0.14 0.11,-0.14 0.12,-0.13 0.12,-0.12 0.13,-0.11 0.14,-0.11 0.15,-0.1 0.16,-0.09 0.17,-0.09 0.17,-0.08 0.18,-0.07 0.19,-0.06 0.2,-0.06 0.42,-0.09 0.45,-0.07 0.48,-0.04 h 0.51 c 0,0 0.29,0 0.29,0 h 0.28 c 0,0 0.27,0.03 0.27,0.03 l 0.26,0.03 0.25,0.04 0.24,0.05 0.23,0.05 0.21,0.06 0.2,0.07 0.19,0.07 0.18,0.08 0.17,0.09 0.16,0.09 0.15,0.1 0.15,0.11 0.14,0.11 0.13,0.12 0.12,0.12 0.11,0.13 0.1,0.13 0.09,0.14 0.09,0.14 0.08,0.15 0.07,0.15 0.06,0.15 0.06,0.16 0.05,0.16 0.04,0.16 0.07,0.33 0.04,0.34 h -2.76 l -0.02,-0.14 -0.03,-0.14 -0.03,-0.13 -0.04,-0.12 -0.05,-0.11 -0.03,-0.05 -0.03,-0.05 -0.03,-0.05 -0.04,-0.05 -0.04,-0.05 -0.04,-0.04 -0.05,-0.04 -0.05,-0.04 -0.05,-0.04 -0.06,-0.03 -0.06,-0.03 -0.07,-0.03 -0.07,-0.03 -0.07,-0.02 -0.08,-0.02 -0.08,-0.02 -0.09,-0.02 h -0.09 c 0,0 -0.1,-0.02 -0.1,-0.02 h -0.1 c 0,0 -0.11,-0.01 -0.11,-0.01 h -0.11 c 0,0 -0.12,0 -0.12,0 h -0.12 c 0,0 -0.11,0.02 -0.11,0.02 h -0.11 c 0,0 -0.1,0.03 -0.1,0.03 l -0.09,0.02 -0.09,0.03 -0.08,0.03 -0.08,0.03 -0.07,0.03 -0.07,0.04 -0.06,0.04 -0.06,0.04 -0.06,0.05 -0.05,0.05 -0.05,0.05 -0.04,0.05 -0.04,0.05 -0.04,0.06 -0.03,0.06 -0.03,0.06 -0.03,0.06 -0.02,0.06 -0.02,0.06 -0.03,0.13 -0.02,0.13 v 0.14 c 0,0 -0.01,0.14 -0.01,0.14 v 0.62 h 2.08 c 0,0 0.27,0.03 0.27,0.03 l 0.26,0.02 0.26,0.03 0.25,0.04 0.24,0.04 0.23,0.05 0.23,0.06 0.22,0.06 0.21,0.07 0.2,0.08 0.19,0.08 0.18,0.09 0.18,0.1 0.17,0.1 0.16,0.11 0.15,0.12 0.14,0.13 0.13,0.13 0.12,0.14 0.11,0.15 0.1,0.15 0.09,0.16 0.08,0.17 0.07,0.17 0.06,0.18 0.05,0.19 0.04,0.2 0.03,0.2 0.02,0.21 v 0.05 c 0,0 0,0.17 0,0.17 z"
       id="path3836"
       style="fill:#f2eca0;fill-rule:evenodd;stroke-width:0px" />
    <path
       class="cls-24"
       d="m 256.28,178.48 h -2.76 l -0.02,-0.11 -0.02,-0.12 -0.02,-0.13 -0.02,-0.13 v -0.13 c 0,0 -0.03,-0.13 -0.03,-0.13 v -0.13 c 0,0 0,-0.13 0,-0.13 l -0.1,0.14 -0.1,0.14 -0.11,0.13 -0.12,0.12 -0.12,0.11 -0.13,0.1 -0.14,0.09 -0.15,0.08 -0.17,0.07 -0.18,0.07 -0.2,0.06 -0.21,0.05 -0.23,0.04 -0.25,0.03 -0.26,0.02 h -0.28 c 0,0 -0.28,0 -0.28,0 l -0.27,-0.02 -0.26,-0.04 -0.25,-0.05 -0.24,-0.07 -0.24,-0.08 -0.23,-0.09 -0.22,-0.11 -0.21,-0.12 -0.2,-0.13 -0.19,-0.14 -0.18,-0.15 -0.17,-0.16 -0.16,-0.17 -0.16,-0.18 -0.15,-0.19 -0.14,-0.2 -0.13,-0.21 -0.23,-0.44 -0.2,-0.47 -0.16,-0.49 -0.12,-0.51 -0.09,-0.53 -0.05,-0.54 -0.02,-0.49 h 2.92 v 0.19 c 0,0 0,0.18 0,0.18 v 0.18 c 0,0 0.03,0.17 0.03,0.17 l 0.02,0.17 0.03,0.16 0.03,0.16 0.03,0.15 0.04,0.15 0.04,0.14 0.05,0.14 0.05,0.13 0.06,0.13 0.06,0.12 0.06,0.12 0.07,0.11 0.07,0.1 0.08,0.1 0.08,0.09 0.09,0.08 0.09,0.08 0.09,0.07 0.1,0.06 0.1,0.06 0.11,0.05 0.11,0.04 0.12,0.04 0.12,0.03 0.12,0.02 h 0.13 c 0,0 0.13,0.02 0.13,0.02 h 0.14 c 0,0 0.15,0 0.15,0 h 0.15 c 0,0 0.14,-0.03 0.14,-0.03 l 0.13,-0.03 0.13,-0.03 0.12,-0.04 0.12,-0.05 0.11,-0.05 0.1,-0.06 0.1,-0.07 0.09,-0.07 0.09,-0.08 0.08,-0.09 0.08,-0.09 0.07,-0.1 0.07,-0.1 0.06,-0.11 0.06,-0.11 0.1,-0.24 0.08,-0.25 0.06,-0.27 0.05,-0.29 0.03,-0.3 0.02,-0.31 v -0.32 c 0,0 0,-0.39 0,-0.39 l -0.02,-0.36 -0.02,-0.17 -0.02,-0.17 -0.03,-0.16 -0.03,-0.15 -0.03,-0.15 -0.04,-0.14 -0.04,-0.13 -0.05,-0.13 -0.05,-0.12 -0.06,-0.12 -0.06,-0.11 -0.06,-0.1 -0.07,-0.1 -0.07,-0.09 -0.08,-0.08 -0.08,-0.08 -0.09,-0.07 -0.09,-0.07 -0.1,-0.06 -0.11,-0.05 -0.11,-0.05 -0.12,-0.04 -0.12,-0.03 -0.13,-0.03 -0.13,-0.02 -0.14,-0.02 h -0.14 c 0,0 -0.15,-0.01 -0.15,-0.01 h -0.14 c 0,0 -0.13,0.01 -0.13,0.01 l -0.13,0.02 -0.13,0.03 -0.12,0.03 -0.12,0.04 -0.11,0.05 -0.11,0.05 -0.1,0.06 -0.1,0.07 -0.09,0.07 -0.09,0.08 -0.08,0.08 -0.08,0.09 -0.07,0.09 -0.07,0.1 -0.07,0.1 -0.06,0.11 -0.11,0.23 -0.09,0.25 -0.07,0.27 -0.06,0.28 -0.04,0.3 -0.02,0.31 v 0.32 h -2.93 v -0.06 c 0,0 0.01,-0.54 0.01,-0.54 l 0.02,-0.26 0.03,-0.26 0.04,-0.26 0.05,-0.25 0.05,-0.25 0.06,-0.24 0.07,-0.23 0.08,-0.23 0.09,-0.22 0.1,-0.21 0.1,-0.21 0.11,-0.2 0.12,-0.19 0.13,-0.18 0.14,-0.17 0.15,-0.17 0.15,-0.16 0.16,-0.15 0.17,-0.14 0.18,-0.13 0.19,-0.12 0.2,-0.11 0.2,-0.09 0.21,-0.08 0.22,-0.07 0.23,-0.06 0.24,-0.05 0.25,-0.03 0.26,-0.02 h 0.26 c 0,0 0.16,0 0.16,0 h 0.15 c 0,0 0.15,0.02 0.15,0.02 h 0.14 c 0,0 0.14,0.03 0.14,0.03 l 0.13,0.02 0.13,0.02 0.12,0.03 0.12,0.03 0.11,0.03 0.11,0.03 0.11,0.04 0.1,0.04 0.1,0.04 0.1,0.04 0.09,0.05 0.09,0.05 0.08,0.05 0.08,0.05 0.08,0.05 0.07,0.06 0.07,0.06 0.07,0.06 0.06,0.06 0.12,0.12 0.11,0.12 0.1,0.13 0.09,0.13 v -5.4 h 2.93 v 14.79 z"
       id="path3837"
       style="fill:#f2eca0;fill-rule:evenodd;stroke-width:0px" />
    <path
       class="cls-24"
       d="m 232.66,161.44 h 0.17 c 0,0 0.16,0.02 0.16,0.02 l 0.15,0.02 0.15,0.02 0.14,0.03 0.14,0.03 0.13,0.03 0.13,0.04 0.12,0.04 0.12,0.04 0.11,0.05 0.11,0.05 0.1,0.05 0.1,0.05 0.09,0.06 0.09,0.06 0.08,0.06 0.08,0.06 0.08,0.06 0.07,0.06 0.07,0.07 0.12,0.13 0.11,0.13 0.1,0.13 0.08,0.13 0.07,0.13 v -0.14 c 0,0 0,-0.17 0,-0.17 v -0.19 c 0,0 0.03,-0.19 0.03,-0.19 l 0.02,-0.19 0.02,-0.18 0.02,-0.16 0.02,-0.12 h 2.81 v 10.52 h -2.93 v -6.18 c 0,0 -0.02,-0.16 -0.02,-0.16 v -0.15 c 0,0 -0.03,-0.14 -0.03,-0.14 l -0.02,-0.14 -0.02,-0.13 -0.03,-0.12 -0.03,-0.12 -0.03,-0.11 -0.04,-0.11 -0.04,-0.1 -0.05,-0.09 -0.05,-0.09 -0.05,-0.08 -0.06,-0.08 -0.06,-0.07 -0.07,-0.07 -0.07,-0.06 -0.07,-0.06 -0.08,-0.05 -0.08,-0.05 -0.08,-0.04 -0.09,-0.04 -0.09,-0.03 -0.1,-0.03 -0.1,-0.02 -0.1,-0.02 h -0.11 c 0,0 -0.11,-0.02 -0.11,-0.02 h -0.12 c 0,0 -0.12,0 -0.12,0 h -0.12 c 0,0 -0.11,0 -0.11,0 h -0.11 c 0,0 -0.1,0.03 -0.1,0.03 l -0.1,0.02 -0.09,0.03 -0.09,0.03 -0.08,0.03 -0.08,0.04 -0.08,0.04 -0.07,0.05 -0.07,0.05 -0.06,0.05 -0.06,0.06 -0.05,0.06 -0.05,0.07 -0.05,0.07 -0.04,0.07 -0.04,0.08 -0.04,0.08 -0.03,0.08 -0.03,0.08 -0.05,0.18 -0.04,0.19 -0.03,0.2 v 0.21 c 0,0 -0.02,0.22 -0.02,0.22 v 6.36 h -2.93 v -6.94 c 0,0 0.02,-0.24 0.02,-0.24 l 0.02,-0.23 0.03,-0.22 0.04,-0.21 0.04,-0.21 0.05,-0.2 0.06,-0.19 0.07,-0.19 0.07,-0.18 0.08,-0.17 0.09,-0.16 0.09,-0.15 0.1,-0.15 0.11,-0.14 0.11,-0.13 0.12,-0.12 0.12,-0.12 0.13,-0.11 0.14,-0.1 0.14,-0.09 0.15,-0.08 0.15,-0.08 0.16,-0.07 0.16,-0.06 0.17,-0.05 0.17,-0.04 0.18,-0.04 0.18,-0.03 0.18,-0.02 h 0.19 c 0,0 0.19,-0.02 0.19,-0.02 h 0.17 z"
       id="path3838"
       style="fill:#f2eca0;fill-rule:evenodd;stroke-width:0px" />
    <path
       class="cls-24"
       d="m 299.41,163.47 h 0.2 c 0,0 0.19,0.03 0.19,0.03 l 0.19,0.03 0.18,0.04 0.17,0.04 0.17,0.05 0.16,0.06 0.15,0.07 0.15,0.07 0.14,0.08 0.13,0.09 0.13,0.09 0.12,0.1 0.11,0.11 0.11,0.11 0.1,0.12 0.09,0.13 0.09,0.13 0.08,0.14 0.07,0.15 0.07,0.15 0.06,0.16 0.05,0.16 0.05,0.17 0.04,0.17 0.06,0.36 0.04,0.38 v 0.4 c 0,0 0.01,0.9 0.01,0.9 h 1.52 v 2.19 h -1.52 v 8.32 l -2.87,-0.06 v -8.32 h -1.86 v -2.19 h 1.86 v -0.87 c 0,0 -0.02,-0.18 -0.02,-0.18 v -0.08 c 0,0 -0.02,-0.08 -0.02,-0.08 v -0.07 c 0,0 -0.03,-0.07 -0.03,-0.07 l -0.02,-0.07 -0.02,-0.06 -0.02,-0.06 -0.02,-0.06 -0.03,-0.05 -0.03,-0.05 -0.03,-0.05 -0.03,-0.04 -0.04,-0.04 -0.04,-0.04 -0.04,-0.03 -0.04,-0.03 -0.05,-0.03 -0.05,-0.02 -0.05,-0.02 -0.06,-0.02 -0.06,-0.02 h -0.06 c 0,0 -0.06,-0.03 -0.06,-0.03 h -0.07 c 0,0 -0.07,-0.02 -0.07,-0.02 h -0.07 c 0,0 -0.15,0 -0.15,0 h -0.04 c 0,0 -0.04,0 -0.04,0 h -0.04 c 0,0 -0.04,0 -0.04,0 h -0.08 c 0,0 -0.08,0.02 -0.08,0.02 h -0.08 c 0,0 -0.07,0.02 -0.07,0.02 h -0.07 c 0,0 -0.03,0 -0.03,0 h -0.03 c 0,0 0,-2.31 0,-2.31 l 0.12,-0.02 0.14,-0.02 0.16,-0.02 0.17,-0.02 h 0.18 c 0,0 0.19,-0.03 0.19,-0.03 h 0.19 c 0,0 0.19,0 0.19,0 h 0.21 z"
       id="path3839"
       style="fill:#f2eca0;fill-rule:evenodd;stroke-width:0px" />
    <path
       class="cls-24"
       d="m 243.85,180.9 h -1.91 v -21.37 h 1.91 z"
       id="path3840"
       style="fill:#f2eca0;fill-rule:evenodd;stroke-width:0px" />
    <path
       class="cls-24"
       d="m 272.99,178.48 h -2.93 v -14.79 h 2.93 z"
       id="path3841"
       inkscape:label="path3841"
       style="fill:#f2eca0;fill-rule:evenodd;stroke-width:0px" />
  </g>
  <g
     id="Layer_4"
     data-name="Layer 4"
     style="display:inline"
     inkscape:label="pacmaze"
     transform="translate(-308.96398,-156.57309)">
    <path
       id="pacman"
       class="cls-22"
       d="m 309.25,160.78 c -1.06,3.17 0.92,6.38 4.39,7.34 0.26,0.07 0.53,0.13 0.8,0.16 0.42,0.04 0.84,0.06 1.26,0.09 1.2,-0.03 2.28,-0.36 3.3,-0.91 0.76,-0.41 0.87,-1.1 0.23,-1.65 -0.84,-0.73 -1.7,-1.45 -2.55,-2.17 -0.78,-0.66 -0.8,-1.27 -0.05,-1.98 0.86,-0.81 1.73,-1.63 2.59,-2.45 0.69,-0.65 0.6,-1.31 -0.24,-1.78 -3.63,-2.01 -8.48,-0.32 -9.71,3.36 z m 6.95,-1.71 c 0.02,0.67 -0.51,1.22 -1.17,1.24 -0.66,0.02 -1.22,-0.51 -1.24,-1.17 -0.02,-0.66 0.51,-1.22 1.17,-1.24 0.66,-0.02 1.22,0.51 1.24,1.17 z"
       style="fill:#f2eca0;stroke-width:0px" />
  </g>
</svg>
